{"glyphs":{"0":{"ha":778,"x_min":0,"x_max":0,"o":"m 343 -17 b 228 10 297 -17 258 -8 b 154 81 197 27 173 51 b 115 184 136 111 122 146 b 103 304 107 222 103 263 b 113 460 103 354 106 406 b 143 617 119 513 129 566 b 196 764 157 669 175 718 b 272 886 217 810 243 851 b 374 969 302 921 336 949 b 501 1000 412 990 454 1000 b 615 974 547 1000 585 991 b 689 902 646 956 670 932 b 728 799 707 872 721 838 b 740 679 736 761 740 721 b 731 524 740 629 737 577 b 700 366 724 470 714 417 b 647 219 686 315 669 266 b 572 97 626 173 601 132 b 471 14 542 62 509 34 b 343 -17 433 -6 390 -17 m 500 972 b 343 914 441 972 388 953 b 228 762 298 875 259 824 b 158 551 197 699 174 629 b 133 314 141 472 133 394 b 142 204 133 277 136 240 b 175 107 148 168 159 136 b 240 38 191 78 212 55 b 343 11 267 20 301 11 b 500 69 402 11 455 31 b 615 222 545 108 584 159 b 685 433 646 284 669 354 b 710 669 702 511 710 590 b 701 779 710 706 707 743 b 668 876 695 815 684 848 b 603 946 652 905 631 928 b 500 972 576 963 542 972 "},"1":{"ha":778,"x_min":0,"x_max":0,"o":"m 514 947 l 300 799 l 286 822 l 521 983 l 551 983 l 378 0 l 347 0 "},"2":{"ha":778,"x_min":0,"x_max":0,"o":"m 39 36 l 453 438 b 560 549 495 479 531 516 b 631 640 590 582 613 613 b 669 719 649 668 662 694 b 681 794 677 744 681 769 b 665 871 681 823 675 849 b 621 927 654 893 639 912 b 556 962 602 942 581 954 b 478 974 532 970 506 974 b 331 931 424 974 375 959 b 224 806 286 903 250 861 l 197 815 b 312 952 224 875 262 920 b 478 1000 361 984 417 1000 b 570 985 511 1000 542 995 b 644 944 598 976 623 962 b 693 881 665 927 681 906 b 711 796 705 856 711 827 b 696 699 711 761 706 728 b 649 609 686 669 670 639 b 572 516 628 579 603 548 b 464 408 541 484 505 448 l 74 29 l 603 29 l 597 0 l 32 0 "},"3":{"ha":778,"x_min":0,"x_max":0,"o":"m 321 -17 b 158 25 258 -17 203 -3 b 60 138 112 53 79 90 l 85 153 b 178 48 106 107 137 72 b 322 11 220 23 268 11 b 447 35 369 11 411 19 b 536 97 482 50 512 71 b 591 184 560 122 578 151 b 610 285 603 217 610 250 b 590 380 610 321 603 353 b 535 448 576 407 558 430 b 458 489 513 466 487 480 b 367 503 428 498 398 503 l 336 503 l 340 531 l 371 531 b 494 552 417 531 458 538 b 584 609 529 566 559 585 b 640 692 609 633 627 660 b 658 792 652 723 658 756 b 643 864 658 818 653 842 b 601 922 633 886 619 905 b 538 960 583 938 562 950 b 461 974 513 969 488 974 b 346 947 420 974 382 965 b 251 872 310 930 278 905 l 229 889 b 328 970 258 923 291 950 b 460 1000 366 990 410 1000 b 551 984 493 1000 524 995 b 624 940 579 973 603 959 b 671 874 644 922 660 900 b 688 793 682 849 688 822 b 673 697 688 760 683 728 b 628 615 663 667 648 639 b 552 552 607 590 582 569 b 444 517 522 535 486 523 l 444 514 b 528 485 476 508 504 499 b 590 434 553 471 574 454 b 628 366 607 414 619 391 b 640 286 636 341 640 314 b 622 176 640 249 634 213 b 563 79 609 140 590 108 b 464 10 537 50 504 27 b 321 -17 424 -8 376 -17 "},"4":{"ha":778,"x_min":0,"x_max":0,"o":"m 496 0 l 465 0 l 510 256 l 46 256 l 53 293 l 618 983 l 668 983 l 544 283 l 708 283 l 703 256 l 540 256 m 628 950 l 82 283 l 514 283 l 632 950 "},"5":{"ha":778,"x_min":0,"x_max":0,"o":"m 324 -17 b 167 19 263 -17 210 -5 b 64 114 123 44 89 75 l 89 133 b 183 44 111 95 143 66 b 322 11 224 22 270 11 b 451 38 369 11 412 20 b 549 111 489 56 522 81 b 612 217 577 142 597 177 b 633 346 626 258 633 300 b 617 439 633 379 628 410 b 569 514 606 468 590 493 b 492 564 548 535 522 552 b 389 582 461 576 427 582 b 291 569 355 582 322 578 b 203 532 260 560 231 548 l 289 983 l 718 983 l 713 956 l 314 956 l 239 574 b 317 601 266 587 292 596 b 390 608 342 606 366 608 b 505 588 433 608 471 602 b 591 533 539 575 567 556 b 645 450 615 509 633 481 b 664 349 658 419 664 385 b 641 208 664 300 656 253 b 574 92 626 164 603 125 b 467 13 545 58 509 32 b 324 -17 425 -7 377 -17 "},"6":{"ha":778,"x_min":0,"x_max":0,"o":"m 118 242 b 134 153 118 210 123 181 b 181 79 145 125 160 100 b 253 28 201 58 225 41 b 350 10 282 16 314 10 b 474 35 395 10 437 18 b 569 104 512 53 544 75 b 630 203 595 133 616 166 b 651 322 644 241 651 281 b 635 412 651 354 646 384 b 590 485 625 440 610 465 b 519 535 571 506 547 523 b 425 553 492 547 460 553 b 302 527 381 553 340 544 b 205 459 265 510 232 487 b 141 360 178 431 156 398 b 118 242 126 323 118 283 m 88 242 b 95 313 88 267 90 291 b 119 382 100 336 108 359 b 159 455 129 405 143 429 b 218 538 175 480 195 508 l 557 983 l 596 983 l 231 511 l 233 510 b 312 557 253 526 279 542 b 426 579 345 572 383 579 b 529 561 463 579 498 573 b 610 510 561 549 588 532 b 663 429 633 488 651 461 b 682 324 676 398 682 363 b 658 194 682 278 674 235 b 591 85 643 153 620 116 b 485 11 562 54 527 30 b 347 -17 444 -7 398 -17 b 242 1 309 -17 274 -11 b 160 53 210 13 183 31 b 107 135 138 76 120 103 b 88 242 94 167 88 203 "},"7":{"ha":778,"x_min":0,"x_max":0,"o":"m 161 0 l 125 0 l 721 956 l 229 956 l 235 983 l 756 983 l 749 946 "},"8":{"ha":778,"x_min":0,"x_max":0,"o":"m 676 303 b 647 161 676 248 666 201 b 569 62 627 121 601 88 b 463 3 538 35 503 16 b 344 -17 424 -10 384 -17 b 249 -3 312 -17 280 -12 b 165 40 217 6 189 21 b 107 114 141 60 122 84 b 85 219 92 144 85 179 b 104 329 85 258 91 295 b 158 421 117 363 135 394 b 242 489 181 448 209 470 b 350 529 274 507 310 521 l 350 532 b 241 613 298 549 262 575 b 210 728 220 650 210 688 b 233 840 210 769 217 807 b 294 926 248 874 268 902 b 382 981 319 949 349 968 b 485 1000 415 994 450 1000 b 578 986 518 1000 549 995 b 653 944 606 977 631 963 b 703 874 674 926 691 903 b 721 776 715 846 721 813 b 704 684 721 743 715 712 b 658 610 693 656 678 631 b 590 557 639 588 616 571 b 508 526 564 543 537 533 l 508 524 b 572 494 531 517 552 507 b 625 447 591 481 609 466 b 663 382 641 428 653 406 b 676 303 672 358 676 331 m 240 726 b 291 592 240 673 257 628 b 429 539 325 557 371 539 b 538 559 469 539 505 546 b 620 612 570 572 597 590 b 672 687 643 634 660 659 b 690 774 684 715 690 744 b 632 922 690 838 671 888 b 485 972 593 955 544 972 b 387 952 450 972 417 966 b 309 898 357 939 331 921 b 258 819 287 875 270 849 b 240 726 246 790 240 759 m 115 222 b 133 137 115 191 121 162 b 181 71 144 111 160 89 b 253 28 201 52 225 38 b 344 13 282 18 312 13 b 467 35 389 13 430 20 b 563 95 504 50 536 70 b 625 186 589 121 610 151 b 647 301 640 221 647 260 b 630 383 647 330 641 357 b 583 451 618 409 603 432 b 511 497 563 471 539 486 b 421 514 483 508 453 514 b 303 492 379 514 340 506 b 206 430 266 477 233 456 b 140 338 178 403 156 373 b 115 222 123 302 115 264 "},"9":{"ha":778,"x_min":0,"x_max":0,"o":"m 732 742 b 716 831 732 773 727 803 b 669 904 705 858 690 883 b 597 955 649 925 625 942 b 500 974 568 967 536 974 b 375 949 454 974 412 966 b 281 883 338 933 306 911 b 220 786 255 856 234 823 b 199 668 206 749 199 710 b 215 578 199 636 204 606 b 260 505 225 550 240 526 b 331 456 279 484 303 468 b 425 438 358 444 390 438 b 548 462 469 438 510 446 b 645 528 585 478 618 500 b 709 624 672 556 694 588 b 732 742 724 661 732 700 m 763 742 b 731 601 763 693 752 646 b 632 446 710 557 677 505 l 293 0 l 254 0 l 619 472 l 617 474 b 538 430 597 457 571 442 b 424 411 505 417 467 411 b 320 429 386 411 351 417 b 240 481 289 441 262 458 b 187 561 217 503 199 530 b 168 667 174 593 168 628 b 192 795 168 712 176 755 b 259 901 207 835 230 871 b 365 974 288 932 323 956 b 503 1000 406 991 452 1000 b 608 982 541 1000 576 994 b 690 930 640 970 667 953 b 743 848 712 907 730 880 b 763 742 756 816 763 781 "},"\u0000":{"ha":694,"x_min":0,"x_max":0,"o":""},"\r":{"ha":0,"x_min":0,"x_max":0,"o":""}," ":{"ha":347,"x_min":0,"x_max":0,"o":""},"!":{"ha":383,"x_min":0,"x_max":0,"o":"m 168 271 l 294 983 l 325 983 l 199 271 m 146 -8 b 125 -1 138 -8 131 -6 b 117 24 119 4 117 13 b 126 51 117 34 120 43 b 151 63 133 59 141 63 b 172 55 160 63 167 60 b 181 32 178 50 181 42 b 170 3 181 21 177 11 b 146 -8 163 -4 155 -8 "},"\"":{"ha":561,"x_min":0,"x_max":0,"o":"m 283 983 l 314 983 l 258 667 l 228 667 m 483 983 l 514 983 l 458 667 l 428 667 "},"#":{"ha":764,"x_min":0,"x_max":0,"o":"m 496 357 l 651 357 l 647 333 l 489 333 l 389 0 l 363 0 l 463 333 l 224 333 l 124 0 l 97 0 l 197 333 l 43 333 l 47 357 l 204 357 l 290 629 l 136 629 l 140 653 l 297 653 l 397 983 l 424 983 l 322 653 l 561 653 l 663 983 l 689 983 l 588 653 l 743 653 l 739 629 l 581 629 m 232 357 l 469 357 l 554 629 l 317 629 "},"$":{"ha":778,"x_min":0,"x_max":0,"o":"m 422 521 b 522 480 458 508 491 494 b 600 429 552 466 578 449 b 651 361 622 410 639 387 b 669 268 663 335 669 304 b 644 149 669 224 661 184 b 575 58 628 113 605 83 b 467 1 545 33 509 14 b 328 -19 425 -13 379 -19 l 311 -117 l 283 -117 l 300 -18 b 151 23 245 -14 196 -1 b 51 110 106 47 73 75 l 74 128 b 160 51 91 100 120 74 b 306 8 201 27 249 13 l 392 500 b 303 535 360 511 331 523 b 232 578 276 547 252 561 b 184 641 212 596 196 616 b 167 731 172 666 167 695 b 194 847 167 775 176 814 b 267 931 213 881 237 909 b 368 983 297 954 331 971 b 479 1004 405 995 442 1002 l 496 1100 l 524 1100 l 507 1004 b 666 968 570 1002 623 990 b 760 888 709 946 740 919 l 738 868 b 647 945 721 900 691 925 b 501 976 603 965 554 975 l 422 521 m 333 7 b 456 24 378 7 419 13 b 553 75 494 36 526 53 b 617 156 581 97 602 124 b 640 267 633 188 640 225 b 624 349 640 298 635 325 b 577 409 613 372 597 392 b 506 454 557 426 534 441 b 418 490 479 467 450 479 l 333 7 m 474 976 b 379 958 443 975 412 969 b 290 913 347 948 317 933 b 224 839 263 893 241 869 b 197 732 206 809 197 774 b 211 654 197 701 202 675 b 251 600 220 633 234 615 b 315 562 269 585 290 572 b 396 529 339 551 366 540 l 474 976 "},"%":{"ha":1139,"x_min":0,"x_max":0,"o":"m 564 804 b 554 865 564 825 561 846 b 524 917 548 885 538 902 b 472 952 510 931 493 943 b 400 965 452 961 428 965 b 315 947 369 965 340 959 b 250 897 289 934 268 917 b 209 825 232 876 219 852 b 194 742 199 798 194 770 b 204 679 194 719 198 699 b 233 628 211 660 220 643 b 284 594 246 614 263 603 b 357 581 305 585 329 581 b 442 599 388 581 417 587 b 508 649 468 612 490 628 b 549 719 526 669 540 693 b 564 804 559 746 564 775 m 165 739 b 182 834 165 772 171 804 b 229 915 193 864 209 891 b 304 971 250 938 275 957 b 403 992 334 985 367 992 b 485 977 434 992 462 987 b 545 938 509 967 529 954 b 581 879 561 921 573 901 b 593 807 589 857 593 833 b 576 711 593 774 588 742 b 529 631 565 681 550 654 b 454 576 509 609 484 590 b 356 556 425 563 392 556 b 273 569 324 556 297 560 b 213 608 249 579 229 592 b 177 667 197 625 185 644 b 165 739 169 689 165 713 m 1019 239 b 1010 300 1019 260 1016 281 b 979 351 1003 319 993 337 b 928 387 965 366 948 378 b 856 400 907 396 883 400 b 770 381 824 400 796 394 b 706 331 745 369 723 352 b 665 260 688 310 674 287 b 650 176 655 233 650 205 b 660 114 650 154 653 133 b 689 63 666 94 676 78 b 740 28 702 49 719 37 b 813 15 760 20 785 15 b 898 34 844 15 872 22 b 963 83 923 47 945 63 b 1005 154 981 104 995 127 b 1019 239 1015 181 1019 209 m 621 174 b 638 269 621 207 626 239 b 685 349 649 299 664 326 b 760 406 705 373 730 392 b 858 426 789 419 822 426 b 941 412 890 426 917 422 b 1001 372 965 402 984 389 b 1037 314 1017 356 1029 336 b 1049 242 1045 292 1049 268 b 1032 146 1049 208 1043 176 b 985 66 1021 115 1005 89 b 910 11 964 43 939 25 b 811 -10 880 -3 847 -10 b 728 4 780 -10 752 -5 b 669 43 705 13 685 26 b 633 101 653 60 641 79 b 621 174 625 124 621 148 m 186 -22 l 982 1022 l 1004 1007 l 208 -37 "},"&":{"ha":978,"x_min":0,"x_max":0,"o":"m 672 172 b 523 27 624 110 574 62 b 342 -25 472 -8 411 -25 b 250 -11 311 -25 281 -20 b 169 33 219 -2 192 13 b 111 108 145 53 126 78 b 89 218 96 139 89 175 b 112 333 89 261 97 299 b 175 423 127 366 148 397 b 269 493 202 449 233 473 b 386 549 306 513 344 532 b 312 668 353 593 328 633 b 288 769 296 703 288 737 b 306 867 288 806 294 838 b 356 942 318 897 334 922 b 432 991 378 963 403 979 b 525 1008 461 1003 492 1008 b 603 994 554 1008 580 1004 b 663 957 626 985 646 973 b 701 901 679 941 692 922 b 715 831 711 879 715 856 b 701 744 715 799 711 770 b 655 669 692 717 677 692 b 568 601 633 645 604 622 b 432 535 532 579 487 557 l 672 219 l 872 513 l 910 513 l 690 197 l 842 0 l 804 0 m 683 826 b 638 939 683 872 668 909 b 524 983 608 969 570 983 b 454 971 501 983 478 979 b 388 933 430 963 408 950 b 338 867 367 916 350 894 b 318 772 325 840 318 808 b 346 667 318 736 327 701 b 415 557 364 632 388 596 b 617 670 506 592 573 630 b 683 826 661 710 683 763 m 403 525 b 299 478 368 512 333 497 b 208 414 264 460 234 439 b 144 328 181 389 160 360 b 119 219 128 295 119 259 b 138 125 119 183 125 152 b 187 57 150 98 166 75 b 258 15 208 38 231 25 b 343 1 285 6 313 1 b 514 54 406 1 463 19 b 654 194 565 89 612 136 l 403 525 "},"'":{"ha":361,"x_min":0,"x_max":0,"o":"m 283 983 l 314 983 l 258 667 l 228 667 "},"(":{"ha":417,"x_min":0,"x_max":0,"o":"m 432 1003 b 324 860 396 964 360 916 b 228 672 289 803 256 741 b 158 449 199 603 176 528 b 131 200 140 369 131 286 b 153 -18 131 125 138 52 b 217 -203 168 -88 189 -150 l 189 -217 b 124 -26 161 -161 139 -97 b 100 196 108 46 100 120 b 118 404 100 263 106 333 b 174 617 130 475 149 547 b 269 825 199 688 230 757 b 406 1017 307 893 353 956 l 432 1003 "},")":{"ha":417,"x_min":0,"x_max":0,"o":"m 11 -203 b 119 -60 47 -164 83 -116 b 215 128 154 -3 187 59 b 285 351 244 197 267 272 b 313 600 303 431 313 514 b 290 818 313 675 305 748 b 226 1003 275 888 254 950 l 254 1017 b 319 826 282 961 304 897 b 343 604 335 754 343 680 b 325 396 343 537 337 467 b 269 183 313 325 294 253 b 174 -25 244 112 213 43 b 38 -217 136 -93 90 -156 l 11 -203 "},"*":{"ha":617,"x_min":0,"x_max":0,"o":"m 606 794 l 376 725 l 518 528 l 499 514 l 358 713 l 218 514 l 199 528 l 340 725 l 111 794 l 119 818 l 346 746 l 346 983 l 371 983 l 371 746 l 597 818 "},"+":{"ha":925,"x_min":0,"x_max":0,"o":"m 450 90 l 450 410 l 139 410 l 139 436 l 450 436 l 450 756 l 479 756 l 479 436 l 786 436 l 786 410 l 479 410 l 479 90 "},",":{"ha":333,"x_min":0,"x_max":0,"o":"m 10 -192 l 144 125 l 178 125 l 33 -192 "},"-":{"ha":417,"x_min":0,"x_max":0,"o":"m 93 367 l 343 367 l 338 340 l 88 340 "},".":{"ha":333,"x_min":0,"x_max":0,"o":"m 113 -8 b 92 -1 104 -8 97 -6 b 83 24 86 4 83 13 b 93 51 83 34 87 43 b 118 63 100 59 108 63 b 139 55 126 63 133 60 b 147 32 144 50 147 42 b 137 3 147 21 144 11 b 113 -8 130 -4 122 -8 "},"/":{"ha":514,"x_min":0,"x_max":0,"o":"m -25 -11 l 582 1013 l 606 1003 l -1 -21 "},":":{"ha":389,"x_min":0,"x_max":0,"o":"m 142 -8 b 121 -1 133 -8 126 -6 b 113 24 115 4 113 13 b 122 51 113 34 116 43 b 147 63 129 59 137 63 b 168 55 156 63 163 60 b 176 32 174 50 176 42 b 166 3 176 21 173 11 b 142 -8 159 -4 151 -8 m 233 568 b 213 576 225 568 218 571 b 204 600 207 581 204 589 b 214 627 204 610 207 619 b 239 639 220 635 229 639 b 260 631 247 639 254 636 b 268 608 265 626 268 619 b 258 580 268 597 265 588 b 233 568 251 572 243 568 "},";":{"ha":389,"x_min":0,"x_max":0,"o":"m 24 -192 l 158 125 l 192 125 l 47 -192 m 233 568 b 213 576 225 568 218 571 b 204 600 207 581 204 589 b 214 627 204 610 207 619 b 239 639 220 635 229 639 b 260 631 247 639 254 636 b 268 608 265 626 268 619 b 258 580 268 597 265 588 b 233 568 251 572 243 568 "},"<":{"ha":925,"x_min":0,"x_max":0,"o":"m 139 438 l 786 749 l 786 721 l 156 421 l 786 121 l 786 93 l 139 404 "},"=":{"ha":925,"x_min":0,"x_max":0,"o":"m 139 554 l 786 554 l 786 528 l 139 528 m 139 317 l 786 317 l 786 290 l 139 290 "},">":{"ha":925,"x_min":0,"x_max":0,"o":"m 769 421 l 139 721 l 139 749 l 786 438 l 786 404 l 139 93 l 139 121 "},"?":{"ha":656,"x_min":0,"x_max":0,"o":"m 300 278 l 314 351 b 326 397 317 366 321 381 b 348 445 331 413 338 429 b 385 494 358 461 370 478 b 443 542 401 510 420 526 l 497 583 b 546 624 514 596 530 610 b 588 672 562 639 575 655 b 617 729 600 690 609 709 b 628 797 624 750 628 772 b 613 878 628 828 623 855 b 573 935 603 901 590 920 b 513 968 556 950 536 961 b 439 979 489 975 465 979 b 350 965 406 979 377 974 b 278 924 323 955 299 941 b 224 863 258 906 239 886 b 186 786 208 839 195 814 l 158 794 b 266 952 182 862 218 915 b 440 1008 314 990 372 1008 b 523 996 469 1008 497 1004 b 593 957 549 988 573 975 b 641 892 613 939 629 918 b 658 799 653 866 658 835 b 644 716 658 768 653 741 b 606 649 634 691 622 669 b 553 593 591 628 573 610 b 494 547 534 576 514 561 b 426 494 467 528 444 510 b 382 447 408 479 393 463 b 356 398 371 431 362 415 b 342 339 350 381 345 361 l 331 278 m 282 -8 b 261 -1 274 -8 267 -6 b 253 24 256 4 253 13 b 263 51 253 34 256 43 b 288 63 269 59 277 63 b 308 55 296 63 303 60 b 317 32 314 50 317 42 b 306 3 317 21 313 11 b 282 -8 299 -4 291 -8 "},"@":{"ha":1111,"x_min":0,"x_max":0,"o":"m 775 222 b 731 230 759 222 744 225 b 695 254 717 235 705 243 b 676 295 685 265 679 279 b 682 353 674 311 675 331 l 679 353 b 649 313 672 341 662 327 b 603 270 637 298 622 284 b 543 236 585 257 565 245 b 471 222 521 227 497 222 b 407 234 446 222 425 226 b 365 265 389 242 375 252 b 342 310 354 278 346 293 b 335 364 337 328 335 345 b 360 490 335 401 343 443 b 432 622 378 538 401 581 b 540 726 463 663 499 697 b 676 768 582 754 627 768 b 768 734 715 768 746 757 b 801 642 790 711 801 681 l 807 642 l 853 743 l 882 743 l 731 414 b 711 364 724 401 718 384 b 701 310 705 344 701 325 b 725 263 701 288 709 272 b 781 250 741 254 759 250 b 890 277 818 250 854 259 b 986 356 926 295 958 321 b 1053 480 1014 390 1036 431 b 1079 644 1071 528 1079 583 b 1049 780 1079 694 1069 739 b 967 887 1029 821 1002 857 b 841 958 931 917 890 941 b 683 983 792 975 740 983 b 456 935 601 983 525 967 b 278 806 387 902 328 859 b 161 623 228 752 189 691 b 119 413 133 555 119 485 b 151 245 119 351 130 296 b 241 115 173 195 203 151 b 378 30 279 78 325 50 b 553 0 431 10 489 0 b 781 48 637 0 713 16 b 956 171 848 80 906 121 l 976 153 b 791 23 923 100 861 57 b 553 -28 721 -11 642 -28 b 365 4 484 -28 422 -17 b 218 94 308 25 259 55 b 123 232 177 132 146 178 b 89 410 100 286 89 345 b 135 644 89 493 104 571 b 263 835 166 716 209 780 b 452 964 317 889 380 932 b 683 1011 524 995 601 1011 b 853 984 744 1011 801 1002 b 988 908 906 966 951 941 b 1076 792 1026 876 1055 837 b 1108 644 1098 747 1108 698 b 1081 472 1108 581 1099 524 b 1008 339 1063 420 1039 376 b 902 253 978 302 942 273 b 775 222 862 232 819 222 m 779 625 b 775 668 779 640 778 654 b 759 705 772 682 767 694 b 727 731 751 716 741 724 b 674 740 714 737 696 740 b 588 721 644 740 616 734 b 513 670 561 708 536 691 b 451 599 491 649 470 625 b 405 517 433 572 417 544 b 376 435 392 489 383 462 b 365 364 369 408 365 384 b 391 282 365 331 374 303 b 476 250 408 261 437 250 b 558 272 504 250 531 257 b 631 327 584 286 608 304 b 692 403 653 350 673 375 b 739 488 710 432 726 460 b 769 566 752 515 762 541 b 779 625 776 591 779 610 "},"A":{"ha":879,"x_min":0,"x_max":0,"o":"m 721 282 l 165 282 l -14 0 l -51 0 l 581 983 l 626 983 l 801 0 l 771 0 m 182 308 l 717 308 l 600 963 "},"B":{"ha":840,"x_min":0,"x_max":0,"o":"m 265 983 l 517 983 b 617 971 551 983 584 979 b 705 933 650 963 679 950 b 766 867 730 916 751 894 b 789 772 781 841 789 809 b 728 604 789 703 769 647 b 546 519 687 562 626 533 l 546 517 b 615 497 568 514 591 507 b 681 453 639 486 661 471 b 731 385 701 434 718 412 b 750 293 744 359 750 328 b 721 160 750 241 740 197 b 642 69 701 124 675 94 b 525 17 608 45 569 28 b 383 0 481 6 433 0 l 92 0 m 760 769 b 740 852 760 801 753 828 b 685 910 726 876 708 895 b 605 945 662 926 635 937 b 510 957 575 953 543 957 l 290 957 l 215 531 l 442 531 b 568 546 487 531 529 536 b 669 591 607 556 641 571 b 736 665 698 611 720 636 b 760 769 752 695 760 730 m 719 288 b 697 384 719 325 712 357 b 640 451 682 411 663 434 b 560 491 616 469 590 482 b 474 504 531 500 502 504 l 211 504 l 126 26 l 374 26 b 628 94 483 26 568 49 b 719 288 689 140 719 204 "},"C":{"ha":1006,"x_min":0,"x_max":0,"o":"m 896 100 b 739 3 848 56 795 24 b 563 -28 682 -17 624 -28 b 369 4 488 -28 424 -17 b 232 94 314 25 268 55 b 151 230 196 132 169 178 b 125 400 134 282 125 339 b 168 630 125 480 139 556 b 288 825 197 703 237 769 b 471 960 340 881 400 927 b 701 1011 541 994 618 1011 b 792 1003 732 1011 762 1009 b 878 980 822 998 851 991 b 952 940 905 969 929 956 b 1011 885 975 925 994 906 l 989 863 b 933 916 973 883 954 901 b 862 954 911 931 887 944 b 782 976 836 964 810 972 b 700 983 754 981 727 983 b 483 935 622 983 550 967 b 310 806 417 902 359 859 b 197 621 262 752 224 690 b 156 406 169 551 156 480 b 179 247 156 349 163 296 b 253 119 195 198 219 155 b 379 32 286 82 328 53 b 561 0 430 11 491 0 b 730 31 619 0 675 10 b 882 124 785 51 836 82 l 896 100 "},"D":{"ha":1076,"x_min":0,"x_max":0,"o":"m 265 983 l 524 983 b 710 957 590 983 652 975 b 859 878 767 939 817 913 b 958 751 901 844 934 801 b 994 578 982 700 994 643 b 943 316 994 476 977 389 b 805 137 909 243 863 184 b 602 33 747 90 679 56 b 357 0 525 11 443 0 l 92 0 m 129 28 l 356 28 b 590 58 438 28 516 38 b 783 155 663 79 728 111 b 915 324 839 199 883 255 b 964 574 948 393 964 476 b 930 738 964 636 953 691 b 837 858 907 786 876 826 b 696 931 797 890 750 914 b 518 956 641 947 582 956 l 292 956 "},"E":{"ha":800,"x_min":0,"x_max":0,"o":"m 265 983 l 811 983 l 806 956 l 289 956 l 213 524 l 710 524 l 706 496 l 208 496 l 126 28 l 685 28 l 679 0 l 92 0 "},"F":{"ha":750,"x_min":0,"x_max":0,"o":"m 214 524 l 686 524 l 682 496 l 210 496 l 122 0 l 92 0 l 265 983 l 794 983 l 789 956 l 290 956 "},"G":{"ha":1069,"x_min":0,"x_max":0,"o":"m 558 -28 b 365 4 484 -28 420 -17 b 230 93 311 25 266 55 b 151 228 194 131 168 176 b 125 400 134 281 125 338 b 168 630 125 480 139 556 b 288 825 197 703 237 769 b 471 960 340 881 400 927 b 701 1011 541 994 618 1011 b 792 1003 732 1011 762 1009 b 878 980 822 998 851 991 b 952 940 905 969 929 956 b 1011 885 975 925 994 906 l 989 863 b 933 916 973 883 954 901 b 862 954 911 931 887 944 b 782 976 836 964 810 972 b 700 983 754 981 727 983 b 483 935 622 983 550 967 b 310 806 417 902 359 859 b 197 621 262 752 224 690 b 156 406 169 551 156 480 b 179 247 156 349 163 296 b 251 119 195 198 219 155 b 376 32 284 82 325 53 b 558 0 427 11 488 0 b 731 21 619 0 677 7 b 867 74 785 35 831 52 l 935 460 l 679 460 l 685 486 l 969 486 l 893 57 b 747 -3 855 33 806 13 b 558 -28 688 -20 625 -28 "},"H":{"ha":1000,"x_min":0,"x_max":0,"o":"m 854 494 l 210 494 l 122 0 l 92 0 l 265 983 l 296 983 l 214 522 l 858 522 l 940 983 l 971 983 l 797 0 l 767 0 "},"I":{"ha":325,"x_min":0,"x_max":0,"o":"m 265 983 l 296 983 l 122 0 l 92 0 "},"J":{"ha":667,"x_min":0,"x_max":0,"o":"m 517 268 b 482 146 508 223 497 182 b 424 53 467 110 448 79 b 340 -5 401 28 372 9 b 225 -25 307 -18 269 -25 b 81 20 167 -25 119 -10 b 8 129 44 50 19 87 l 36 142 b 106 41 48 100 71 66 b 228 3 140 16 181 3 b 331 22 268 3 302 9 b 406 77 360 35 385 53 b 457 163 427 101 444 129 b 488 272 470 196 480 232 l 613 983 l 643 983 l 517 268 l 517 268 "},"K":{"ha":735,"x_min":0,"x_max":0,"o":"m 765 983 l 810 983 l 256 529 l 683 0 l 644 0 l 217 529 l 215 529 l 122 0 l 92 0 l 265 983 l 296 983 l 217 535 l 218 535 "},"L":{"ha":692,"x_min":0,"x_max":0,"o":"m 265 983 l 296 983 l 128 28 l 617 28 l 611 0 l 92 0 "},"M":{"ha":1251,"x_min":0,"x_max":0,"o":"m 1185 949 l 1179 949 l 582 0 l 557 0 l 293 949 l 289 949 l 122 0 l 92 0 l 265 983 l 313 983 l 578 44 l 1167 983 l 1222 983 l 1049 0 l 1018 0 "},"N":{"ha":1040,"x_min":0,"x_max":0,"o":"m 293 949 l 289 949 l 122 0 l 92 0 l 265 983 l 308 983 l 810 36 l 814 36 l 981 983 l 1011 983 l 838 0 l 793 0 "},"O":{"ha":1211,"x_min":0,"x_max":0,"o":"m 1099 571 b 1074 731 1099 627 1091 681 b 999 863 1058 782 1033 825 b 871 951 966 900 923 929 b 688 983 819 972 758 983 b 469 935 608 983 535 967 b 301 808 404 903 348 861 b 194 624 255 754 219 693 b 156 410 168 555 156 484 b 181 249 156 352 164 299 b 256 119 197 200 222 156 b 385 32 290 82 333 53 b 568 0 437 11 498 0 b 785 47 648 0 720 16 b 953 174 851 79 906 121 b 1060 356 999 226 1035 287 b 1099 571 1086 425 1099 497 m 125 410 b 165 637 125 488 138 564 b 278 829 191 709 229 774 b 456 962 327 885 386 929 b 688 1011 525 995 602 1011 b 882 978 762 1011 826 1000 b 1020 885 938 956 984 925 b 1102 744 1057 845 1084 798 b 1129 571 1120 691 1129 633 b 1090 344 1129 492 1116 417 b 977 153 1063 272 1026 209 b 800 22 928 98 869 54 b 568 -28 731 -11 653 -28 b 374 6 494 -28 429 -17 b 235 97 318 28 272 58 b 152 235 198 136 170 182 b 125 410 134 289 125 347 "},"P":{"ha":778,"x_min":0,"x_max":0,"o":"m 122 0 l 92 0 l 265 983 l 514 983 b 610 972 546 983 578 980 b 694 936 641 965 669 953 b 756 869 719 919 740 897 b 779 765 771 842 779 807 b 760 658 779 728 773 693 b 699 568 747 624 727 594 b 594 506 672 542 637 522 b 443 483 552 491 501 483 l 207 483 m 749 767 b 728 855 749 801 742 830 b 676 914 715 879 697 899 b 602 947 654 929 629 940 b 521 957 575 953 548 957 l 290 957 l 213 510 l 450 510 b 672 581 547 510 621 533 b 749 767 723 628 749 690 "},"Q":{"ha":1226,"x_min":0,"x_max":0,"o":"m 1114 28 l 1108 0 l 561 0 b 368 31 487 0 423 10 b 232 116 313 51 268 79 b 151 247 196 153 169 196 b 125 414 134 297 125 353 b 165 638 125 492 138 566 b 278 828 191 710 229 773 b 456 961 327 884 386 928 b 688 1011 525 994 602 1011 b 882 977 762 1011 826 1000 b 1020 884 938 954 984 923 b 1102 746 1057 845 1084 799 b 1129 575 1120 693 1129 636 b 1103 398 1129 515 1120 456 b 1026 238 1085 340 1060 287 b 903 110 993 190 952 147 b 738 31 855 74 800 47 l 738 28 m 1099 574 b 1074 731 1099 629 1091 682 b 999 862 1058 781 1033 824 b 871 951 966 899 923 929 b 688 983 819 972 758 983 b 469 935 608 983 535 967 b 301 808 404 903 348 861 b 194 626 255 754 219 694 b 156 415 168 558 156 488 b 179 261 156 360 163 308 b 253 138 195 214 219 173 b 380 57 286 103 328 76 b 563 28 431 38 492 28 b 783 73 643 28 716 43 b 952 194 849 103 905 143 b 1060 368 999 244 1035 302 b 1099 574 1086 434 1099 502 "},"R":{"ha":825,"x_min":0,"x_max":0,"o":"m 440 496 l 210 496 l 122 0 l 92 0 l 265 983 l 494 983 b 594 973 528 983 561 980 b 685 939 628 966 658 955 b 751 875 713 923 735 902 b 776 775 768 848 776 815 b 746 635 776 718 766 671 b 669 551 725 600 700 572 b 570 510 639 531 606 517 b 471 497 534 502 501 498 l 699 0 l 665 0 m 746 771 b 724 859 746 806 738 835 b 665 917 709 883 689 902 b 581 948 641 931 613 942 b 483 957 549 954 517 957 l 290 957 l 214 522 l 436 522 b 564 536 483 522 526 527 b 662 581 602 545 634 560 b 724 658 689 601 710 627 b 746 771 739 690 746 727 "},"S":{"ha":792,"x_min":0,"x_max":0,"o":"m 743 874 b 649 953 725 906 694 932 b 497 983 603 973 553 983 b 397 969 466 983 432 979 b 299 925 361 960 328 945 b 224 848 269 905 244 879 b 194 735 204 817 194 779 b 210 653 194 702 200 675 b 255 598 221 632 236 613 b 323 558 274 583 297 569 b 411 525 349 547 379 536 b 517 482 449 511 484 497 b 600 430 549 467 577 450 b 654 360 623 410 641 387 b 674 264 667 333 674 301 b 649 143 674 219 665 179 b 578 51 632 107 608 76 b 468 -7 547 26 511 7 b 326 -28 425 -21 378 -28 b 239 -18 297 -28 268 -25 b 159 10 210 -12 184 -2 b 93 52 134 22 113 36 b 46 104 74 68 58 86 l 69 122 b 108 76 79 106 92 91 b 167 38 125 62 145 49 b 244 10 190 26 216 17 b 335 0 272 3 302 0 b 458 17 379 0 420 6 b 556 69 495 29 528 46 b 620 151 583 91 605 119 b 643 263 635 184 643 221 b 623 353 643 298 636 328 b 568 417 609 378 591 399 b 487 464 545 435 518 451 b 386 501 456 477 422 489 b 300 535 356 512 327 523 b 229 580 273 548 250 563 b 181 643 209 597 193 618 b 164 733 170 668 164 698 b 194 856 164 781 174 822 b 273 943 215 891 241 920 b 381 994 305 966 341 983 b 500 1011 422 1006 461 1011 b 667 976 567 1011 622 1000 b 767 893 712 953 745 925 l 743 874 "},"T":{"ha":715,"x_min":0,"x_max":0,"o":"m 317 0 l 286 0 l 454 956 l 114 956 l 119 983 l 819 983 l 814 956 l 485 956 "},"U":{"ha":994,"x_min":0,"x_max":0,"o":"m 874 372 b 832 216 863 317 850 265 b 759 89 814 167 790 125 b 641 3 728 53 689 24 b 465 -28 593 -17 535 -28 b 217 52 355 -28 272 -1 b 133 274 161 105 133 179 b 137 328 133 290 134 308 b 146 385 139 347 142 366 l 251 983 l 282 983 l 176 383 b 167 324 173 362 170 342 b 164 274 165 305 164 288 b 181 165 164 235 170 199 b 235 78 193 132 211 103 b 329 21 260 54 291 35 b 465 0 367 7 413 0 b 644 36 538 0 598 12 b 753 128 690 60 726 91 b 814 251 781 166 801 207 b 844 378 827 295 837 337 l 951 983 l 982 983 l 874 372 l 874 372 "},"V":{"ha":817,"x_min":0,"x_max":0,"o":"m 303 0 l 142 983 l 172 983 l 329 28 l 332 28 l 897 983 l 933 983 l 350 0 "},"W":{"ha":1310,"x_min":0,"x_max":0,"o":"m 857 0 l 778 951 l 775 951 l 290 0 l 242 0 l 160 983 l 192 983 l 269 29 l 274 29 l 758 983 l 806 983 l 885 29 l 889 29 l 1378 983 l 1413 983 l 906 0 "},"X":{"ha":792,"x_min":0,"x_max":0,"o":"m 429 492 l 14 0 l -25 0 l 413 515 l 182 983 l 215 983 l 432 539 l 807 983 l 844 983 l 449 515 l 706 0 l 671 0 "},"Y":{"ha":713,"x_min":0,"x_max":0,"o":"m 304 0 l 274 0 l 350 431 l 125 983 l 158 983 l 369 461 l 793 983 l 831 983 l 381 431 "},"Z":{"ha":825,"x_min":0,"x_max":0,"o":"m 25 38 l 833 956 l 206 956 l 211 983 l 868 983 l 861 943 l 54 28 l 717 28 l 711 0 l 19 0 "},"[":{"ha":417,"x_min":0,"x_max":0,"o":"m 235 1017 l 429 1017 l 425 990 l 261 990 l 53 -190 l 217 -190 l 211 -217 l 17 -217 "},"\\":{"ha":514,"x_min":0,"x_max":0,"o":"m 485 -11 l 458 -21 l 32 1003 l 58 1013 "},"]":{"ha":417,"x_min":0,"x_max":0,"o":"m 186 -190 l 394 990 l 231 990 l 235 1017 l 429 1017 l 211 -217 l 17 -217 l 22 -190 "},"^":{"ha":925,"x_min":0,"x_max":0,"o":"m 479 983 l 790 336 l 763 336 l 463 967 l 163 336 l 135 336 l 446 983 "},"_":{"ha":694,"x_min":0,"x_max":0,"o":"m 0 -131 l 694 -131 l 694 -158 l 0 -158 "},"`":{"ha":333,"x_min":0,"x_max":0,"o":"m 310 783 l 282 783 l 124 983 l 163 983 "},"a":{"ha":711,"x_min":0,"x_max":0,"o":"m 550 144 b 540 67 545 120 542 95 b 536 0 537 40 536 18 l 507 0 b 513 72 507 19 509 42 b 525 153 516 101 520 128 l 521 153 b 419 26 497 98 463 56 b 267 -19 375 -4 324 -19 b 199 -11 245 -19 223 -17 b 133 16 176 -6 154 3 b 83 67 113 28 96 45 b 63 146 69 88 63 114 b 102 263 63 194 76 233 b 210 333 128 293 164 317 b 368 367 255 350 308 361 b 561 375 428 372 493 375 b 571 428 566 394 569 411 b 574 464 573 444 574 456 b 525 591 574 521 557 564 b 393 632 493 618 449 632 b 287 611 355 632 320 625 b 193 556 254 597 223 579 l 176 579 b 283 638 210 605 245 625 b 394 658 321 652 358 658 b 549 609 461 658 513 642 b 604 468 586 576 604 529 b 601 432 604 458 603 446 b 596 397 600 418 598 406 l 550 144 m 518 349 b 349 340 457 349 400 346 b 214 308 297 334 252 323 b 125 247 176 292 146 272 b 93 150 104 221 93 189 b 110 81 93 122 99 99 b 153 37 122 62 136 47 b 210 14 171 26 190 19 b 271 7 231 9 251 7 b 381 33 313 7 349 16 b 463 101 413 51 441 73 b 517 191 486 128 504 158 b 546 288 531 224 540 256 l 557 349 "},"b":{"ha":865,"x_min":0,"x_max":0,"o":"m 203 475 b 250 547 215 501 231 525 b 316 606 269 569 291 589 b 397 644 341 622 368 635 b 492 658 427 654 458 658 b 617 637 540 658 582 651 b 707 577 653 622 683 603 b 761 487 731 552 749 522 b 779 374 773 452 779 414 b 753 225 779 322 771 272 b 681 100 736 178 712 136 b 566 13 649 64 611 35 b 415 -19 521 -9 471 -19 b 242 35 347 -19 289 -1 b 151 178 196 72 165 119 l 147 178 l 117 0 l 86 0 l 271 1050 l 301 1050 l 199 475 l 203 475 m 489 632 b 360 601 443 632 400 622 b 258 517 321 580 287 552 b 190 399 230 483 207 443 b 165 261 174 354 165 308 b 183 162 165 226 171 193 b 233 81 194 131 211 104 b 312 27 254 59 281 41 b 415 7 343 14 377 7 b 552 38 465 7 511 17 b 658 119 593 58 628 85 b 725 235 687 153 709 191 b 749 372 741 279 749 325 b 733 474 749 408 743 442 b 684 556 722 505 706 533 b 603 612 662 580 635 598 b 489 632 570 625 532 632 "},"c":{"ha":650,"x_min":0,"x_max":0,"o":"m 590 64 b 487 -2 561 35 526 13 b 363 -25 447 -17 406 -25 b 236 -3 313 -25 271 -18 b 149 56 201 11 172 31 b 97 146 125 82 108 112 b 81 256 86 180 81 217 b 108 407 81 308 90 359 b 186 535 127 455 153 498 b 305 625 219 573 259 603 b 456 658 351 647 401 658 b 574 638 496 658 536 651 b 664 575 613 624 643 603 l 644 554 b 563 613 624 581 597 601 b 458 632 528 626 494 632 b 319 601 408 632 362 622 b 209 517 277 580 240 552 b 137 399 178 483 154 443 b 111 260 120 354 111 308 b 126 159 111 224 116 190 b 173 78 137 128 152 101 b 251 23 194 55 220 36 b 364 3 283 9 320 3 b 478 24 403 3 441 10 b 575 85 516 39 548 59 l 590 64 l 590 64 "},"d":{"ha":857,"x_min":0,"x_max":0,"o":"m 368 -19 b 242 2 320 -19 278 -12 b 153 62 207 16 177 36 b 99 152 129 87 111 117 b 81 265 87 187 81 225 b 106 414 81 317 89 367 b 179 539 123 461 148 503 b 294 626 211 575 249 604 b 444 658 339 647 389 658 b 617 603 513 658 571 640 b 708 461 664 567 694 519 l 713 461 l 814 1050 l 844 1050 l 660 0 l 629 0 l 661 164 l 657 164 b 609 92 644 138 628 114 b 544 33 590 69 568 50 b 463 -6 519 17 492 4 b 368 -19 433 -15 401 -19 m 371 7 b 499 38 416 7 459 17 b 601 122 538 59 573 87 b 669 240 630 156 653 196 b 694 378 686 285 694 331 b 677 477 694 413 689 446 b 627 558 666 508 649 535 b 548 612 605 580 579 598 b 444 632 517 625 482 632 b 308 601 394 632 349 622 b 202 520 266 581 231 554 b 135 403 173 486 150 447 b 111 267 119 359 111 314 b 127 165 111 231 116 197 b 175 83 138 134 154 106 b 256 27 196 59 223 41 b 371 7 289 14 327 7 "},"e":{"ha":768,"x_min":0,"x_max":0,"o":"m 115 326 b 111 278 113 308 111 292 b 181 78 111 192 134 125 b 375 7 227 31 292 7 b 515 40 428 7 474 18 b 619 126 555 63 590 91 l 636 107 b 529 18 609 73 574 43 b 375 -19 485 -7 433 -19 b 249 2 328 -19 286 -12 b 157 62 213 16 182 36 b 100 153 132 87 113 118 b 81 271 87 189 81 228 b 107 416 81 321 89 369 b 182 540 125 463 150 504 b 297 626 214 576 253 605 b 446 658 342 648 391 658 b 558 638 489 658 527 652 b 637 584 590 625 616 607 b 683 504 658 561 673 535 b 697 407 692 474 697 441 b 695 371 697 398 697 386 b 688 326 694 356 691 341 l 115 326 m 664 353 b 668 410 667 373 668 392 b 609 571 668 476 648 530 b 446 632 570 612 515 632 b 315 605 397 632 353 623 b 217 537 277 587 245 564 b 152 447 190 509 168 479 b 119 353 136 414 125 382 l 664 353 "},"f":{"ha":392,"x_min":0,"x_max":0,"o":"m 508 1035 b 453 1042 490 1039 471 1042 b 388 1026 428 1042 406 1037 b 342 987 370 1016 355 1003 b 313 932 330 971 320 952 b 296 869 305 912 300 891 l 256 639 l 429 639 l 425 613 l 251 613 l 143 0 l 113 0 l 221 613 l 86 613 l 90 639 l 224 639 l 264 868 b 294 965 270 907 280 939 b 340 1026 307 990 322 1010 b 394 1058 357 1041 375 1052 b 451 1067 413 1064 432 1067 b 514 1058 476 1067 497 1064 l 508 1035 "},"g":{"ha":857,"x_min":0,"x_max":0,"o":"m 658 164 b 610 92 645 138 629 114 b 545 33 591 69 570 50 b 464 -6 521 17 494 4 b 369 -19 434 -15 403 -19 b 244 2 321 -19 279 -12 b 154 62 208 16 178 36 b 100 152 130 87 112 117 b 82 265 88 187 82 225 b 108 414 82 317 91 367 b 181 539 125 461 149 503 b 295 626 212 575 250 604 b 446 658 340 647 390 658 b 619 603 514 658 572 640 b 710 461 666 567 696 519 l 714 461 l 744 639 l 774 639 l 668 35 b 631 -110 659 -16 646 -65 b 565 -232 615 -156 593 -197 b 461 -316 538 -267 503 -295 b 308 -347 419 -337 369 -347 b 151 -316 248 -347 196 -337 b 39 -228 106 -295 69 -266 l 60 -207 b 170 -294 90 -247 127 -276 b 308 -321 213 -312 259 -321 b 451 -291 365 -321 412 -311 b 546 -211 489 -271 521 -244 b 605 -97 571 -178 591 -140 b 639 38 619 -53 631 -9 l 663 164 l 658 164 m 372 7 b 500 38 418 7 460 17 b 603 122 540 59 574 87 b 671 240 631 156 654 196 b 696 378 688 285 696 331 b 678 477 696 413 690 446 b 628 558 667 508 650 535 b 549 612 607 580 580 598 b 446 632 518 625 484 632 b 309 601 396 632 350 622 b 203 520 268 581 233 554 b 136 403 174 486 152 447 b 113 267 120 359 113 314 b 128 165 113 231 118 197 b 176 83 139 134 155 106 b 258 27 198 59 225 41 b 372 7 291 14 329 7 "},"h":{"ha":786,"x_min":0,"x_max":0,"o":"m 203 471 b 313 611 231 533 267 580 b 465 658 359 643 410 658 b 555 641 500 658 529 653 b 618 595 580 629 601 614 b 656 529 635 576 647 554 b 668 451 664 504 668 478 b 660 379 668 431 665 407 l 593 0 l 563 0 l 631 381 b 635 415 632 391 634 402 b 638 450 637 428 638 440 b 628 516 638 472 634 494 b 597 574 621 538 611 557 b 543 616 583 591 565 605 b 461 632 521 627 494 632 b 362 610 426 632 393 625 b 278 549 331 596 303 575 b 213 451 253 522 231 489 b 174 319 195 412 182 369 l 117 0 l 86 0 l 271 1050 l 301 1050 l 200 471 l 203 471 "},"i":{"ha":314,"x_min":0,"x_max":0,"o":"m 199 639 l 229 639 l 117 0 l 86 0 m 251 879 b 231 887 243 879 236 882 b 222 911 225 892 222 900 b 232 938 222 921 225 930 b 257 950 238 946 247 950 b 278 942 265 950 272 947 b 286 919 283 937 286 930 b 276 891 286 908 283 899 b 251 879 269 883 261 879 "},"j":{"ha":314,"x_min":0,"x_max":0,"o":"m 93 -135 b 74 -210 88 -161 82 -186 b 42 -274 66 -234 56 -255 b -11 -318 28 -292 10 -307 b -90 -335 -32 -329 -59 -335 b -111 -334 -97 -335 -104 -334 b -131 -331 -119 -334 -125 -332 l -128 -304 b -93 -308 -116 -307 -104 -308 b -21 -293 -63 -308 -39 -303 b 24 -253 -2 -283 13 -270 b 49 -199 35 -237 43 -219 b 63 -137 54 -178 59 -158 l 199 639 l 229 639 l 93 -135 m 251 879 b 231 887 243 879 236 882 b 222 911 225 892 222 900 b 232 938 222 921 225 930 b 257 950 238 946 247 950 b 278 942 265 950 272 947 b 286 919 283 937 286 930 b 276 891 286 908 283 899 b 251 879 269 883 261 879 "},"k":{"ha":606,"x_min":0,"x_max":0,"o":"m 558 639 l 606 639 l 217 340 l 531 0 l 488 0 l 179 338 l 176 338 l 117 0 l 86 0 l 271 1050 l 301 1050 l 178 346 l 181 346 "},"l":{"ha":314,"x_min":0,"x_max":0,"o":"m 271 1050 l 301 1050 l 117 0 l 86 0 "},"m":{"ha":1233,"x_min":0,"x_max":0,"o":"m 913 658 b 1002 641 947 658 977 653 b 1065 595 1028 629 1049 614 b 1103 529 1082 576 1094 554 b 1115 451 1111 504 1115 478 b 1107 379 1115 431 1113 407 l 1040 0 l 1010 0 l 1078 381 b 1083 415 1080 391 1081 402 b 1085 450 1084 428 1085 440 b 1075 516 1085 472 1081 494 b 1044 574 1069 538 1058 557 b 990 616 1031 591 1013 605 b 908 632 968 627 941 632 b 813 610 875 632 843 625 b 732 549 783 596 756 575 b 670 451 708 522 687 489 b 632 319 653 412 640 369 l 575 0 l 544 0 l 613 383 b 617 417 614 394 616 405 b 618 450 618 429 618 440 b 609 516 618 472 615 494 b 580 574 603 538 593 557 b 527 616 566 591 549 605 b 446 632 505 627 478 632 b 271 549 378 632 320 604 b 174 319 222 494 189 418 l 117 0 l 86 0 l 171 478 b 177 515 173 488 175 500 b 183 560 179 530 181 545 b 189 604 185 576 187 590 b 192 639 191 618 192 630 l 222 639 b 218 604 221 630 220 618 b 213 559 216 590 214 575 b 206 512 211 543 208 527 b 199 471 203 497 200 483 l 201 471 b 306 611 228 533 263 580 b 450 658 349 643 397 658 b 537 642 483 658 512 653 b 599 599 561 632 582 617 b 636 537 615 581 628 560 b 649 463 644 513 649 488 l 651 463 b 763 609 678 527 715 576 b 913 658 810 642 860 658 "},"n":{"ha":786,"x_min":0,"x_max":0,"o":"m 465 658 b 555 641 500 658 529 653 b 618 595 580 629 601 614 b 656 529 635 576 647 554 b 668 451 664 504 668 478 b 660 379 668 431 665 407 l 593 0 l 563 0 l 631 381 b 635 415 632 391 634 402 b 638 450 637 428 638 440 b 628 516 638 472 634 494 b 597 574 621 538 611 557 b 543 616 583 591 565 605 b 461 632 521 627 494 632 b 362 610 426 632 393 625 b 278 549 331 596 303 575 b 213 451 253 522 231 489 b 174 319 195 412 182 369 l 117 0 l 86 0 l 171 478 b 177 515 173 488 175 500 b 183 560 179 530 181 545 b 189 604 185 576 187 590 b 192 639 191 618 192 630 l 222 639 b 218 604 221 630 220 618 b 213 559 216 590 214 575 b 206 512 211 543 208 527 b 199 471 203 497 200 483 l 201 471 b 313 611 230 533 267 580 b 465 658 359 643 410 658 "},"o":{"ha":831,"x_min":0,"x_max":0,"o":"m 714 371 b 698 471 714 406 709 439 b 649 554 687 502 671 530 b 565 611 626 578 599 597 b 447 632 532 625 493 632 b 308 601 395 632 349 622 b 202 521 266 581 231 554 b 135 405 173 488 150 449 b 111 268 119 361 111 315 b 127 167 111 233 116 199 b 176 84 138 135 154 108 b 258 28 197 60 225 42 b 376 7 292 14 331 7 b 515 37 427 7 474 17 b 622 117 557 57 593 84 b 690 234 652 151 675 190 b 714 371 706 278 714 324 m 81 267 b 106 414 81 318 89 367 b 180 539 123 461 148 503 b 297 626 212 575 251 604 b 450 658 342 647 394 658 b 578 636 499 658 542 651 b 670 575 615 621 646 601 b 726 484 695 549 713 519 b 744 372 738 449 744 412 b 719 224 744 320 736 271 b 645 99 702 176 677 135 b 529 13 613 63 575 34 b 376 -19 484 -9 433 -19 b 247 3 327 -19 284 -12 b 155 63 210 18 179 38 b 99 153 130 89 112 119 b 81 267 87 188 81 226 "},"p":{"ha":865,"x_min":0,"x_max":0,"o":"m 28 -333 l 199 639 l 229 639 l 199 475 l 203 475 b 250 547 215 501 231 525 b 316 606 269 569 291 589 b 397 644 341 622 368 635 b 492 658 427 654 458 658 b 617 637 540 658 582 651 b 707 577 653 622 683 603 b 761 487 731 552 749 522 b 779 374 773 452 779 414 b 753 225 779 322 771 272 b 681 100 736 178 712 136 b 566 13 649 64 611 35 b 415 -19 521 -9 471 -19 b 242 35 347 -19 289 -1 b 151 178 196 72 165 119 l 147 178 l 58 -333 m 489 632 b 360 601 443 632 400 622 b 258 517 321 580 287 552 b 190 399 230 483 207 443 b 165 261 174 354 165 308 b 183 162 165 226 171 193 b 233 81 194 131 211 104 b 312 27 254 59 281 41 b 415 7 343 14 377 7 b 552 38 465 7 511 17 b 658 119 593 58 628 85 b 725 235 687 153 709 191 b 749 372 741 279 749 325 b 733 474 749 408 743 442 b 684 556 722 505 706 533 b 603 612 662 580 635 598 b 489 632 570 625 532 632 "},"q":{"ha":857,"x_min":0,"x_max":0,"o":"m 774 639 l 603 -333 l 572 -333 l 661 164 l 657 164 b 609 92 644 138 628 114 b 544 33 590 69 568 50 b 463 -6 519 17 492 4 b 368 -19 433 -15 401 -19 b 242 2 320 -19 278 -12 b 153 62 207 16 177 36 b 99 152 129 87 111 117 b 81 265 87 187 81 225 b 106 414 81 317 89 367 b 179 539 123 461 148 503 b 294 626 211 575 249 604 b 444 658 339 647 389 658 b 617 603 513 658 571 640 b 708 461 664 567 694 519 l 713 461 l 743 639 m 371 7 b 499 38 416 7 459 17 b 601 122 538 59 573 87 b 669 240 630 156 653 196 b 694 378 686 285 694 331 b 677 477 694 413 689 446 b 627 558 666 508 649 535 b 548 612 605 580 579 598 b 444 632 517 625 482 632 b 308 601 394 632 349 622 b 202 520 266 581 231 554 b 135 403 173 486 150 447 b 111 267 119 359 111 314 b 127 165 111 231 116 197 b 175 83 138 134 154 106 b 256 27 196 59 223 41 b 371 7 289 14 327 7 "},"r":{"ha":429,"x_min":0,"x_max":0,"o":"m 201 471 b 311 615 231 538 268 585 b 447 658 355 644 400 658 l 460 658 b 471 657 463 658 467 658 l 467 631 b 456 632 463 631 459 632 l 449 632 b 341 605 408 632 372 623 b 260 534 310 587 283 563 b 206 437 238 505 219 472 b 175 331 192 401 181 366 l 117 0 l 86 0 l 171 478 b 177 515 173 488 175 500 b 183 560 179 530 181 545 b 189 604 185 576 187 590 b 192 639 191 618 192 630 l 222 639 b 218 604 221 630 220 618 b 213 559 216 590 214 575 b 206 512 211 543 208 527 b 199 471 203 497 200 483 l 201 471 l 201 471 "},"s":{"ha":556,"x_min":0,"x_max":0,"o":"m 50 89 b 123 33 66 66 90 47 b 229 11 156 18 191 11 b 308 24 258 11 284 16 b 368 60 331 33 351 45 b 406 112 385 75 397 92 b 419 175 415 132 419 153 b 412 222 419 193 417 208 b 385 260 407 236 398 249 b 335 292 373 272 356 283 b 258 322 315 302 289 312 b 142 382 204 340 165 360 b 108 469 120 404 108 433 b 128 552 108 501 115 528 b 181 611 142 576 159 595 b 252 647 202 627 226 639 b 332 658 278 654 305 658 b 442 636 375 658 412 651 b 508 582 472 621 494 603 l 483 564 b 422 614 472 585 452 602 b 331 632 393 626 362 632 b 268 624 311 632 290 629 b 206 597 246 618 225 609 b 158 548 187 584 171 568 b 139 474 145 528 139 503 b 174 394 139 438 150 411 b 276 347 197 378 231 362 b 413 275 343 326 389 302 b 450 176 438 248 450 215 b 434 100 450 149 445 123 b 388 39 423 77 408 56 b 317 -2 368 21 344 8 b 224 -17 289 -12 258 -17 b 107 8 182 -17 143 -9 b 28 69 71 24 44 44 l 50 89 "},"t":{"ha":406,"x_min":0,"x_max":0,"o":"m 322 -1 b 285 -12 310 -6 298 -10 b 246 -17 273 -15 260 -17 b 156 12 206 -17 176 -7 b 125 90 135 31 125 57 b 127 121 125 98 126 108 b 132 151 128 134 130 144 l 214 613 l 67 613 l 71 639 l 217 639 l 250 826 l 281 826 l 247 639 l 422 639 l 418 613 l 243 613 l 161 147 b 157 119 159 140 158 130 b 156 93 156 107 156 99 b 182 28 156 63 164 41 b 253 10 200 16 223 10 b 285 13 261 10 272 11 b 322 22 299 14 311 18 l 322 -1 l 322 -1 "},"u":{"ha":786,"x_min":0,"x_max":0,"o":"m 308 -19 b 219 -2 274 -19 244 -14 b 156 44 193 9 172 25 b 118 110 139 63 126 85 b 106 188 110 135 106 161 b 114 260 106 208 108 232 l 181 639 l 211 639 l 143 258 b 138 224 141 248 140 237 b 136 189 137 211 136 199 b 146 123 136 167 139 145 b 176 65 152 101 163 82 b 231 23 190 47 208 34 b 313 7 253 12 280 7 b 412 28 348 7 381 14 b 496 90 443 43 471 63 b 560 188 521 117 542 150 b 600 319 578 227 592 270 l 657 639 l 688 639 l 603 161 b 597 124 601 151 599 138 b 590 78 594 109 592 94 b 585 35 588 63 587 49 b 582 0 583 21 582 9 l 551 0 b 556 35 552 9 554 21 b 561 80 557 49 559 64 b 568 127 563 96 565 112 b 575 168 571 142 573 156 l 572 168 b 460 28 544 106 506 59 b 308 -19 415 -4 364 -19 "},"v":{"ha":596,"x_min":0,"x_max":0,"o":"m 204 0 l 86 639 l 118 639 l 229 31 l 232 31 l 588 639 l 622 639 l 244 0 "},"w":{"ha":961,"x_min":0,"x_max":0,"o":"m 618 0 l 538 606 l 535 606 l 200 0 l 158 0 l 106 639 l 138 639 l 185 31 l 188 31 l 521 639 l 564 639 l 643 31 l 646 31 l 949 639 l 982 639 l 660 0 "},"x":{"ha":604,"x_min":0,"x_max":0,"o":"m 4 0 l -36 0 l 278 339 l 111 639 l 146 639 l 299 358 l 550 639 l 592 639 l 315 336 l 511 0 l 475 0 l 293 317 "},"y":{"ha":594,"x_min":0,"x_max":0,"o":"m 154 -211 b 83 -303 133 -251 109 -282 b -17 -336 57 -325 24 -336 b -46 -333 -25 -336 -35 -335 b -72 -326 -57 -331 -66 -329 l -67 -300 b -45 -306 -62 -302 -55 -304 b -17 -308 -35 -307 -26 -308 b 40 -297 5 -308 23 -305 b 82 -269 56 -290 70 -280 b 113 -229 94 -257 104 -244 b 139 -185 122 -214 131 -200 l 229 -18 l 96 639 l 126 639 l 250 17 l 586 639 l 621 639 l 154 -211 "},"z":{"ha":597,"x_min":0,"x_max":0,"o":"m 10 29 l 535 613 l 138 613 l 142 639 l 572 639 l 567 608 l 46 26 l 481 26 l 476 0 l 7 0 "},"{":{"ha":417,"x_min":0,"x_max":0,"o":"m 17 413 b 60 419 31 413 46 415 b 99 444 74 424 87 432 b 131 492 111 455 121 472 b 153 572 140 513 147 540 l 200 843 b 266 978 212 908 234 953 b 378 1017 298 1004 335 1017 l 443 1017 l 439 990 l 374 990 b 278 952 333 990 301 978 b 231 843 255 927 239 890 l 182 571 b 134 446 172 513 156 471 b 60 401 112 421 88 406 l 60 399 b 118 354 86 394 105 379 b 122 229 131 329 132 288 l 75 -43 b 83 -152 67 -90 69 -127 b 165 -190 97 -178 125 -190 l 231 -190 l 225 -217 l 160 -217 b 103 -208 138 -217 119 -214 b 62 -178 86 -202 72 -192 b 41 -125 51 -165 44 -147 b 44 -43 38 -103 39 -75 l 92 228 b 97 308 97 260 99 287 b 83 356 95 328 91 345 b 53 381 76 368 66 376 b 13 388 41 385 27 388 l 17 413 "},"|":{"ha":308,"x_min":0,"x_max":0,"o":"m 168 -347 l 138 -347 l 138 1042 l 168 1042 "},"}":{"ha":417,"x_min":0,"x_max":0,"o":"m 429 388 b 385 381 413 388 399 385 b 347 356 372 376 359 368 b 316 308 335 345 325 328 b 294 228 307 287 300 260 l 247 -43 b 222 -125 242 -75 233 -103 b 181 -178 210 -147 196 -165 b 128 -208 165 -192 147 -202 b 68 -217 109 -214 89 -217 l 3 -217 l 8 -190 l 74 -190 b 169 -152 114 -190 146 -178 b 217 -43 193 -127 208 -90 l 264 229 b 312 354 274 288 290 329 b 388 399 334 379 359 394 l 388 401 b 353 416 375 404 363 409 b 328 446 343 423 334 433 b 318 496 322 459 319 475 b 324 571 317 516 319 541 l 372 843 b 364 952 381 890 378 927 b 282 990 350 978 323 990 l 217 990 l 221 1017 l 286 1017 b 344 1008 307 1017 327 1014 b 385 978 361 1002 375 992 b 406 925 396 965 403 947 b 403 843 409 903 408 875 l 356 572 b 349 492 350 540 348 513 b 363 444 351 472 355 455 b 392 419 370 432 380 424 b 433 413 404 415 418 413 l 429 388 l 429 388 "},"~":{"ha":925,"x_min":0,"x_max":0,"o":"m 129 367 b 219 469 159 418 189 452 b 313 496 249 487 280 496 b 383 485 338 496 362 492 b 451 447 403 477 426 465 b 550 391 492 419 525 400 b 617 378 575 382 597 378 b 710 413 654 378 685 390 b 778 496 736 437 758 464 l 799 474 b 710 378 771 430 741 398 b 617 349 679 359 648 349 b 540 361 585 349 560 353 b 476 397 521 369 500 381 b 424 431 456 411 438 422 b 384 452 409 440 396 447 b 351 463 372 457 361 461 b 315 467 340 466 328 467 b 221 435 277 467 246 456 b 153 347 196 413 173 384 l 129 367 l 129 367 "}," ":{"ha":347,"x_min":0,"x_max":0,"o":""},"¡":{"ha":383,"x_min":0,"x_max":0,"o":"m 211 404 l 85 -308 l 54 -308 l 181 404 m 233 683 b 254 676 242 683 249 681 b 263 651 260 671 263 663 b 253 624 263 641 259 632 b 228 613 246 616 238 613 b 207 620 219 613 213 615 b 199 643 201 625 199 633 b 209 672 199 654 202 664 b 233 683 216 679 224 683 "},"¢":{"ha":778,"x_min":0,"x_max":0,"o":"m 525 750 l 508 657 b 615 633 545 655 581 647 b 694 575 648 619 675 600 l 675 554 b 599 610 656 578 631 597 b 503 632 567 623 535 630 l 394 3 b 509 24 433 3 472 10 b 606 85 547 39 579 59 l 621 64 b 516 -2 591 35 556 13 b 390 -25 476 -17 434 -25 l 375 -100 l 344 -100 l 358 -24 b 248 6 316 -20 279 -10 b 171 66 217 21 191 41 b 126 151 150 91 135 119 b 111 256 116 184 111 219 b 138 405 111 307 120 357 b 215 532 156 453 182 495 b 331 622 247 569 286 599 b 478 658 376 644 425 656 l 494 750 m 475 632 b 342 597 427 630 382 618 b 236 513 301 575 266 547 b 167 396 206 478 183 439 b 142 260 150 352 142 307 b 155 165 142 226 146 195 b 195 87 164 136 177 109 b 265 31 213 64 236 46 b 364 4 293 17 326 8 l 475 632 "},"£":{"ha":778,"x_min":0,"x_max":0,"o":"m 556 500 l 319 500 l 238 28 l 593 28 l 588 0 l 50 0 l 56 28 l 207 28 l 289 500 l 153 500 l 158 526 l 293 526 l 326 715 b 360 838 335 761 346 801 b 416 930 375 874 393 904 b 497 988 439 955 466 975 b 606 1008 528 1002 564 1008 b 697 993 639 1008 669 1003 b 764 951 724 983 746 969 l 746 929 b 687 967 731 945 711 957 b 607 981 662 976 636 981 b 503 960 566 981 532 974 b 431 904 475 947 451 928 b 383 819 411 880 395 852 b 356 711 371 786 362 750 l 324 526 l 561 526 "},"€":{"ha":778,"x_min":0,"x_max":0,"o":"m 792 940 b 713 974 768 956 741 967 b 618 983 685 980 653 983 b 485 955 572 983 528 974 b 369 877 443 936 404 910 b 273 760 333 844 301 805 b 204 617 245 716 222 668 l 664 617 l 650 590 l 196 590 b 173 497 188 563 180 532 b 160 394 166 462 162 428 l 564 394 l 551 368 l 158 368 b 179 220 158 314 165 265 b 240 103 193 175 213 136 b 338 27 267 71 300 45 b 469 0 377 9 420 0 b 681 64 549 0 619 21 l 692 38 b 594 -9 663 19 631 3 b 468 -28 558 -22 516 -28 b 317 5 410 -28 359 -17 b 211 92 274 27 239 56 b 149 217 183 128 163 170 b 129 368 136 265 129 315 l 31 368 l 46 394 l 131 394 b 133 433 131 404 131 416 b 141 485 135 449 138 466 b 152 540 144 503 148 522 b 165 590 156 559 161 575 l 64 590 l 76 617 l 174 617 b 249 776 193 675 218 728 b 352 901 279 825 314 866 b 477 982 391 935 432 963 b 617 1011 522 1001 569 1011 b 724 999 656 1011 691 1007 b 807 967 756 991 784 981 l 792 940 l 792 940 "},"¥":{"ha":778,"x_min":0,"x_max":0,"o":"m 146 518 l 401 518 l 171 983 l 207 983 l 428 525 l 819 983 l 860 983 l 454 518 l 704 518 l 699 492 l 435 492 l 403 310 l 667 310 l 663 283 l 399 283 l 349 0 l 318 0 l 368 283 l 104 283 l 108 310 l 372 310 l 404 492 l 140 492 "},"Š":{"ha":792,"x_min":0,"x_max":0,"o":"m 743 874 b 649 953 725 906 694 932 b 497 983 603 973 553 983 b 397 969 466 983 432 979 b 299 925 361 960 328 945 b 224 848 269 905 244 879 b 194 735 204 817 194 779 b 210 653 194 702 200 675 b 255 598 221 632 236 613 b 323 558 274 583 297 569 b 411 525 349 547 379 536 b 517 482 449 511 484 497 b 600 430 549 467 577 450 b 654 360 623 410 641 387 b 674 264 667 333 674 301 b 649 143 674 219 665 179 b 578 51 632 107 608 76 b 468 -7 547 26 511 7 b 326 -28 425 -21 378 -28 b 239 -18 297 -28 268 -25 b 159 10 210 -12 184 -2 b 93 52 134 22 113 36 b 46 104 74 68 58 86 l 69 122 b 108 76 79 106 92 91 b 167 38 125 62 145 49 b 244 10 190 26 216 17 b 335 0 272 3 302 0 b 458 17 379 0 420 6 b 556 69 495 29 528 46 b 620 151 583 91 605 119 b 643 263 635 184 643 221 b 623 353 643 298 636 328 b 568 417 609 378 591 399 b 487 464 545 435 518 451 b 386 501 456 477 422 489 b 300 535 356 512 327 523 b 229 580 273 548 250 563 b 181 643 209 597 193 618 b 164 733 170 668 164 698 b 194 856 164 781 174 822 b 273 943 215 891 241 920 b 381 994 305 966 341 983 b 500 1011 422 1006 461 1011 b 667 976 567 1011 622 1000 b 767 893 712 953 745 925 l 743 874 m 389 1261 l 417 1261 l 511 1078 l 678 1261 l 711 1261 l 531 1061 l 490 1061 "},"§":{"ha":778,"x_min":0,"x_max":0,"o":"m 421 204 b 506 141 455 188 484 167 b 540 32 529 115 540 78 b 518 -70 540 -9 533 -43 b 460 -137 503 -97 484 -120 b 377 -175 436 -155 408 -168 b 281 -186 346 -182 314 -186 b 151 -161 232 -186 189 -178 b 53 -92 112 -144 80 -121 l 79 -69 b 283 -158 128 -129 196 -158 b 366 -149 311 -158 339 -155 b 440 -117 393 -142 418 -132 b 492 -62 461 -103 479 -84 b 511 22 505 -39 511 -11 b 500 88 511 47 507 69 b 468 138 493 107 482 124 b 418 174 454 151 438 164 b 354 204 399 185 377 195 b 257 247 315 219 283 233 b 194 291 231 261 210 276 b 161 342 179 306 168 323 b 151 408 155 360 151 382 b 172 497 151 443 158 472 b 224 558 185 521 203 542 b 296 599 246 575 270 588 b 372 621 322 609 347 616 b 324 650 354 630 338 640 b 288 684 310 660 298 672 b 265 728 277 697 270 711 b 257 786 259 744 257 764 b 277 876 257 819 264 848 b 332 947 291 903 309 927 b 411 994 355 968 381 983 b 506 1011 441 1006 472 1011 b 622 991 549 1011 588 1004 b 708 926 656 978 685 956 l 686 907 b 610 965 667 933 641 952 b 503 985 578 978 543 985 b 426 970 478 985 452 980 b 357 930 400 960 377 947 b 307 867 337 913 320 892 b 288 786 294 843 288 816 b 299 723 288 761 291 740 b 330 678 306 706 316 691 b 378 645 343 666 359 655 b 438 618 396 635 416 626 b 535 574 476 602 509 588 b 599 528 562 560 583 545 b 634 474 616 512 627 494 b 644 401 641 453 644 429 b 624 321 644 371 638 344 b 571 261 610 298 592 278 b 499 222 550 244 525 231 b 421 204 472 213 446 207 m 389 221 b 468 236 415 223 441 228 b 541 271 495 244 519 256 b 594 326 563 286 581 304 b 615 401 608 347 615 373 b 603 466 615 426 611 448 b 571 514 596 484 585 500 b 521 551 557 528 540 540 b 457 582 501 561 480 572 l 404 604 b 329 586 380 601 355 595 b 258 549 303 577 279 564 b 203 492 236 533 218 514 b 182 413 189 469 182 443 b 194 347 182 387 186 365 b 226 302 202 330 213 315 b 274 270 240 290 256 279 b 332 244 292 261 312 253 l 389 221 "},"š":{"ha":556,"x_min":0,"x_max":0,"o":"m 50 89 b 123 33 66 66 90 47 b 229 11 156 18 191 11 b 308 24 258 11 284 16 b 368 60 331 33 351 45 b 406 112 385 75 397 92 b 419 175 415 132 419 153 b 412 222 419 193 417 208 b 385 260 407 236 398 249 b 335 292 373 272 356 283 b 258 322 315 302 289 312 b 142 382 204 340 165 360 b 108 469 120 404 108 433 b 128 552 108 501 115 528 b 181 611 142 576 159 595 b 252 647 202 627 226 639 b 332 658 278 654 305 658 b 442 636 375 658 412 651 b 508 582 472 621 494 603 l 483 564 b 422 614 472 585 452 602 b 331 632 393 626 362 632 b 268 624 311 632 290 629 b 206 597 246 618 225 609 b 158 548 187 584 171 568 b 139 474 145 528 139 503 b 174 394 139 438 150 411 b 276 347 197 378 231 362 b 413 275 343 326 389 302 b 450 176 438 248 450 215 b 434 100 450 149 445 123 b 388 39 423 77 408 56 b 317 -2 368 21 344 8 b 224 -17 289 -12 258 -17 b 107 8 182 -17 143 -9 b 28 69 71 24 44 44 l 50 89 m 228 983 l 256 983 l 350 800 l 517 983 l 550 983 l 369 783 l 329 783 "},"©":{"ha":1111,"x_min":0,"x_max":0,"o":"m 28 490 b 69 695 28 563 42 632 b 183 861 97 759 135 814 b 351 973 230 908 286 946 b 557 1014 415 1000 484 1014 b 761 973 629 1014 697 1000 b 928 861 825 946 881 908 b 1042 695 976 814 1014 759 b 1083 490 1069 632 1083 563 b 1042 287 1083 418 1069 350 b 928 121 1014 223 976 168 b 761 10 881 74 825 37 b 557 -31 697 -17 629 -31 b 351 10 484 -31 415 -17 b 183 121 286 37 230 74 b 69 287 135 168 97 223 b 28 490 42 350 28 418 m 58 490 b 98 299 58 422 72 358 b 205 143 124 239 160 188 b 363 38 250 99 303 64 b 557 0 424 13 488 0 b 749 38 625 0 688 13 b 907 143 809 64 862 99 b 1014 299 952 188 988 239 b 1053 490 1040 358 1053 422 b 1014 683 1053 559 1040 623 b 907 839 988 742 952 794 b 749 944 862 883 809 919 b 557 983 688 970 625 983 b 363 944 488 983 424 970 b 205 839 303 919 250 883 b 98 683 160 794 124 742 b 58 490 72 623 58 559 m 747 701 b 671 756 726 725 700 743 b 579 775 641 769 611 775 b 468 752 538 775 501 767 b 383 690 435 737 406 716 b 328 598 359 663 341 633 b 310 488 316 563 310 526 b 328 378 310 449 316 412 b 383 288 341 344 359 313 b 468 226 406 262 435 241 b 579 203 501 210 538 203 b 674 220 612 203 643 209 b 753 269 704 232 731 248 l 774 250 b 683 193 748 224 718 205 b 579 175 649 181 614 175 b 459 198 536 175 496 183 b 364 263 422 213 391 235 b 301 362 337 290 316 323 b 279 488 287 400 279 442 b 301 613 279 533 287 575 b 364 713 316 652 337 685 b 459 778 391 740 422 762 b 579 801 496 794 536 801 b 685 780 616 801 651 794 b 771 722 718 766 747 746 l 747 701 "},"ª":{"ha":486,"x_min":0,"x_max":0,"o":"m 454 688 b 449 639 452 672 450 656 b 446 599 447 622 446 609 l 421 599 b 424 642 421 610 422 624 b 431 692 425 659 428 676 l 428 692 b 367 615 414 659 394 634 b 274 588 340 597 309 588 b 233 593 261 588 247 589 b 193 611 218 597 205 603 b 163 643 181 619 171 630 b 151 692 155 656 151 672 b 176 763 151 721 159 745 b 241 806 192 781 214 795 b 337 826 268 816 300 823 b 454 832 373 830 413 832 b 458 860 456 841 457 851 b 460 882 459 870 460 877 b 428 951 460 913 449 937 b 351 974 408 966 382 974 b 231 931 307 974 267 959 l 217 953 b 283 988 238 969 260 980 b 351 1000 306 996 329 1000 b 450 970 392 1000 425 990 b 488 885 475 950 488 922 b 486 862 488 878 487 871 b 482 840 485 853 484 846 l 454 688 m 426 810 b 332 804 393 810 362 808 b 254 785 302 800 276 794 b 201 750 232 777 214 765 b 181 693 187 735 181 716 b 190 653 181 676 184 663 b 215 628 197 643 205 634 b 248 616 224 622 235 618 b 283 613 260 614 272 613 b 347 627 307 613 329 617 b 394 665 366 637 381 649 b 426 715 407 680 418 697 b 442 771 434 734 439 752 l 449 810 "},"«":{"ha":668,"x_min":0,"x_max":0,"o":"m 353 589 l 149 329 l 263 72 l 238 58 l 115 332 l 333 604 m 585 589 l 381 329 l 494 72 l 469 58 l 347 332 l 565 604 "},"¬":{"ha":925,"x_min":0,"x_max":0,"o":"m 765 528 l 131 528 l 131 554 l 796 554 l 796 186 l 765 186 "},"­":{"ha":417,"x_min":0,"x_max":0,"o":"m 93 367 l 343 367 l 338 340 l 88 340 "},"®":{"ha":833,"x_min":0,"x_max":0,"o":"m 472 668 l 396 668 l 396 515 l 367 515 l 367 864 l 483 864 b 567 840 519 864 546 856 b 597 767 587 823 597 799 b 568 698 597 736 588 713 b 504 672 549 683 527 674 l 611 515 l 575 515 m 568 768 b 542 824 568 796 559 814 b 483 838 524 833 505 838 l 396 838 l 396 692 l 463 692 b 540 708 495 692 521 697 b 568 768 559 718 568 738 m 156 686 b 181 809 156 730 164 771 b 249 909 197 847 220 881 b 350 976 277 937 311 959 b 474 1000 389 992 430 1000 b 597 976 517 1000 558 992 b 697 909 635 959 668 937 b 764 809 725 881 747 847 b 789 686 781 771 789 730 b 764 564 789 643 781 602 b 697 465 747 526 725 493 b 597 398 668 436 635 414 b 474 374 558 382 517 374 b 350 398 430 374 389 382 b 249 465 311 414 277 436 b 181 564 220 493 197 526 b 156 686 164 602 156 643 m 185 686 b 208 576 185 647 192 610 b 270 485 223 541 244 511 b 362 423 297 459 327 438 b 474 400 397 408 434 400 b 584 423 513 400 549 408 b 675 485 619 438 649 459 b 737 576 701 511 722 541 b 760 686 752 610 760 647 b 737 797 760 725 752 762 b 675 888 722 831 701 862 b 584 949 649 913 619 934 b 474 972 549 965 513 972 b 362 949 434 972 397 965 b 270 888 327 934 297 913 b 208 797 244 862 223 831 b 185 686 192 762 185 725 "},"¯":{"ha":333,"x_min":0,"x_max":0,"o":"m 107 890 l 429 890 l 424 863 l 101 863 "},"°":{"ha":556,"x_min":0,"x_max":0,"o":"m 561 793 b 545 715 561 765 556 739 b 502 651 534 690 520 669 b 438 608 484 633 463 618 b 360 592 414 597 388 592 b 281 608 332 592 306 597 b 217 651 257 618 235 633 b 174 715 199 669 185 690 b 158 793 164 739 158 765 b 174 872 158 821 164 847 b 217 935 185 896 199 917 b 281 978 235 953 257 968 b 360 994 306 989 332 994 b 438 978 388 994 414 989 b 502 935 463 968 484 953 b 545 872 520 917 534 896 b 561 793 556 847 561 821 m 533 793 b 519 860 533 817 529 840 b 482 915 510 881 498 900 b 427 953 466 931 448 944 b 360 967 406 962 384 967 b 292 953 336 967 313 962 b 238 915 272 944 253 931 b 200 860 222 900 209 881 b 186 793 191 840 186 817 b 200 726 186 769 191 747 b 238 671 209 705 222 687 b 292 633 253 655 272 643 b 360 619 313 624 336 619 b 427 633 384 619 406 624 b 482 671 448 643 466 655 b 519 726 498 687 510 705 b 533 793 529 747 533 769 "},"±":{"ha":925,"x_min":0,"x_max":0,"o":"m 475 208 l 444 208 l 444 475 l 131 475 l 131 503 l 443 503 l 443 775 l 474 775 l 474 503 l 796 503 l 796 475 l 475 475 m 136 94 l 790 94 l 790 67 l 136 67 "},"²":{"ha":486,"x_min":0,"x_max":0,"o":"m 433 400 l 83 400 l 88 428 l 339 660 b 444 773 390 706 425 744 b 472 857 463 802 472 830 b 438 947 472 900 461 930 b 354 974 414 965 387 974 b 265 949 322 974 292 966 b 197 869 237 933 215 906 l 171 878 b 249 971 189 921 215 952 b 354 999 282 989 317 999 b 465 964 404 999 441 987 b 500 863 488 941 500 907 b 492 811 500 844 497 827 b 467 763 487 795 479 779 b 422 707 456 746 441 727 b 350 638 403 687 379 663 l 121 425 l 438 425 "},"³":{"ha":486,"x_min":0,"x_max":0,"o":"m 436 558 b 421 485 436 531 431 506 b 381 431 411 463 397 445 b 322 397 364 416 344 405 b 253 386 300 390 277 386 b 147 413 211 386 176 395 b 83 483 117 431 96 455 l 108 493 b 170 430 121 463 142 442 b 251 411 198 417 225 411 b 369 452 301 411 341 425 b 411 560 397 479 411 515 b 370 663 411 607 397 641 b 267 696 343 685 308 696 l 243 696 l 249 721 l 271 721 b 394 760 321 721 362 734 b 442 863 426 786 442 820 b 407 951 442 904 430 934 b 329 976 384 968 358 976 b 261 960 305 976 282 971 b 207 917 240 949 222 934 l 188 935 b 332 1000 228 978 276 1000 b 429 967 371 1000 403 989 b 468 868 455 946 468 913 b 455 802 468 843 464 821 b 421 754 446 783 435 767 b 372 724 407 741 391 731 b 315 710 354 717 335 713 l 315 707 b 403 660 351 700 381 684 b 436 558 425 636 436 602 "},"Ž":{"ha":825,"x_min":0,"x_max":0,"o":"m 25 38 l 833 956 l 206 956 l 211 983 l 868 983 l 861 943 l 54 28 l 717 28 l 711 0 l 19 0 m 415 1261 l 443 1261 l 538 1078 l 704 1261 l 738 1261 l 557 1061 l 517 1061 "},"µ":{"ha":772,"x_min":0,"x_max":0,"o":"m 146 256 b 139 215 143 243 141 229 b 136 174 137 201 136 188 b 144 112 136 152 139 132 b 169 58 149 92 157 74 b 217 21 181 43 197 30 b 293 7 237 12 263 7 b 397 28 328 7 363 14 b 490 90 430 43 461 63 b 565 188 518 117 543 150 b 613 319 586 227 602 270 l 681 639 l 711 639 l 610 161 b 603 124 608 151 606 138 b 594 78 600 109 597 94 b 586 35 592 63 589 49 b 581 0 583 21 581 9 l 547 0 l 582 168 l 579 168 b 451 29 547 108 504 62 b 288 -19 397 -3 343 -19 b 167 14 235 -19 194 -8 b 113 100 139 36 121 65 l 24 -317 l -7 -317 l 196 639 l 226 639 "},"¶":{"ha":833,"x_min":0,"x_max":0,"o":"m 735 960 l 519 960 l 319 -175 l 289 -175 l 403 474 b 294 490 362 474 326 479 b 213 533 262 500 235 515 b 163 599 191 552 175 574 b 146 679 152 624 146 650 b 171 801 146 724 154 764 b 242 898 188 838 211 871 b 355 961 273 925 311 946 b 504 983 399 976 449 983 l 769 983 l 565 -175 l 535 -175 "},"·":{"ha":333,"x_min":0,"x_max":0,"o":"m 178 318 b 157 326 169 318 163 321 b 149 350 151 331 149 339 b 158 377 149 360 152 369 b 183 389 165 385 173 389 b 204 381 192 389 199 386 b 213 358 210 376 213 369 b 202 330 213 347 209 338 b 178 318 195 322 187 318 "},"ž":{"ha":597,"x_min":0,"x_max":0,"o":"m 10 29 l 535 613 l 138 613 l 142 639 l 572 639 l 567 608 l 46 26 l 481 26 l 476 0 l 7 0 m 251 983 l 279 983 l 374 800 l 540 983 l 574 983 l 393 783 l 353 783 "},"¹":{"ha":486,"x_min":0,"x_max":0,"o":"m 347 953 l 199 864 l 185 886 l 354 983 l 383 983 l 281 400 l 250 400 "},"º":{"ha":486,"x_min":0,"x_max":0,"o":"m 494 825 b 485 883 494 845 491 865 b 458 931 479 901 470 917 b 410 964 445 944 429 956 b 342 976 390 972 368 976 b 261 959 312 976 285 971 b 200 912 237 947 217 932 b 162 843 183 892 171 869 b 149 763 153 817 149 790 b 158 705 149 742 152 723 b 185 657 164 687 173 671 b 231 624 197 643 212 632 b 300 611 250 615 273 611 b 381 628 330 611 356 617 b 442 676 405 640 425 656 b 481 744 458 696 471 719 b 494 825 490 770 494 797 m 119 763 b 135 853 119 794 125 824 b 181 929 146 881 161 907 b 251 982 200 951 224 969 b 344 1001 279 995 310 1001 b 423 988 374 1001 400 997 b 479 950 446 978 464 966 b 513 894 494 934 505 916 b 524 826 520 873 524 850 b 508 736 524 795 518 765 b 463 660 497 707 482 682 b 392 607 443 638 419 620 b 299 588 364 594 333 588 b 164 638 238 588 194 604 b 119 763 134 672 119 713 "},"»":{"ha":668,"x_min":0,"x_max":0,"o":"m 321 75 l 525 335 l 411 592 l 436 606 l 558 332 l 340 60 m 89 75 l 293 335 l 179 592 l 204 606 l 326 332 l 108 60 "},"Œ":{"ha":1335,"x_min":0,"x_max":0,"o":"m 596 0 b 410 26 529 0 467 9 b 260 105 352 44 303 70 b 161 232 218 140 185 182 b 125 406 137 282 125 340 b 176 667 125 506 142 594 b 315 847 211 740 257 800 b 517 950 372 893 440 928 b 763 983 595 972 676 983 l 1346 983 l 1340 956 l 861 956 l 785 524 l 1244 524 l 1240 496 l 781 496 l 699 28 l 1219 28 l 1214 0 l 596 0 m 832 956 l 764 956 b 530 925 681 956 603 945 b 336 828 456 905 392 872 b 204 659 281 784 237 728 b 156 410 172 590 156 507 b 190 245 156 348 167 293 b 283 126 212 197 243 158 b 424 53 322 94 369 69 b 601 28 478 36 538 28 l 669 28 "},"œ":{"ha":1393,"x_min":0,"x_max":0,"o":"m 714 371 b 698 471 714 406 709 439 b 649 554 687 502 671 530 b 565 611 626 578 599 597 b 447 632 532 625 493 632 b 308 601 395 632 349 622 b 202 521 266 581 231 554 b 135 405 173 488 150 449 b 111 268 119 361 111 315 b 127 167 111 233 116 199 b 176 84 138 135 154 108 b 258 28 197 60 225 42 b 376 7 292 14 331 7 b 515 37 427 7 474 17 b 622 117 557 57 593 84 b 690 234 652 151 675 190 b 714 371 706 278 714 324 m 1000 7 b 1140 40 1053 7 1099 18 b 1244 126 1180 63 1215 91 l 1261 107 b 1154 18 1234 73 1199 43 b 1000 -19 1110 -7 1058 -19 b 803 42 918 -19 852 1 b 711 206 754 84 723 138 b 658 115 697 173 680 143 b 584 44 637 88 612 64 b 490 -3 556 24 524 8 b 376 -19 455 -14 417 -19 b 247 3 327 -19 284 -12 b 155 63 210 18 179 38 b 99 153 130 89 112 119 b 81 267 87 188 81 226 b 106 414 81 318 89 367 b 180 539 123 461 148 503 b 297 626 212 575 251 604 b 450 658 342 647 394 658 b 564 642 493 658 531 653 b 650 594 597 631 626 615 b 709 523 674 574 694 550 b 740 433 724 496 735 466 b 793 522 754 465 772 494 b 867 594 814 550 839 574 b 961 641 896 614 927 629 b 1071 658 995 653 1032 658 b 1183 638 1114 658 1152 652 b 1262 584 1215 625 1241 607 b 1308 504 1283 561 1298 535 b 1322 407 1317 474 1322 441 b 1320 371 1322 398 1322 386 b 1313 326 1319 356 1316 341 l 740 326 b 736 278 738 308 736 292 b 806 78 736 192 759 125 b 1000 7 852 31 917 7 m 1289 353 b 1293 410 1292 373 1293 392 b 1234 571 1293 476 1273 530 b 1071 632 1195 612 1140 632 b 940 605 1022 632 978 623 b 842 537 902 587 870 564 b 777 447 815 509 793 479 b 744 353 761 414 750 382 l 1289 353 "},"Ÿ":{"ha":713,"x_min":0,"x_max":0,"o":"m 304 0 l 274 0 l 350 431 l 125 983 l 158 983 l 369 461 l 793 983 l 831 983 l 381 431 m 401 1157 b 381 1165 393 1157 386 1159 b 372 1189 375 1170 372 1178 b 382 1216 372 1199 375 1208 b 407 1228 388 1224 397 1228 b 428 1220 415 1228 422 1225 b 436 1197 433 1215 436 1207 b 426 1169 436 1186 433 1177 b 401 1157 419 1161 411 1157 m 610 1157 b 589 1165 601 1157 594 1159 b 581 1189 583 1170 581 1178 b 590 1216 581 1199 584 1208 b 615 1228 597 1224 605 1228 b 636 1220 624 1228 631 1225 b 644 1197 642 1215 644 1207 b 634 1169 644 1186 641 1177 b 610 1157 627 1161 619 1157 "},"¿":{"ha":656,"x_min":0,"x_max":0,"o":"m 357 397 l 343 324 b 309 229 338 293 327 262 b 214 133 291 197 259 165 l 160 92 b 111 51 143 79 127 65 b 69 3 95 36 81 20 b 40 -54 57 -15 48 -34 b 29 -122 33 -75 29 -97 b 44 -203 29 -153 34 -180 b 84 -260 53 -226 67 -245 b 144 -293 101 -275 121 -286 b 218 -304 168 -300 192 -304 b 307 -290 250 -304 280 -299 b 378 -249 334 -280 358 -266 b 433 -187 399 -231 417 -211 b 471 -111 448 -164 461 -139 l 499 -119 b 391 -277 475 -187 439 -240 b 217 -333 343 -315 285 -333 b 133 -321 187 -333 159 -329 b 64 -282 107 -312 84 -300 b 16 -217 44 -264 28 -243 b -1 -124 4 -191 -1 -160 b 13 -41 -1 -93 3 -66 b 51 26 23 -16 35 6 b 103 82 66 47 84 65 b 163 128 123 99 143 114 b 231 181 190 147 213 165 b 275 228 249 196 264 212 b 301 277 286 244 295 260 b 315 336 307 294 312 314 l 326 397 m 375 683 b 396 676 383 683 390 681 b 404 651 401 671 404 663 b 394 624 404 641 401 632 b 369 613 388 616 380 613 b 349 620 361 613 354 615 b 340 643 343 625 340 633 b 351 672 340 654 344 664 b 375 683 358 679 366 683 "},"À":{"ha":879,"x_min":0,"x_max":0,"o":"m 721 282 l 165 282 l -14 0 l -51 0 l 581 983 l 626 983 l 801 0 l 771 0 m 182 308 l 717 308 l 600 963 m 631 1061 l 603 1061 l 444 1261 l 483 1261 "},"Á":{"ha":879,"x_min":0,"x_max":0,"o":"m 721 282 l 165 282 l -14 0 l -51 0 l 581 983 l 626 983 l 801 0 l 771 0 m 182 308 l 717 308 l 600 963 m 588 1061 l 764 1261 l 803 1261 l 615 1061 "},"Â":{"ha":879,"x_min":0,"x_max":0,"o":"m 721 282 l 165 282 l -14 0 l -51 0 l 581 983 l 626 983 l 801 0 l 771 0 m 182 308 l 717 308 l 600 963 m 772 1061 l 744 1061 l 650 1244 l 483 1061 l 450 1061 l 631 1261 l 671 1261 "},"Ã":{"ha":879,"x_min":0,"x_max":0,"o":"m 721 282 l 165 282 l -14 0 l -51 0 l 581 983 l 626 983 l 801 0 l 771 0 m 182 308 l 717 308 l 600 963 m 633 1164 b 681 1135 656 1148 672 1139 b 711 1131 691 1132 701 1131 b 779 1197 742 1131 764 1153 l 803 1197 b 761 1126 793 1164 779 1140 b 707 1104 744 1111 725 1104 b 668 1111 692 1104 679 1106 b 624 1138 657 1116 642 1125 b 577 1165 602 1152 587 1162 b 547 1171 567 1169 557 1171 b 479 1100 518 1171 495 1147 l 456 1100 b 497 1174 466 1133 480 1158 b 551 1197 515 1189 533 1197 b 590 1190 566 1197 579 1195 b 633 1164 600 1186 615 1177 "},"Ä":{"ha":879,"x_min":0,"x_max":0,"o":"m 721 282 l 165 282 l -14 0 l -51 0 l 581 983 l 626 983 l 801 0 l 771 0 m 182 308 l 717 308 l 600 963 m 531 1157 b 510 1165 522 1157 515 1159 b 501 1189 504 1170 501 1178 b 511 1216 501 1199 505 1208 b 536 1228 518 1224 526 1228 b 557 1220 544 1228 551 1225 b 565 1197 563 1215 565 1207 b 555 1169 565 1186 562 1177 b 531 1157 548 1161 540 1157 m 739 1157 b 718 1165 731 1157 724 1159 b 710 1189 713 1170 710 1178 b 719 1216 710 1199 713 1208 b 744 1228 726 1224 734 1228 b 765 1220 753 1228 760 1225 b 774 1197 771 1215 774 1207 b 763 1169 774 1186 770 1177 b 739 1157 756 1161 748 1157 "},"Å":{"ha":879,"x_min":0,"x_max":0,"o":"m 721 282 l 165 282 l -14 0 l -51 0 l 581 983 l 626 983 l 801 0 l 771 0 m 182 308 l 717 308 l 600 963 m 739 1200 b 717 1263 739 1224 732 1245 b 649 1290 703 1281 680 1290 b 563 1251 613 1290 584 1277 b 532 1161 542 1225 532 1195 b 553 1099 532 1137 539 1116 b 622 1072 567 1081 590 1072 b 707 1110 657 1072 686 1085 b 739 1200 728 1136 739 1166 m 507 1160 b 517 1218 507 1180 510 1200 b 545 1267 523 1237 533 1253 b 590 1300 558 1281 573 1292 b 650 1313 608 1308 628 1313 b 736 1280 689 1313 718 1302 b 764 1201 755 1258 764 1232 b 754 1143 764 1181 761 1162 b 726 1094 748 1125 738 1108 b 681 1061 713 1081 698 1069 b 621 1049 663 1053 643 1049 b 535 1081 582 1049 553 1059 b 507 1160 516 1102 507 1128 "},"Æ":{"ha":1299,"x_min":0,"x_max":0,"o":"m 825 956 l 749 524 l 1208 524 l 1204 496 l 744 496 l 663 28 l 1183 28 l 1178 0 l 626 0 l 676 286 l 228 286 l -10 0 l -47 0 l 765 983 l 1310 983 l 1304 956 m 778 956 l 251 314 l 682 314 l 794 956 "},"Ç":{"ha":1006,"x_min":0,"x_max":0,"o":"m 508 -314 b 445 -307 491 -314 470 -312 b 381 -286 421 -302 399 -295 l 390 -262 b 449 -281 406 -270 425 -276 b 508 -287 472 -285 492 -287 b 615 -260 559 -287 595 -278 b 646 -196 636 -241 646 -220 b 619 -146 646 -172 637 -155 b 561 -132 601 -137 581 -132 b 509 -137 548 -132 531 -134 b 458 -153 487 -141 470 -146 l 446 -140 l 544 -28 b 359 8 473 -26 411 -14 b 228 99 307 31 263 61 b 151 233 194 137 168 181 b 125 400 134 284 125 340 b 168 630 125 480 139 556 b 288 825 197 703 237 769 b 471 960 340 881 400 927 b 701 1011 541 994 618 1011 b 792 1003 732 1011 762 1009 b 878 980 822 998 851 991 b 952 940 905 969 929 956 b 1011 885 975 925 994 906 l 989 863 b 933 916 973 883 954 901 b 862 954 911 931 887 944 b 782 976 836 964 810 972 b 700 983 754 981 727 983 b 483 935 622 983 550 967 b 310 806 417 902 359 859 b 197 621 262 752 224 690 b 156 406 169 551 156 480 b 179 247 156 349 163 296 b 253 119 195 198 219 155 b 379 32 286 82 328 53 b 561 0 430 11 491 0 b 730 31 619 0 675 10 b 882 124 785 51 836 82 l 896 100 b 743 6 849 58 798 27 b 574 -28 688 -15 632 -26 l 493 -119 b 528 -110 506 -115 518 -112 b 564 -108 539 -109 551 -108 b 603 -112 577 -108 590 -110 b 638 -126 616 -115 628 -120 b 665 -153 649 -133 658 -142 b 675 -193 672 -164 675 -177 b 628 -285 675 -236 659 -266 b 508 -314 596 -304 556 -314 "},"È":{"ha":800,"x_min":0,"x_max":0,"o":"m 265 983 l 811 983 l 806 956 l 289 956 l 213 524 l 710 524 l 706 496 l 208 496 l 126 28 l 685 28 l 679 0 l 92 0 m 592 1061 l 564 1061 l 406 1261 l 444 1261 "},"É":{"ha":800,"x_min":0,"x_max":0,"o":"m 265 983 l 811 983 l 806 956 l 289 956 l 213 524 l 710 524 l 706 496 l 208 496 l 126 28 l 685 28 l 679 0 l 92 0 m 519 1061 l 696 1261 l 735 1261 l 547 1061 "},"Ê":{"ha":800,"x_min":0,"x_max":0,"o":"m 265 983 l 811 983 l 806 956 l 289 956 l 213 524 l 710 524 l 706 496 l 208 496 l 126 28 l 685 28 l 679 0 l 92 0 m 711 1061 l 683 1061 l 589 1244 l 422 1061 l 389 1061 l 569 1261 l 610 1261 "},"Ë":{"ha":800,"x_min":0,"x_max":0,"o":"m 265 983 l 811 983 l 806 956 l 289 956 l 213 524 l 710 524 l 706 496 l 208 496 l 126 28 l 685 28 l 679 0 l 92 0 m 463 1157 b 442 1165 454 1157 447 1159 b 433 1189 436 1170 433 1178 b 443 1216 433 1199 437 1208 b 468 1228 450 1224 458 1228 b 489 1220 476 1228 483 1225 b 497 1197 494 1215 497 1207 b 487 1169 497 1186 494 1177 b 463 1157 480 1161 472 1157 m 671 1157 b 650 1165 663 1157 656 1159 b 642 1189 644 1170 642 1178 b 651 1216 642 1199 645 1208 b 676 1228 658 1224 666 1228 b 697 1220 685 1228 692 1225 b 706 1197 703 1215 706 1207 b 695 1169 706 1186 702 1177 b 671 1157 688 1161 680 1157 "},"Ì":{"ha":325,"x_min":0,"x_max":0,"o":"m 265 983 l 296 983 l 122 0 l 92 0 m 308 1061 l 281 1061 l 122 1261 l 161 1261 "},"Í":{"ha":325,"x_min":0,"x_max":0,"o":"m 265 983 l 296 983 l 122 0 l 92 0 m 275 1061 l 451 1261 l 490 1261 l 303 1061 "},"Î":{"ha":325,"x_min":0,"x_max":0,"o":"m 265 983 l 296 983 l 122 0 l 92 0 m 449 1061 l 421 1061 l 326 1244 l 160 1061 l 126 1061 l 307 1261 l 347 1261 "},"Ï":{"ha":325,"x_min":0,"x_max":0,"o":"m 265 983 l 296 983 l 122 0 l 92 0 m 203 1157 b 182 1165 194 1157 188 1159 b 174 1189 176 1170 174 1178 b 183 1216 174 1199 177 1208 b 208 1228 190 1224 198 1228 b 229 1220 217 1228 224 1225 b 238 1197 235 1215 238 1207 b 227 1169 238 1186 234 1177 b 203 1157 220 1161 212 1157 m 411 1157 b 390 1165 403 1157 396 1159 b 382 1189 385 1170 382 1178 b 392 1216 382 1199 385 1208 b 417 1228 398 1224 406 1228 b 438 1220 425 1228 432 1225 b 446 1197 443 1215 446 1207 b 435 1169 446 1186 442 1177 b 411 1157 428 1161 420 1157 "},"Ð":{"ha":1076,"x_min":0,"x_max":0,"o":"m 76 525 l 185 525 l 265 983 l 524 983 b 710 957 590 983 652 975 b 859 878 767 939 817 913 b 958 751 901 844 934 801 b 994 578 982 700 994 643 b 943 316 994 476 977 389 b 805 137 909 243 863 184 b 602 33 747 90 679 56 b 357 0 525 11 443 0 l 92 0 l 179 497 l 71 497 m 581 497 l 211 497 l 129 28 l 356 28 b 590 58 438 28 516 38 b 783 155 663 79 728 111 b 915 324 839 199 883 255 b 964 574 948 393 964 476 b 930 738 964 636 953 691 b 837 858 907 786 876 826 b 696 931 797 890 750 914 b 518 956 641 947 582 956 l 292 956 l 217 525 l 586 525 "},"Ñ":{"ha":1040,"x_min":0,"x_max":0,"o":"m 293 949 l 289 949 l 122 0 l 92 0 l 265 983 l 308 983 l 810 36 l 814 36 l 981 983 l 1011 983 l 838 0 l 793 0 m 667 1164 b 715 1135 689 1148 705 1139 b 744 1131 724 1132 734 1131 b 813 1197 775 1131 798 1153 l 836 1197 b 794 1126 826 1164 812 1140 b 740 1104 777 1111 759 1104 b 701 1111 725 1104 713 1106 b 657 1138 690 1116 675 1125 b 610 1165 636 1152 620 1162 b 581 1171 601 1169 591 1171 b 513 1100 551 1171 528 1147 l 489 1100 b 531 1174 499 1133 513 1158 b 585 1197 548 1189 566 1197 b 623 1190 600 1197 612 1195 b 667 1164 634 1186 648 1177 "},"Ò":{"ha":1211,"x_min":0,"x_max":0,"o":"m 1099 571 b 1074 731 1099 627 1091 681 b 999 863 1058 782 1033 825 b 871 951 966 900 923 929 b 688 983 819 972 758 983 b 469 935 608 983 535 967 b 301 808 404 903 348 861 b 194 624 255 754 219 693 b 156 410 168 555 156 484 b 181 249 156 352 164 299 b 256 119 197 200 222 156 b 385 32 290 82 333 53 b 568 0 437 11 498 0 b 785 47 648 0 720 16 b 953 174 851 79 906 121 b 1060 356 999 226 1035 287 b 1099 571 1086 425 1099 497 m 125 410 b 165 637 125 488 138 564 b 278 829 191 709 229 774 b 456 962 327 885 386 929 b 688 1011 525 995 602 1011 b 882 978 762 1011 826 1000 b 1020 885 938 956 984 925 b 1102 744 1057 845 1084 798 b 1129 571 1120 691 1129 633 b 1090 344 1129 492 1116 417 b 977 153 1063 272 1026 209 b 800 22 928 98 869 54 b 568 -28 731 -11 653 -28 b 374 6 494 -28 429 -17 b 235 97 318 28 272 58 b 152 235 198 136 170 182 b 125 410 134 289 125 347 m 761 1061 l 733 1061 l 575 1261 l 614 1261 "},"Ó":{"ha":1211,"x_min":0,"x_max":0,"o":"m 1099 571 b 1074 731 1099 627 1091 681 b 999 863 1058 782 1033 825 b 871 951 966 900 923 929 b 688 983 819 972 758 983 b 469 935 608 983 535 967 b 301 808 404 903 348 861 b 194 624 255 754 219 693 b 156 410 168 555 156 484 b 181 249 156 352 164 299 b 256 119 197 200 222 156 b 385 32 290 82 333 53 b 568 0 437 11 498 0 b 785 47 648 0 720 16 b 953 174 851 79 906 121 b 1060 356 999 226 1035 287 b 1099 571 1086 425 1099 497 m 125 410 b 165 637 125 488 138 564 b 278 829 191 709 229 774 b 456 962 327 885 386 929 b 688 1011 525 995 602 1011 b 882 978 762 1011 826 1000 b 1020 885 938 956 984 925 b 1102 744 1057 845 1084 798 b 1129 571 1120 691 1129 633 b 1090 344 1129 492 1116 417 b 977 153 1063 272 1026 209 b 800 22 928 98 869 54 b 568 -28 731 -11 653 -28 b 374 6 494 -28 429 -17 b 235 97 318 28 272 58 b 152 235 198 136 170 182 b 125 410 134 289 125 347 m 675 1061 l 851 1261 l 890 1261 l 703 1061 "},"Ô":{"ha":1211,"x_min":0,"x_max":0,"o":"m 1099 571 b 1074 731 1099 627 1091 681 b 999 863 1058 782 1033 825 b 871 951 966 900 923 929 b 688 983 819 972 758 983 b 469 935 608 983 535 967 b 301 808 404 903 348 861 b 194 624 255 754 219 693 b 156 410 168 555 156 484 b 181 249 156 352 164 299 b 256 119 197 200 222 156 b 385 32 290 82 333 53 b 568 0 437 11 498 0 b 785 47 648 0 720 16 b 953 174 851 79 906 121 b 1060 356 999 226 1035 287 b 1099 571 1086 425 1099 497 m 125 410 b 165 637 125 488 138 564 b 278 829 191 709 229 774 b 456 962 327 885 386 929 b 688 1011 525 995 602 1011 b 882 978 762 1011 826 1000 b 1020 885 938 956 984 925 b 1102 744 1057 845 1084 798 b 1129 571 1120 691 1129 633 b 1090 344 1129 492 1116 417 b 977 153 1063 272 1026 209 b 800 22 928 98 869 54 b 568 -28 731 -11 653 -28 b 374 6 494 -28 429 -17 b 235 97 318 28 272 58 b 152 235 198 136 170 182 b 125 410 134 289 125 347 m 890 1061 l 863 1061 l 768 1244 l 601 1061 l 568 1061 l 749 1261 l 789 1261 "},"Õ":{"ha":1211,"x_min":0,"x_max":0,"o":"m 1099 571 b 1074 731 1099 627 1091 681 b 999 863 1058 782 1033 825 b 871 951 966 900 923 929 b 688 983 819 972 758 983 b 469 935 608 983 535 967 b 301 808 404 903 348 861 b 194 624 255 754 219 693 b 156 410 168 555 156 484 b 181 249 156 352 164 299 b 256 119 197 200 222 156 b 385 32 290 82 333 53 b 568 0 437 11 498 0 b 785 47 648 0 720 16 b 953 174 851 79 906 121 b 1060 356 999 226 1035 287 b 1099 571 1086 425 1099 497 m 125 410 b 165 637 125 488 138 564 b 278 829 191 709 229 774 b 456 962 327 885 386 929 b 688 1011 525 995 602 1011 b 882 978 762 1011 826 1000 b 1020 885 938 956 984 925 b 1102 744 1057 845 1084 798 b 1129 571 1120 691 1129 633 b 1090 344 1129 492 1116 417 b 977 153 1063 272 1026 209 b 800 22 928 98 869 54 b 568 -28 731 -11 653 -28 b 374 6 494 -28 429 -17 b 235 97 318 28 272 58 b 152 235 198 136 170 182 b 125 410 134 289 125 347 m 746 1164 b 794 1135 768 1148 784 1139 b 824 1131 803 1132 813 1131 b 892 1197 854 1131 877 1153 l 915 1197 b 874 1126 905 1164 891 1140 b 819 1104 856 1111 838 1104 b 781 1111 805 1104 792 1106 b 736 1138 769 1116 755 1125 b 690 1165 715 1152 699 1162 b 660 1171 680 1169 670 1171 b 592 1100 630 1171 607 1147 l 568 1100 b 610 1174 578 1133 592 1158 b 664 1197 627 1189 645 1197 b 702 1190 679 1197 691 1195 b 746 1164 713 1186 727 1177 "},"Ö":{"ha":1211,"x_min":0,"x_max":0,"o":"m 1099 571 b 1074 731 1099 627 1091 681 b 999 863 1058 782 1033 825 b 871 951 966 900 923 929 b 688 983 819 972 758 983 b 469 935 608 983 535 967 b 301 808 404 903 348 861 b 194 624 255 754 219 693 b 156 410 168 555 156 484 b 181 249 156 352 164 299 b 256 119 197 200 222 156 b 385 32 290 82 333 53 b 568 0 437 11 498 0 b 785 47 648 0 720 16 b 953 174 851 79 906 121 b 1060 356 999 226 1035 287 b 1099 571 1086 425 1099 497 m 125 410 b 165 637 125 488 138 564 b 278 829 191 709 229 774 b 456 962 327 885 386 929 b 688 1011 525 995 602 1011 b 882 978 762 1011 826 1000 b 1020 885 938 956 984 925 b 1102 744 1057 845 1084 798 b 1129 571 1120 691 1129 633 b 1090 344 1129 492 1116 417 b 977 153 1063 272 1026 209 b 800 22 928 98 869 54 b 568 -28 731 -11 653 -28 b 374 6 494 -28 429 -17 b 235 97 318 28 272 58 b 152 235 198 136 170 182 b 125 410 134 289 125 347 m 640 1157 b 619 1165 632 1157 625 1159 b 611 1189 614 1170 611 1178 b 621 1216 611 1199 614 1208 b 646 1228 627 1224 636 1228 b 667 1220 654 1228 661 1225 b 675 1197 672 1215 675 1207 b 665 1169 675 1186 672 1177 b 640 1157 658 1161 650 1157 m 849 1157 b 828 1165 840 1157 833 1159 b 819 1189 822 1170 819 1178 b 829 1216 819 1199 823 1208 b 854 1228 836 1224 844 1228 b 875 1220 863 1228 869 1225 b 883 1197 881 1215 883 1207 b 873 1169 883 1186 880 1177 b 849 1157 866 1161 858 1157 "},"×":{"ha":925,"x_min":0,"x_max":0,"o":"m 713 160 l 464 408 l 215 160 l 196 178 l 446 428 l 196 678 l 214 696 l 464 446 l 714 696 l 732 678 l 482 428 l 732 178 "},"Ø":{"ha":1211,"x_min":0,"x_max":0,"o":"m 253 124 b 381 33 286 85 329 54 b 568 0 432 11 495 0 b 785 47 648 0 720 16 b 953 174 851 79 906 121 b 1060 356 999 226 1035 287 b 1099 571 1086 425 1099 497 b 1075 728 1099 626 1091 679 b 1003 858 1059 777 1035 820 l 253 124 m 986 875 b 862 955 953 909 911 936 b 688 983 812 974 754 983 b 469 935 608 983 535 967 b 301 808 404 903 348 861 b 194 624 255 754 219 693 b 156 410 168 555 156 484 b 176 265 156 359 162 311 b 236 143 189 220 209 179 l 986 875 m 1025 879 b 1103 742 1060 840 1086 795 b 1129 571 1121 690 1129 633 b 1090 344 1129 492 1116 417 b 977 153 1063 272 1026 209 b 800 22 928 98 869 54 b 568 -28 731 -11 653 -28 b 371 6 493 -28 427 -16 b 231 103 314 29 268 61 l 110 -15 l 93 4 l 214 122 b 147 251 184 160 162 203 b 125 410 132 300 125 352 b 165 637 125 488 138 564 b 278 829 191 709 229 774 b 456 962 327 885 386 929 b 688 1011 525 995 602 1011 b 872 981 757 1011 818 1001 b 1008 897 925 961 970 933 l 1118 1004 l 1135 986 l 1025 879 "},"Ù":{"ha":994,"x_min":0,"x_max":0,"o":"m 874 372 b 832 216 863 317 850 265 b 759 89 814 167 790 125 b 641 3 728 53 689 24 b 465 -28 593 -17 535 -28 b 217 52 355 -28 272 -1 b 133 274 161 105 133 179 b 137 328 133 290 134 308 b 146 385 139 347 142 366 l 251 983 l 282 983 l 176 383 b 167 324 173 362 170 342 b 164 274 165 305 164 288 b 181 165 164 235 170 199 b 235 78 193 132 211 103 b 329 21 260 54 291 35 b 465 0 367 7 413 0 b 644 36 538 0 598 12 b 753 128 690 60 726 91 b 814 251 781 166 801 207 b 844 378 827 295 837 337 l 951 983 l 982 983 l 874 372 m 647 1061 l 619 1061 l 461 1261 l 500 1261 "},"Ú":{"ha":994,"x_min":0,"x_max":0,"o":"m 874 372 b 832 216 863 317 850 265 b 759 89 814 167 790 125 b 641 3 728 53 689 24 b 465 -28 593 -17 535 -28 b 217 52 355 -28 272 -1 b 133 274 161 105 133 179 b 137 328 133 290 134 308 b 146 385 139 347 142 366 l 251 983 l 282 983 l 176 383 b 167 324 173 362 170 342 b 164 274 165 305 164 288 b 181 165 164 235 170 199 b 235 78 193 132 211 103 b 329 21 260 54 291 35 b 465 0 367 7 413 0 b 644 36 538 0 598 12 b 753 128 690 60 726 91 b 814 251 781 166 801 207 b 844 378 827 295 837 337 l 951 983 l 982 983 l 874 372 m 574 1061 l 750 1261 l 789 1261 l 601 1061 "},"Û":{"ha":994,"x_min":0,"x_max":0,"o":"m 874 372 b 832 216 863 317 850 265 b 759 89 814 167 790 125 b 641 3 728 53 689 24 b 465 -28 593 -17 535 -28 b 217 52 355 -28 272 -1 b 133 274 161 105 133 179 b 137 328 133 290 134 308 b 146 385 139 347 142 366 l 251 983 l 282 983 l 176 383 b 167 324 173 362 170 342 b 164 274 165 305 164 288 b 181 165 164 235 170 199 b 235 78 193 132 211 103 b 329 21 260 54 291 35 b 465 0 367 7 413 0 b 644 36 538 0 598 12 b 753 128 690 60 726 91 b 814 251 781 166 801 207 b 844 378 827 295 837 337 l 951 983 l 982 983 l 874 372 m 786 1061 l 758 1061 l 664 1244 l 497 1061 l 464 1061 l 644 1261 l 685 1261 "},"Ü":{"ha":994,"x_min":0,"x_max":0,"o":"m 874 372 b 832 216 863 317 850 265 b 759 89 814 167 790 125 b 641 3 728 53 689 24 b 465 -28 593 -17 535 -28 b 217 52 355 -28 272 -1 b 133 274 161 105 133 179 b 137 328 133 290 134 308 b 146 385 139 347 142 366 l 251 983 l 282 983 l 176 383 b 167 324 173 362 170 342 b 164 274 165 305 164 288 b 181 165 164 235 170 199 b 235 78 193 132 211 103 b 329 21 260 54 291 35 b 465 0 367 7 413 0 b 644 36 538 0 598 12 b 753 128 690 60 726 91 b 814 251 781 166 801 207 b 844 378 827 295 837 337 l 951 983 l 982 983 l 874 372 m 539 1157 b 518 1165 531 1157 524 1159 b 510 1189 513 1170 510 1178 b 519 1216 510 1199 513 1208 b 544 1228 526 1224 534 1228 b 565 1220 553 1228 560 1225 b 574 1197 571 1215 574 1207 b 563 1169 574 1186 570 1177 b 539 1157 556 1161 548 1157 m 747 1157 b 726 1165 739 1157 732 1159 b 718 1189 721 1170 718 1178 b 728 1216 718 1199 721 1208 b 753 1228 734 1224 743 1228 b 774 1220 761 1228 768 1225 b 782 1197 779 1215 782 1207 b 772 1169 782 1186 778 1177 b 747 1157 765 1161 756 1157 "},"Ý":{"ha":713,"x_min":0,"x_max":0,"o":"m 304 0 l 274 0 l 350 431 l 125 983 l 158 983 l 369 461 l 793 983 l 831 983 l 381 431 m 450 1061 l 626 1261 l 665 1261 l 478 1061 "},"Þ":{"ha":778,"x_min":0,"x_max":0,"o":"m 122 0 l 92 0 l 265 983 l 296 983 l 257 765 l 476 765 b 572 754 509 765 541 762 b 657 718 604 747 632 735 b 718 651 682 701 702 679 b 742 547 734 624 742 589 b 722 440 742 510 735 475 b 662 350 709 406 689 376 b 557 288 634 324 600 303 b 406 264 514 272 464 264 l 169 264 m 711 549 b 691 637 711 583 704 612 b 638 696 678 661 660 681 b 565 728 616 711 592 722 b 483 739 537 735 510 739 l 251 739 l 174 292 l 413 292 b 635 363 510 292 584 315 b 711 549 686 410 711 472 "},"ß":{"ha":801,"x_min":0,"x_max":0,"o":"m 719 328 b 697 201 719 284 712 242 b 628 92 681 161 658 124 b 514 15 597 60 559 35 b 357 -14 469 -4 416 -14 b 324 -13 347 -14 336 -14 b 292 -10 313 -13 302 -12 l 296 19 b 333 15 310 18 322 16 b 361 14 343 14 353 14 b 497 39 411 14 456 22 b 600 106 537 56 571 78 b 666 205 629 134 651 167 b 689 324 681 242 689 282 b 674 419 689 357 684 389 b 630 501 665 450 650 477 b 555 557 610 524 585 543 b 449 578 525 571 489 578 l 426 578 l 432 607 l 454 607 b 549 621 486 607 517 612 b 636 663 581 630 610 644 b 699 736 662 682 683 706 b 722 842 714 766 722 801 b 706 929 722 875 717 904 b 661 991 694 954 680 975 b 596 1027 643 1007 621 1019 b 517 1039 571 1035 544 1039 b 400 1013 470 1039 431 1030 b 322 944 369 995 342 972 b 274 849 301 916 285 884 b 247 743 263 813 254 778 l 117 0 l 86 0 l 218 747 b 249 867 225 789 236 829 b 304 969 263 906 281 940 b 390 1040 327 999 356 1023 b 515 1067 425 1058 466 1067 b 606 1053 547 1067 577 1062 b 681 1013 634 1045 659 1031 b 733 944 703 995 720 972 b 753 847 746 917 753 884 b 732 742 753 806 746 772 b 678 668 718 713 700 688 b 605 619 657 648 632 631 b 524 594 578 607 550 599 l 522 592 b 595 565 547 587 572 578 b 658 513 619 552 640 535 b 703 435 677 491 692 465 b 719 328 714 404 719 369 "},"à":{"ha":711,"x_min":0,"x_max":0,"o":"m 550 144 b 540 67 545 120 542 95 b 536 0 537 40 536 18 l 507 0 b 513 72 507 19 509 42 b 525 153 516 101 520 128 l 521 153 b 419 26 497 98 463 56 b 267 -19 375 -4 324 -19 b 199 -11 245 -19 223 -17 b 133 16 176 -6 154 3 b 83 67 113 28 96 45 b 63 146 69 88 63 114 b 102 263 63 194 76 233 b 210 333 128 293 164 317 b 368 367 255 350 308 361 b 561 375 428 372 493 375 b 571 428 566 394 569 411 b 574 464 573 444 574 456 b 525 591 574 521 557 564 b 393 632 493 618 449 632 b 287 611 355 632 320 625 b 193 556 254 597 223 579 l 176 579 b 283 638 210 605 245 625 b 394 658 321 652 358 658 b 549 609 461 658 513 642 b 604 468 586 576 604 529 b 601 432 604 458 603 446 b 596 397 600 418 598 406 l 550 144 m 518 349 b 349 340 457 349 400 346 b 214 308 297 334 252 323 b 125 247 176 292 146 272 b 93 150 104 221 93 189 b 110 81 93 122 99 99 b 153 37 122 62 136 47 b 210 14 171 26 190 19 b 271 7 231 9 251 7 b 381 33 313 7 349 16 b 463 101 413 51 441 73 b 517 191 486 128 504 158 b 546 288 531 224 540 256 l 557 349 m 457 783 l 429 783 l 271 983 l 310 983 "},"á":{"ha":711,"x_min":0,"x_max":0,"o":"m 550 144 b 540 67 545 120 542 95 b 536 0 537 40 536 18 l 507 0 b 513 72 507 19 509 42 b 525 153 516 101 520 128 l 521 153 b 419 26 497 98 463 56 b 267 -19 375 -4 324 -19 b 199 -11 245 -19 223 -17 b 133 16 176 -6 154 3 b 83 67 113 28 96 45 b 63 146 69 88 63 114 b 102 263 63 194 76 233 b 210 333 128 293 164 317 b 368 367 255 350 308 361 b 561 375 428 372 493 375 b 571 428 566 394 569 411 b 574 464 573 444 574 456 b 525 591 574 521 557 564 b 393 632 493 618 449 632 b 287 611 355 632 320 625 b 193 556 254 597 223 579 l 176 579 b 283 638 210 605 245 625 b 394 658 321 652 358 658 b 549 609 461 658 513 642 b 604 468 586 576 604 529 b 601 432 604 458 603 446 b 596 397 600 418 598 406 l 550 144 m 518 349 b 349 340 457 349 400 346 b 214 308 297 334 252 323 b 125 247 176 292 146 272 b 93 150 104 221 93 189 b 110 81 93 122 99 99 b 153 37 122 62 136 47 b 210 14 171 26 190 19 b 271 7 231 9 251 7 b 381 33 313 7 349 16 b 463 101 413 51 441 73 b 517 191 486 128 504 158 b 546 288 531 224 540 256 l 557 349 m 389 783 l 565 983 l 604 983 l 417 783 "},"â":{"ha":711,"x_min":0,"x_max":0,"o":"m 550 144 b 540 67 545 120 542 95 b 536 0 537 40 536 18 l 507 0 b 513 72 507 19 509 42 b 525 153 516 101 520 128 l 521 153 b 419 26 497 98 463 56 b 267 -19 375 -4 324 -19 b 199 -11 245 -19 223 -17 b 133 16 176 -6 154 3 b 83 67 113 28 96 45 b 63 146 69 88 63 114 b 102 263 63 194 76 233 b 210 333 128 293 164 317 b 368 367 255 350 308 361 b 561 375 428 372 493 375 b 571 428 566 394 569 411 b 574 464 573 444 574 456 b 525 591 574 521 557 564 b 393 632 493 618 449 632 b 287 611 355 632 320 625 b 193 556 254 597 223 579 l 176 579 b 283 638 210 605 245 625 b 394 658 321 652 358 658 b 549 609 461 658 513 642 b 604 468 586 576 604 529 b 601 432 604 458 603 446 b 596 397 600 418 598 406 l 550 144 m 518 349 b 349 340 457 349 400 346 b 214 308 297 334 252 323 b 125 247 176 292 146 272 b 93 150 104 221 93 189 b 110 81 93 122 99 99 b 153 37 122 62 136 47 b 210 14 171 26 190 19 b 271 7 231 9 251 7 b 381 33 313 7 349 16 b 463 101 413 51 441 73 b 517 191 486 128 504 158 b 546 288 531 224 540 256 l 557 349 m 597 783 l 569 783 l 475 967 l 308 783 l 275 783 l 456 983 l 496 983 "},"ã":{"ha":711,"x_min":0,"x_max":0,"o":"m 550 144 b 540 67 545 120 542 95 b 536 0 537 40 536 18 l 507 0 b 513 72 507 19 509 42 b 525 153 516 101 520 128 l 521 153 b 419 26 497 98 463 56 b 267 -19 375 -4 324 -19 b 199 -11 245 -19 223 -17 b 133 16 176 -6 154 3 b 83 67 113 28 96 45 b 63 146 69 88 63 114 b 102 263 63 194 76 233 b 210 333 128 293 164 317 b 368 367 255 350 308 361 b 561 375 428 372 493 375 b 571 428 566 394 569 411 b 574 464 573 444 574 456 b 525 591 574 521 557 564 b 393 632 493 618 449 632 b 287 611 355 632 320 625 b 193 556 254 597 223 579 l 176 579 b 283 638 210 605 245 625 b 394 658 321 652 358 658 b 549 609 461 658 513 642 b 604 468 586 576 604 529 b 601 432 604 458 603 446 b 596 397 600 418 598 406 l 550 144 m 518 349 b 349 340 457 349 400 346 b 214 308 297 334 252 323 b 125 247 176 292 146 272 b 93 150 104 221 93 189 b 110 81 93 122 99 99 b 153 37 122 62 136 47 b 210 14 171 26 190 19 b 271 7 231 9 251 7 b 381 33 313 7 349 16 b 463 101 413 51 441 73 b 517 191 486 128 504 158 b 546 288 531 224 540 256 l 557 349 m 446 886 b 494 858 468 870 484 861 b 524 853 503 854 513 853 b 592 919 554 853 577 875 l 615 919 b 574 848 605 886 591 862 b 519 826 556 834 538 826 b 481 833 505 826 492 829 b 436 860 469 838 455 847 b 390 888 415 875 399 884 b 360 893 380 891 370 893 b 292 822 330 893 307 869 l 268 822 b 310 896 278 856 292 880 b 364 919 327 912 345 919 b 402 913 379 919 391 917 b 446 886 413 908 427 899 "},"ä":{"ha":711,"x_min":0,"x_max":0,"o":"m 550 144 b 540 67 545 120 542 95 b 536 0 537 40 536 18 l 507 0 b 513 72 507 19 509 42 b 525 153 516 101 520 128 l 521 153 b 419 26 497 98 463 56 b 267 -19 375 -4 324 -19 b 199 -11 245 -19 223 -17 b 133 16 176 -6 154 3 b 83 67 113 28 96 45 b 63 146 69 88 63 114 b 102 263 63 194 76 233 b 210 333 128 293 164 317 b 368 367 255 350 308 361 b 561 375 428 372 493 375 b 571 428 566 394 569 411 b 574 464 573 444 574 456 b 525 591 574 521 557 564 b 393 632 493 618 449 632 b 287 611 355 632 320 625 b 193 556 254 597 223 579 l 176 579 b 283 638 210 605 245 625 b 394 658 321 652 358 658 b 549 609 461 658 513 642 b 604 468 586 576 604 529 b 601 432 604 458 603 446 b 596 397 600 418 598 406 l 550 144 m 518 349 b 349 340 457 349 400 346 b 214 308 297 334 252 323 b 125 247 176 292 146 272 b 93 150 104 221 93 189 b 110 81 93 122 99 99 b 153 37 122 62 136 47 b 210 14 171 26 190 19 b 271 7 231 9 251 7 b 381 33 313 7 349 16 b 463 101 413 51 441 73 b 517 191 486 128 504 158 b 546 288 531 224 540 256 l 557 349 m 342 879 b 321 887 333 879 326 882 b 313 911 315 892 313 900 b 322 938 313 921 316 930 b 347 950 329 946 337 950 b 368 942 356 950 363 947 b 376 919 374 937 376 930 b 366 891 376 908 373 899 b 342 879 359 883 351 879 m 550 879 b 529 887 542 879 535 882 b 521 911 524 892 521 900 b 531 938 521 921 524 930 b 556 950 537 946 545 950 b 576 942 564 950 571 947 b 585 919 582 937 585 930 b 574 891 585 908 581 899 b 550 879 567 883 559 879 "},"å":{"ha":711,"x_min":0,"x_max":0,"o":"m 550 144 b 540 67 545 120 542 95 b 536 0 537 40 536 18 l 507 0 b 513 72 507 19 509 42 b 525 153 516 101 520 128 l 521 153 b 419 26 497 98 463 56 b 267 -19 375 -4 324 -19 b 199 -11 245 -19 223 -17 b 133 16 176 -6 154 3 b 83 67 113 28 96 45 b 63 146 69 88 63 114 b 102 263 63 194 76 233 b 210 333 128 293 164 317 b 368 367 255 350 308 361 b 561 375 428 372 493 375 b 571 428 566 394 569 411 b 574 464 573 444 574 456 b 525 591 574 521 557 564 b 393 632 493 618 449 632 b 287 611 355 632 320 625 b 193 556 254 597 223 579 l 176 579 b 283 638 210 605 245 625 b 394 658 321 652 358 658 b 549 609 461 658 513 642 b 604 468 586 576 604 529 b 601 432 604 458 603 446 b 596 397 600 418 598 406 l 550 144 m 518 349 b 349 340 457 349 400 346 b 214 308 297 334 252 323 b 125 247 176 292 146 272 b 93 150 104 221 93 189 b 110 81 93 122 99 99 b 153 37 122 62 136 47 b 210 14 171 26 190 19 b 271 7 231 9 251 7 b 381 33 313 7 349 16 b 463 101 413 51 441 73 b 517 191 486 128 504 158 b 546 288 531 224 540 256 l 557 349 m 553 922 b 531 985 553 946 546 967 b 463 1013 517 1003 494 1013 b 377 974 426 1013 398 1000 b 346 883 356 948 346 918 b 367 821 346 859 353 838 b 436 794 381 803 404 794 b 521 833 471 794 500 807 b 553 922 542 858 553 888 m 321 882 b 331 940 321 902 324 922 b 359 989 337 959 347 975 b 404 1022 372 1003 387 1014 b 464 1035 422 1031 442 1035 b 550 1002 503 1035 531 1024 b 578 924 569 980 578 954 b 568 865 578 903 575 884 b 540 817 562 847 552 831 b 494 783 527 803 512 792 b 435 771 477 775 457 771 b 349 803 396 771 367 781 b 321 882 330 824 321 850 "},"æ":{"ha":1218,"x_min":0,"x_max":0,"o":"m 825 7 b 965 40 878 7 924 18 b 1069 126 1005 63 1040 91 l 1086 107 b 979 18 1059 73 1024 43 b 825 -19 935 -7 883 -19 b 711 -1 781 -19 744 -13 b 628 51 679 12 651 29 b 576 130 606 74 588 100 b 553 228 563 160 556 193 b 518 140 545 199 534 170 b 459 60 502 111 483 84 b 376 3 435 37 408 18 b 267 -19 344 -12 307 -19 b 199 -12 245 -19 223 -17 b 133 14 176 -7 154 2 b 83 63 113 26 96 42 b 63 140 69 84 63 110 b 101 250 63 186 75 222 b 208 315 127 278 163 299 b 365 346 253 330 305 340 b 557 354 424 351 488 354 b 569 414 562 374 566 394 b 574 463 572 434 574 450 b 525 590 574 520 557 563 b 393 632 493 618 449 632 b 287 611 355 632 320 625 b 193 556 254 597 223 579 l 176 579 b 283 638 210 605 245 625 b 393 658 320 652 357 658 b 545 610 458 658 509 642 b 603 474 582 577 601 532 b 719 606 631 526 669 570 b 896 658 769 641 828 658 b 1008 638 939 658 977 652 b 1087 584 1040 625 1066 607 b 1133 504 1108 561 1123 535 b 1147 407 1142 474 1147 441 b 1145 371 1147 398 1147 386 b 1138 326 1144 356 1141 341 l 582 326 b 578 278 579 308 578 292 b 640 82 578 197 598 132 b 825 7 681 32 743 7 m 510 326 b 343 317 450 326 394 323 b 211 288 292 311 248 301 b 124 231 174 274 145 255 b 93 144 103 208 93 179 b 110 78 93 118 99 95 b 153 35 122 60 136 46 b 210 13 171 25 190 17 b 271 7 231 9 251 7 b 381 33 313 7 349 16 b 461 101 412 51 439 73 b 515 191 483 128 501 158 b 544 288 528 224 538 256 l 553 326 m 1114 353 b 1118 410 1117 373 1118 392 b 1059 571 1118 476 1098 530 b 896 632 1020 612 965 632 b 771 605 849 632 807 623 b 678 537 735 587 704 564 b 617 447 652 509 631 479 b 586 353 602 414 592 382 l 1114 353 "},"ç":{"ha":650,"x_min":0,"x_max":0,"o":"m 300 -314 b 237 -307 282 -314 261 -312 b 172 -286 212 -302 191 -295 l 182 -262 b 240 -281 198 -270 217 -276 b 300 -287 263 -285 283 -287 b 407 -260 351 -287 387 -278 b 438 -196 427 -241 438 -220 b 410 -146 438 -172 428 -155 b 353 -132 392 -137 373 -132 b 301 -137 340 -132 322 -134 b 250 -153 279 -141 262 -146 l 238 -140 l 338 -24 b 222 3 293 -21 255 -12 b 142 64 190 19 163 39 b 96 150 122 89 106 118 b 81 256 86 182 81 218 b 108 407 81 308 90 359 b 186 535 127 455 153 498 b 305 625 219 573 259 603 b 456 658 351 647 401 658 b 574 638 496 658 536 651 b 664 575 613 624 643 603 l 644 554 b 563 613 624 581 597 601 b 458 632 528 626 494 632 b 319 601 408 632 362 622 b 209 517 277 580 240 552 b 137 399 178 483 154 443 b 111 260 120 354 111 308 b 126 159 111 224 116 190 b 173 78 137 128 152 101 b 251 23 194 55 220 36 b 364 3 283 9 320 3 b 478 24 403 3 441 10 b 575 85 516 39 548 59 l 590 64 b 488 -1 561 35 526 13 b 365 -25 449 -16 408 -24 l 285 -119 b 320 -110 298 -115 309 -112 b 356 -108 331 -109 343 -108 b 394 -112 369 -108 381 -110 b 430 -126 407 -115 419 -120 b 456 -153 441 -133 449 -142 b 467 -193 463 -164 467 -177 b 419 -285 467 -236 451 -266 b 300 -314 388 -304 348 -314 "},"è":{"ha":768,"x_min":0,"x_max":0,"o":"m 115 326 b 111 278 113 308 111 292 b 181 78 111 192 134 125 b 375 7 227 31 292 7 b 515 40 428 7 474 18 b 619 126 555 63 590 91 l 636 107 b 529 18 609 73 574 43 b 375 -19 485 -7 433 -19 b 249 2 328 -19 286 -12 b 157 62 213 16 182 36 b 100 153 132 87 113 118 b 81 271 87 189 81 228 b 107 416 81 321 89 369 b 182 540 125 463 150 504 b 297 626 214 576 253 605 b 446 658 342 648 391 658 b 558 638 489 658 527 652 b 637 584 590 625 616 607 b 683 504 658 561 673 535 b 697 407 692 474 697 441 b 695 371 697 398 697 386 b 688 326 694 356 691 341 l 115 326 m 664 353 b 668 410 667 373 668 392 b 609 571 668 476 648 530 b 446 632 570 612 515 632 b 315 605 397 632 353 623 b 217 537 277 587 245 564 b 152 447 190 509 168 479 b 119 353 136 414 125 382 l 664 353 m 526 783 l 499 783 l 340 983 l 379 983 "},"é":{"ha":768,"x_min":0,"x_max":0,"o":"m 115 326 b 111 278 113 308 111 292 b 181 78 111 192 134 125 b 375 7 227 31 292 7 b 515 40 428 7 474 18 b 619 126 555 63 590 91 l 636 107 b 529 18 609 73 574 43 b 375 -19 485 -7 433 -19 b 249 2 328 -19 286 -12 b 157 62 213 16 182 36 b 100 153 132 87 113 118 b 81 271 87 189 81 228 b 107 416 81 321 89 369 b 182 540 125 463 150 504 b 297 626 214 576 253 605 b 446 658 342 648 391 658 b 558 638 489 658 527 652 b 637 584 590 625 616 607 b 683 504 658 561 673 535 b 697 407 692 474 697 441 b 695 371 697 398 697 386 b 688 326 694 356 691 341 l 115 326 m 664 353 b 668 410 667 373 668 392 b 609 571 668 476 648 530 b 446 632 570 612 515 632 b 315 605 397 632 353 623 b 217 537 277 587 245 564 b 152 447 190 509 168 479 b 119 353 136 414 125 382 l 664 353 m 413 783 l 589 983 l 628 983 l 440 783 "},"ê":{"ha":768,"x_min":0,"x_max":0,"o":"m 115 326 b 111 278 113 308 111 292 b 181 78 111 192 134 125 b 375 7 227 31 292 7 b 515 40 428 7 474 18 b 619 126 555 63 590 91 l 636 107 b 529 18 609 73 574 43 b 375 -19 485 -7 433 -19 b 249 2 328 -19 286 -12 b 157 62 213 16 182 36 b 100 153 132 87 113 118 b 81 271 87 189 81 228 b 107 416 81 321 89 369 b 182 540 125 463 150 504 b 297 626 214 576 253 605 b 446 658 342 648 391 658 b 558 638 489 658 527 652 b 637 584 590 625 616 607 b 683 504 658 561 673 535 b 697 407 692 474 697 441 b 695 371 697 398 697 386 b 688 326 694 356 691 341 l 115 326 m 664 353 b 668 410 667 373 668 392 b 609 571 668 476 648 530 b 446 632 570 612 515 632 b 315 605 397 632 353 623 b 217 537 277 587 245 564 b 152 447 190 509 168 479 b 119 353 136 414 125 382 l 664 353 m 647 783 l 619 783 l 525 967 l 358 783 l 325 783 l 506 983 l 546 983 "},"ë":{"ha":768,"x_min":0,"x_max":0,"o":"m 115 326 b 111 278 113 308 111 292 b 181 78 111 192 134 125 b 375 7 227 31 292 7 b 515 40 428 7 474 18 b 619 126 555 63 590 91 l 636 107 b 529 18 609 73 574 43 b 375 -19 485 -7 433 -19 b 249 2 328 -19 286 -12 b 157 62 213 16 182 36 b 100 153 132 87 113 118 b 81 271 87 189 81 228 b 107 416 81 321 89 369 b 182 540 125 463 150 504 b 297 626 214 576 253 605 b 446 658 342 648 391 658 b 558 638 489 658 527 652 b 637 584 590 625 616 607 b 683 504 658 561 673 535 b 697 407 692 474 697 441 b 695 371 697 398 697 386 b 688 326 694 356 691 341 l 115 326 m 664 353 b 668 410 667 373 668 392 b 609 571 668 476 648 530 b 446 632 570 612 515 632 b 315 605 397 632 353 623 b 217 537 277 587 245 564 b 152 447 190 509 168 479 b 119 353 136 414 125 382 l 664 353 m 393 879 b 372 887 385 879 378 882 b 364 911 367 892 364 900 b 374 938 364 921 367 930 b 399 950 380 946 388 950 b 419 942 407 950 414 947 b 428 919 425 937 428 930 b 417 891 428 908 424 899 b 393 879 410 883 402 879 m 601 879 b 581 887 593 879 586 882 b 572 911 575 892 572 900 b 582 938 572 921 575 930 b 607 950 588 946 597 950 b 628 942 615 950 622 947 b 636 919 633 937 636 930 b 626 891 636 908 633 899 b 601 879 619 883 611 879 "},"ì":{"ha":314,"x_min":0,"x_max":0,"o":"m 199 639 l 229 639 l 117 0 l 86 0 m 267 783 l 239 783 l 81 983 l 119 983 "},"í":{"ha":314,"x_min":0,"x_max":0,"o":"m 199 639 l 229 639 l 117 0 l 86 0 m 210 783 l 386 983 l 425 983 l 238 783 "},"î":{"ha":314,"x_min":0,"x_max":0,"o":"m 199 639 l 229 639 l 117 0 l 86 0 m 403 783 l 375 783 l 281 967 l 114 783 l 81 783 l 261 983 l 301 983 "},"ï":{"ha":314,"x_min":0,"x_max":0,"o":"m 199 639 l 229 639 l 117 0 l 86 0 m 149 879 b 128 887 140 879 133 882 b 119 911 122 892 119 900 b 129 938 119 921 123 930 b 154 950 136 946 144 950 b 175 942 163 950 169 947 b 183 919 181 937 183 930 b 173 891 183 908 180 899 b 149 879 166 883 158 879 m 357 879 b 336 887 349 879 342 882 b 328 911 331 892 328 900 b 338 938 328 921 331 930 b 363 950 344 946 352 950 b 383 942 371 950 378 947 b 392 919 389 937 392 930 b 381 891 392 908 388 899 b 357 879 374 883 366 879 "},"ð":{"ha":831,"x_min":0,"x_max":0,"o":"m 735 371 b 719 471 735 406 729 439 b 669 554 708 502 692 530 b 586 611 647 578 619 597 b 468 632 553 625 513 632 b 328 601 416 632 370 622 b 223 521 287 581 252 554 b 156 405 194 488 171 449 b 132 268 140 361 132 315 b 148 167 132 233 137 199 b 197 84 159 135 175 108 b 279 28 218 60 246 42 b 397 7 313 14 352 7 b 536 37 448 7 494 17 b 643 117 578 57 613 84 b 711 234 673 151 695 190 b 735 371 727 278 735 324 m 469 658 b 608 633 521 658 568 650 b 706 549 649 616 681 588 l 714 551 b 685 655 707 586 698 620 b 644 755 673 690 659 723 b 595 843 628 787 612 816 b 546 911 578 870 562 893 l 375 826 l 361 846 l 529 932 b 414 1043 486 982 447 1019 l 439 1058 b 498 1007 459 1044 479 1026 b 554 944 517 988 536 967 l 717 1028 l 736 1010 l 574 925 b 638 826 594 898 616 865 b 700 694 661 786 681 743 b 747 540 719 646 734 595 b 765 372 759 484 765 429 b 740 224 765 320 757 271 b 666 99 722 176 698 135 b 550 13 634 63 595 34 b 397 -19 505 -9 454 -19 b 268 3 348 -19 305 -12 b 176 63 231 18 200 38 b 120 153 151 89 133 119 b 101 267 108 188 101 226 b 127 414 101 318 110 367 b 201 539 144 461 169 503 b 317 626 233 575 271 604 b 469 658 362 647 413 658 "},"ñ":{"ha":786,"x_min":0,"x_max":0,"o":"m 465 658 b 555 641 500 658 529 653 b 618 595 580 629 601 614 b 656 529 635 576 647 554 b 668 451 664 504 668 478 b 660 379 668 431 665 407 l 593 0 l 563 0 l 631 381 b 635 415 632 391 634 402 b 638 450 637 428 638 440 b 628 516 638 472 634 494 b 597 574 621 538 611 557 b 543 616 583 591 565 605 b 461 632 521 627 494 632 b 362 610 426 632 393 625 b 278 549 331 596 303 575 b 213 451 253 522 231 489 b 174 319 195 412 182 369 l 117 0 l 86 0 l 171 478 b 177 515 173 488 175 500 b 183 560 179 530 181 545 b 189 604 185 576 187 590 b 192 639 191 618 192 630 l 222 639 b 218 604 221 630 220 618 b 213 559 216 590 214 575 b 206 512 211 543 208 527 b 199 471 203 497 200 483 l 201 471 b 313 611 230 533 267 580 b 465 658 359 643 410 658 m 490 886 b 538 858 513 870 528 861 b 568 853 548 854 558 853 b 636 919 599 853 621 875 l 660 919 b 618 848 650 886 636 862 b 564 826 600 834 582 826 b 525 833 549 826 536 829 b 481 860 514 838 499 847 b 434 888 459 875 444 884 b 404 893 424 891 414 893 b 336 822 375 893 352 869 l 313 822 b 354 896 323 856 337 880 b 408 919 372 912 390 919 b 447 913 423 919 436 917 b 490 886 457 908 472 899 "},"ò":{"ha":831,"x_min":0,"x_max":0,"o":"m 714 371 b 698 471 714 406 709 439 b 649 554 687 502 671 530 b 565 611 626 578 599 597 b 447 632 532 625 493 632 b 308 601 395 632 349 622 b 202 521 266 581 231 554 b 135 405 173 488 150 449 b 111 268 119 361 111 315 b 127 167 111 233 116 199 b 176 84 138 135 154 108 b 258 28 197 60 225 42 b 376 7 292 14 331 7 b 515 37 427 7 474 17 b 622 117 557 57 593 84 b 690 234 652 151 675 190 b 714 371 706 278 714 324 m 81 267 b 106 414 81 318 89 367 b 180 539 123 461 148 503 b 297 626 212 575 251 604 b 450 658 342 647 394 658 b 578 636 499 658 542 651 b 670 575 615 621 646 601 b 726 484 695 549 713 519 b 744 372 738 449 744 412 b 719 224 744 320 736 271 b 645 99 702 176 677 135 b 529 13 613 63 575 34 b 376 -19 484 -9 433 -19 b 247 3 327 -19 284 -12 b 155 63 210 18 179 38 b 99 153 130 89 112 119 b 81 267 87 188 81 226 m 522 783 l 494 783 l 336 983 l 375 983 "},"ó":{"ha":831,"x_min":0,"x_max":0,"o":"m 714 371 b 698 471 714 406 709 439 b 649 554 687 502 671 530 b 565 611 626 578 599 597 b 447 632 532 625 493 632 b 308 601 395 632 349 622 b 202 521 266 581 231 554 b 135 405 173 488 150 449 b 111 268 119 361 111 315 b 127 167 111 233 116 199 b 176 84 138 135 154 108 b 258 28 197 60 225 42 b 376 7 292 14 331 7 b 515 37 427 7 474 17 b 622 117 557 57 593 84 b 690 234 652 151 675 190 b 714 371 706 278 714 324 m 81 267 b 106 414 81 318 89 367 b 180 539 123 461 148 503 b 297 626 212 575 251 604 b 450 658 342 647 394 658 b 578 636 499 658 542 651 b 670 575 615 621 646 601 b 726 484 695 549 713 519 b 744 372 738 449 744 412 b 719 224 744 320 736 271 b 645 99 702 176 677 135 b 529 13 613 63 575 34 b 376 -19 484 -9 433 -19 b 247 3 327 -19 284 -12 b 155 63 210 18 179 38 b 99 153 130 89 112 119 b 81 267 87 188 81 226 m 443 783 l 619 983 l 658 983 l 471 783 "},"ô":{"ha":831,"x_min":0,"x_max":0,"o":"m 714 371 b 698 471 714 406 709 439 b 649 554 687 502 671 530 b 565 611 626 578 599 597 b 447 632 532 625 493 632 b 308 601 395 632 349 622 b 202 521 266 581 231 554 b 135 405 173 488 150 449 b 111 268 119 361 111 315 b 127 167 111 233 116 199 b 176 84 138 135 154 108 b 258 28 197 60 225 42 b 376 7 292 14 331 7 b 515 37 427 7 474 17 b 622 117 557 57 593 84 b 690 234 652 151 675 190 b 714 371 706 278 714 324 m 81 267 b 106 414 81 318 89 367 b 180 539 123 461 148 503 b 297 626 212 575 251 604 b 450 658 342 647 394 658 b 578 636 499 658 542 651 b 670 575 615 621 646 601 b 726 484 695 549 713 519 b 744 372 738 449 744 412 b 719 224 744 320 736 271 b 645 99 702 176 677 135 b 529 13 613 63 575 34 b 376 -19 484 -9 433 -19 b 247 3 327 -19 284 -12 b 155 63 210 18 179 38 b 99 153 130 89 112 119 b 81 267 87 188 81 226 m 658 783 l 631 783 l 536 967 l 369 783 l 336 783 l 517 983 l 557 983 "},"õ":{"ha":831,"x_min":0,"x_max":0,"o":"m 714 371 b 698 471 714 406 709 439 b 649 554 687 502 671 530 b 565 611 626 578 599 597 b 447 632 532 625 493 632 b 308 601 395 632 349 622 b 202 521 266 581 231 554 b 135 405 173 488 150 449 b 111 268 119 361 111 315 b 127 167 111 233 116 199 b 176 84 138 135 154 108 b 258 28 197 60 225 42 b 376 7 292 14 331 7 b 515 37 427 7 474 17 b 622 117 557 57 593 84 b 690 234 652 151 675 190 b 714 371 706 278 714 324 m 81 267 b 106 414 81 318 89 367 b 180 539 123 461 148 503 b 297 626 212 575 251 604 b 450 658 342 647 394 658 b 578 636 499 658 542 651 b 670 575 615 621 646 601 b 726 484 695 549 713 519 b 744 372 738 449 744 412 b 719 224 744 320 736 271 b 645 99 702 176 677 135 b 529 13 613 63 575 34 b 376 -19 484 -9 433 -19 b 247 3 327 -19 284 -12 b 155 63 210 18 179 38 b 99 153 130 89 112 119 b 81 267 87 188 81 226 m 508 886 b 556 858 531 870 547 861 b 586 853 566 854 576 853 b 654 919 617 853 639 875 l 678 919 b 636 848 668 886 654 862 b 582 826 619 834 600 826 b 543 833 567 826 554 829 b 499 860 532 838 517 847 b 452 888 477 875 462 884 b 422 893 442 891 432 893 b 354 822 393 893 370 869 l 331 822 b 372 896 341 856 355 880 b 426 919 390 912 408 919 b 465 913 441 919 454 917 b 508 886 475 908 490 899 "},"ö":{"ha":831,"x_min":0,"x_max":0,"o":"m 714 371 b 698 471 714 406 709 439 b 649 554 687 502 671 530 b 565 611 626 578 599 597 b 447 632 532 625 493 632 b 308 601 395 632 349 622 b 202 521 266 581 231 554 b 135 405 173 488 150 449 b 111 268 119 361 111 315 b 127 167 111 233 116 199 b 176 84 138 135 154 108 b 258 28 197 60 225 42 b 376 7 292 14 331 7 b 515 37 427 7 474 17 b 622 117 557 57 593 84 b 690 234 652 151 675 190 b 714 371 706 278 714 324 m 81 267 b 106 414 81 318 89 367 b 180 539 123 461 148 503 b 297 626 212 575 251 604 b 450 658 342 647 394 658 b 578 636 499 658 542 651 b 670 575 615 621 646 601 b 726 484 695 549 713 519 b 744 372 738 449 744 412 b 719 224 744 320 736 271 b 645 99 702 176 677 135 b 529 13 613 63 575 34 b 376 -19 484 -9 433 -19 b 247 3 327 -19 284 -12 b 155 63 210 18 179 38 b 99 153 130 89 112 119 b 81 267 87 188 81 226 m 406 879 b 385 887 397 879 390 882 b 376 911 379 892 376 900 b 386 938 376 921 380 930 b 411 950 393 946 401 950 b 432 942 419 950 426 947 b 440 919 438 937 440 930 b 430 891 440 908 437 899 b 406 879 423 883 415 879 m 614 879 b 593 887 606 879 599 882 b 585 911 588 892 585 900 b 594 938 585 921 588 930 b 619 950 601 946 609 950 b 640 942 628 950 635 947 b 649 919 646 937 649 930 b 638 891 649 908 645 899 b 614 879 631 883 623 879 "},"÷":{"ha":925,"x_min":0,"x_max":0,"o":"m 513 653 b 497 615 513 638 507 625 b 463 600 487 605 475 600 b 428 615 450 600 438 605 b 414 653 419 625 414 638 b 428 690 414 668 419 680 b 463 706 438 700 450 706 b 497 690 475 706 487 700 b 513 653 507 680 513 668 m 131 435 l 796 435 l 796 407 l 131 407 m 513 189 b 497 151 513 174 507 162 b 463 136 487 141 475 136 b 428 151 450 136 438 141 b 414 189 419 162 414 174 b 428 227 414 205 419 217 b 463 242 437 237 449 242 b 497 226 475 242 487 237 b 513 189 507 216 513 204 "},"ø":{"ha":831,"x_min":0,"x_max":0,"o":"m 167 94 b 250 31 188 68 216 46 b 376 7 284 15 326 7 b 515 37 427 7 474 17 b 622 117 557 57 593 84 b 690 234 652 151 675 190 b 714 371 706 278 714 324 b 702 458 714 401 710 430 b 665 533 694 485 682 510 l 167 94 m 650 553 b 568 610 629 577 601 596 b 447 632 535 625 494 632 b 308 601 395 632 349 622 b 202 521 266 581 231 554 b 135 405 173 488 150 449 b 111 268 119 361 111 315 b 153 115 111 209 125 158 l 650 553 m 689 554 b 731 471 707 529 721 501 b 744 372 740 440 744 407 b 719 224 744 320 736 271 b 645 99 702 176 677 135 b 529 13 613 63 575 34 b 376 -19 484 -9 433 -19 b 239 6 324 -19 278 -11 b 144 75 200 22 169 45 l 46 -11 l 29 7 l 129 94 b 81 267 97 143 81 200 b 106 414 81 318 89 367 b 180 539 123 461 148 503 b 297 626 212 575 251 604 b 450 658 342 647 394 658 b 581 636 500 658 544 651 b 672 574 618 621 648 600 l 768 657 l 783 638 l 689 554 "},"ù":{"ha":786,"x_min":0,"x_max":0,"o":"m 308 -19 b 219 -2 274 -19 244 -14 b 156 44 193 9 172 25 b 118 110 139 63 126 85 b 106 188 110 135 106 161 b 114 260 106 208 108 232 l 181 639 l 211 639 l 143 258 b 138 224 141 248 140 237 b 136 189 137 211 136 199 b 146 123 136 167 139 145 b 176 65 152 101 163 82 b 231 23 190 47 208 34 b 313 7 253 12 280 7 b 412 28 348 7 381 14 b 496 90 443 43 471 63 b 560 188 521 117 542 150 b 600 319 578 227 592 270 l 657 639 l 688 639 l 603 161 b 597 124 601 151 599 138 b 590 78 594 109 592 94 b 585 35 588 63 587 49 b 582 0 583 21 582 9 l 551 0 b 556 35 552 9 554 21 b 561 80 557 49 559 64 b 568 127 563 96 565 112 b 575 168 571 142 573 156 l 572 168 b 460 28 544 106 506 59 b 308 -19 415 -4 364 -19 m 476 783 l 449 783 l 290 983 l 329 983 "},"ú":{"ha":786,"x_min":0,"x_max":0,"o":"m 308 -19 b 219 -2 274 -19 244 -14 b 156 44 193 9 172 25 b 118 110 139 63 126 85 b 106 188 110 135 106 161 b 114 260 106 208 108 232 l 181 639 l 211 639 l 143 258 b 138 224 141 248 140 237 b 136 189 137 211 136 199 b 146 123 136 167 139 145 b 176 65 152 101 163 82 b 231 23 190 47 208 34 b 313 7 253 12 280 7 b 412 28 348 7 381 14 b 496 90 443 43 471 63 b 560 188 521 117 542 150 b 600 319 578 227 592 270 l 657 639 l 688 639 l 603 161 b 597 124 601 151 599 138 b 590 78 594 109 592 94 b 585 35 588 63 587 49 b 582 0 583 21 582 9 l 551 0 b 556 35 552 9 554 21 b 561 80 557 49 559 64 b 568 127 563 96 565 112 b 575 168 571 142 573 156 l 572 168 b 460 28 544 106 506 59 b 308 -19 415 -4 364 -19 m 411 783 l 588 983 l 626 983 l 439 783 "},"û":{"ha":786,"x_min":0,"x_max":0,"o":"m 308 -19 b 219 -2 274 -19 244 -14 b 156 44 193 9 172 25 b 118 110 139 63 126 85 b 106 188 110 135 106 161 b 114 260 106 208 108 232 l 181 639 l 211 639 l 143 258 b 138 224 141 248 140 237 b 136 189 137 211 136 199 b 146 123 136 167 139 145 b 176 65 152 101 163 82 b 231 23 190 47 208 34 b 313 7 253 12 280 7 b 412 28 348 7 381 14 b 496 90 443 43 471 63 b 560 188 521 117 542 150 b 600 319 578 227 592 270 l 657 639 l 688 639 l 603 161 b 597 124 601 151 599 138 b 590 78 594 109 592 94 b 585 35 588 63 587 49 b 582 0 583 21 582 9 l 551 0 b 556 35 552 9 554 21 b 561 80 557 49 559 64 b 568 127 563 96 565 112 b 575 168 571 142 573 156 l 572 168 b 460 28 544 106 506 59 b 308 -19 415 -4 364 -19 m 619 783 l 592 783 l 497 967 l 331 783 l 297 783 l 478 983 l 518 983 "},"ü":{"ha":786,"x_min":0,"x_max":0,"o":"m 308 -19 b 219 -2 274 -19 244 -14 b 156 44 193 9 172 25 b 118 110 139 63 126 85 b 106 188 110 135 106 161 b 114 260 106 208 108 232 l 181 639 l 211 639 l 143 258 b 138 224 141 248 140 237 b 136 189 137 211 136 199 b 146 123 136 167 139 145 b 176 65 152 101 163 82 b 231 23 190 47 208 34 b 313 7 253 12 280 7 b 412 28 348 7 381 14 b 496 90 443 43 471 63 b 560 188 521 117 542 150 b 600 319 578 227 592 270 l 657 639 l 688 639 l 603 161 b 597 124 601 151 599 138 b 590 78 594 109 592 94 b 585 35 588 63 587 49 b 582 0 583 21 582 9 l 551 0 b 556 35 552 9 554 21 b 561 80 557 49 559 64 b 568 127 563 96 565 112 b 575 168 571 142 573 156 l 572 168 b 460 28 544 106 506 59 b 308 -19 415 -4 364 -19 m 367 879 b 346 887 358 879 351 882 b 338 911 340 892 338 900 b 347 938 338 921 341 930 b 372 950 354 946 362 950 b 393 942 381 950 388 947 b 401 919 399 937 401 930 b 391 891 401 908 398 899 b 367 879 384 883 376 879 m 575 879 b 554 887 567 879 560 882 b 546 911 549 892 546 900 b 556 938 546 921 549 930 b 581 950 562 946 570 950 b 601 942 589 950 596 947 b 610 919 607 937 610 930 b 599 891 610 908 606 899 b 575 879 592 883 584 879 "},"ý":{"ha":594,"x_min":0,"x_max":0,"o":"m 154 -211 b 83 -303 133 -251 109 -282 b -17 -336 57 -325 24 -336 b -46 -333 -25 -336 -35 -335 b -72 -326 -57 -331 -66 -329 l -67 -300 b -45 -306 -62 -302 -55 -304 b -17 -308 -35 -307 -26 -308 b 40 -297 5 -308 23 -305 b 82 -269 56 -290 70 -280 b 113 -229 94 -257 104 -244 b 139 -185 122 -214 131 -200 l 229 -18 l 96 639 l 126 639 l 250 17 l 586 639 l 621 639 l 154 -211 m 346 783 l 522 983 l 561 983 l 374 783 "},"þ":{"ha":865,"x_min":0,"x_max":0,"o":"m 203 475 b 250 547 215 501 231 525 b 316 606 269 569 291 589 b 397 644 341 622 368 635 b 492 658 427 654 458 658 b 617 637 540 658 582 651 b 707 577 653 622 683 603 b 761 487 731 552 749 522 b 779 374 773 452 779 414 b 753 225 779 322 771 272 b 681 100 736 178 712 136 b 566 13 649 64 611 35 b 415 -19 521 -9 471 -19 b 242 35 347 -19 289 -1 b 151 178 196 72 165 119 l 147 178 l 57 -333 l 26 -333 l 271 1050 l 301 1050 l 199 475 l 203 475 m 489 632 b 360 601 443 632 400 622 b 258 517 321 580 287 552 b 190 399 230 483 207 443 b 165 261 174 354 165 308 b 183 162 165 226 171 193 b 233 81 194 131 211 104 b 312 27 254 59 281 41 b 415 7 343 14 377 7 b 552 38 465 7 511 17 b 658 119 593 58 628 85 b 725 235 687 153 709 191 b 749 372 741 279 749 325 b 733 474 749 408 743 442 b 684 556 722 505 706 533 b 603 612 662 580 635 598 b 489 632 570 625 532 632 "},"ÿ":{"ha":594,"x_min":0,"x_max":0,"o":"m 154 -211 b 83 -303 133 -251 109 -282 b -17 -336 57 -325 24 -336 b -46 -333 -25 -336 -35 -335 b -72 -326 -57 -331 -66 -329 l -67 -300 b -45 -306 -62 -302 -55 -304 b -17 -308 -35 -307 -26 -308 b 40 -297 5 -308 23 -305 b 82 -269 56 -290 70 -280 b 113 -229 94 -257 104 -244 b 139 -185 122 -214 131 -200 l 229 -18 l 96 639 l 126 639 l 250 17 l 586 639 l 621 639 l 154 -211 m 297 879 b 276 887 289 879 282 882 b 268 911 271 892 268 900 b 278 938 268 921 271 930 b 303 950 284 946 293 950 b 324 942 311 950 318 947 b 332 919 329 937 332 930 b 322 891 332 908 328 899 b 297 879 315 883 306 879 m 506 879 b 485 887 497 879 490 882 b 476 911 479 892 476 900 b 486 938 476 921 480 930 b 511 950 493 946 501 950 b 532 942 519 950 526 947 b 540 919 538 937 540 930 b 530 891 540 908 537 899 b 506 879 523 883 515 879 "},"¤":{"ha":778,"x_min":0,"x_max":0,"o":"m 603 164 b 508 108 576 140 544 121 b 390 88 472 94 433 88 b 272 108 347 88 307 94 b 178 165 236 121 205 140 l 53 42 l 33 63 l 157 186 b 101 282 133 213 114 245 b 81 404 87 319 81 360 b 99 520 81 446 87 484 b 153 614 112 556 130 587 l 33 732 l 54 753 l 172 635 b 268 697 199 662 231 682 b 390 718 305 711 346 718 b 512 697 435 718 475 711 b 607 636 548 682 580 662 l 724 753 l 744 732 l 628 615 b 683 522 652 588 670 557 b 701 404 695 486 701 447 b 681 281 701 360 694 319 b 622 183 667 244 647 211 l 744 63 l 725 42 l 603 164 m 674 404 b 654 517 674 444 667 481 b 598 608 641 552 622 582 b 508 670 573 634 544 655 b 390 693 473 685 434 693 b 272 670 347 693 307 685 b 183 608 237 655 207 634 b 128 517 159 582 141 552 b 108 404 115 481 108 444 b 128 290 108 363 115 325 b 183 197 141 255 159 224 b 272 134 207 170 237 149 b 390 111 307 119 347 111 b 508 134 434 111 473 119 b 598 197 544 149 573 170 b 654 290 622 224 641 255 b 674 404 667 325 674 363 "},"¦":{"ha":308,"x_min":0,"x_max":0,"o":"m 143 938 l 167 938 l 167 478 l 143 478 m 143 217 l 167 217 l 167 -243 l 143 -243 "},"¨":{"ha":333,"x_min":0,"x_max":0,"o":"m 164 879 b 143 887 156 879 149 882 b 135 911 138 892 135 900 b 144 938 135 921 138 930 b 169 950 151 946 159 950 b 190 942 178 950 185 947 b 199 919 196 937 199 930 b 188 891 199 908 195 899 b 164 879 181 883 173 879 m 372 879 b 351 887 364 879 357 882 b 343 911 346 892 343 900 b 353 938 343 921 346 930 b 378 950 359 946 368 950 b 399 942 386 950 393 947 b 407 919 404 937 407 930 b 397 891 407 908 403 899 b 372 879 390 883 381 879 "},"´":{"ha":333,"x_min":0,"x_max":0,"o":"m 172 783 l 349 983 l 388 983 l 200 783 "},"¸":{"ha":333,"x_min":0,"x_max":0,"o":"m 47 -314 b -16 -307 30 -314 9 -312 b -81 -286 -41 -302 -62 -295 l -71 -262 b -12 -281 -55 -270 -36 -276 b 47 -287 11 -285 31 -287 b 154 -260 98 -287 134 -278 b 185 -196 175 -241 185 -220 b 158 -146 185 -172 176 -155 b 100 -132 140 -137 120 -132 b 48 -137 87 -132 70 -134 b -3 -153 26 -141 9 -146 l -15 -140 l 106 0 l 135 0 l 32 -119 b 67 -110 45 -115 57 -112 b 103 -108 78 -109 90 -108 b 142 -112 116 -108 129 -110 b 177 -126 155 -115 166 -120 b 203 -153 188 -133 197 -142 b 214 -193 210 -164 214 -177 b 167 -285 214 -236 198 -266 b 47 -314 135 -304 95 -314 "},"¼":{"ha":1111,"x_min":0,"x_max":0,"o":"m 608 179 l 938 590 l 981 590 l 907 174 l 1000 174 l 996 149 l 903 149 l 876 0 l 849 0 l 875 149 l 603 149 m 947 558 l 943 558 l 635 174 l 879 174 m 157 -22 l 953 1022 l 972 1007 l 176 -37 m 347 953 l 199 864 l 185 886 l 354 983 l 383 983 l 281 400 l 250 400 "},"½":{"ha":1111,"x_min":0,"x_max":0,"o":"m 157 -22 l 953 1022 l 972 1007 l 176 -37 m 347 953 l 199 864 l 185 886 l 354 983 l 383 983 l 281 400 l 250 400 m 961 0 l 611 0 l 615 28 l 867 260 b 972 373 918 306 953 344 b 1000 457 991 402 1000 430 b 965 547 1000 500 988 530 b 882 574 942 565 914 574 b 792 549 850 574 820 566 b 725 469 765 533 743 506 l 699 478 b 776 571 717 521 743 552 b 882 599 810 589 845 599 b 992 564 932 599 969 587 b 1028 463 1016 541 1028 507 b 1020 411 1028 444 1025 427 b 995 363 1015 395 1007 379 b 949 307 984 346 968 327 b 878 238 930 287 906 263 l 649 25 l 965 25 "},"¾":{"ha":1111,"x_min":0,"x_max":0,"o":"m 608 179 l 938 590 l 981 590 l 907 174 l 1000 174 l 996 149 l 903 149 l 876 0 l 849 0 l 875 149 l 603 149 m 947 558 l 943 558 l 635 174 l 879 174 m 157 -22 l 953 1022 l 972 1007 l 176 -37 m 436 558 b 421 485 436 531 431 506 b 381 431 411 463 397 445 b 322 397 364 416 344 405 b 253 386 300 390 277 386 b 147 413 211 386 176 395 b 83 483 117 431 96 455 l 108 493 b 170 430 121 463 142 442 b 251 411 198 417 225 411 b 369 452 301 411 341 425 b 411 560 397 479 411 515 b 370 663 411 607 397 641 b 267 696 343 685 308 696 l 243 696 l 249 721 l 271 721 b 394 760 321 721 362 734 b 442 863 426 786 442 820 b 407 951 442 904 430 934 b 329 976 384 968 358 976 b 261 960 305 976 282 971 b 207 917 240 949 222 934 l 188 935 b 332 1000 228 978 276 1000 b 429 967 371 1000 403 989 b 468 868 455 946 468 913 b 455 802 468 843 464 821 b 421 754 446 783 435 767 b 372 724 407 741 391 731 b 315 710 354 717 335 713 l 315 707 b 403 660 351 700 381 684 b 436 558 425 636 436 602 "},"Ā":{"ha":879,"x_min":0,"x_max":0,"o":"m 721 282 l 165 282 l -14 0 l -51 0 l 581 983 l 626 983 l 801 0 l 771 0 m 182 308 l 717 308 l 600 963 m 472 1168 l 794 1168 l 789 1140 l 467 1140 "},"ā":{"ha":711,"x_min":0,"x_max":0,"o":"m 550 144 b 540 67 545 120 542 95 b 536 0 537 40 536 18 l 507 0 b 513 72 507 19 509 42 b 525 153 516 101 520 128 l 521 153 b 419 26 497 98 463 56 b 267 -19 375 -4 324 -19 b 199 -11 245 -19 223 -17 b 133 16 176 -6 154 3 b 83 67 113 28 96 45 b 63 146 69 88 63 114 b 102 263 63 194 76 233 b 210 333 128 293 164 317 b 368 367 255 350 308 361 b 561 375 428 372 493 375 b 571 428 566 394 569 411 b 574 464 573 444 574 456 b 525 591 574 521 557 564 b 393 632 493 618 449 632 b 287 611 355 632 320 625 b 193 556 254 597 223 579 l 176 579 b 283 638 210 605 245 625 b 394 658 321 652 358 658 b 549 609 461 658 513 642 b 604 468 586 576 604 529 b 601 432 604 458 603 446 b 596 397 600 418 598 406 l 550 144 m 518 349 b 349 340 457 349 400 346 b 214 308 297 334 252 323 b 125 247 176 292 146 272 b 93 150 104 221 93 189 b 110 81 93 122 99 99 b 153 37 122 62 136 47 b 210 14 171 26 190 19 b 271 7 231 9 251 7 b 381 33 313 7 349 16 b 463 101 413 51 441 73 b 517 191 486 128 504 158 b 546 288 531 224 540 256 l 557 349 m 283 890 l 606 890 l 600 863 l 278 863 "},"Ă":{"ha":879,"x_min":0,"x_max":0,"o":"m 721 282 l 165 282 l -14 0 l -51 0 l 581 983 l 626 983 l 801 0 l 771 0 m 182 308 l 717 308 l 600 963 m 808 1247 b 735 1116 794 1189 769 1145 b 608 1072 700 1087 658 1072 b 500 1117 563 1072 527 1087 b 460 1247 473 1147 460 1191 l 483 1247 b 518 1138 483 1199 495 1163 b 610 1100 541 1113 572 1100 b 719 1134 653 1100 690 1111 b 786 1247 748 1157 770 1194 l 808 1247 "},"ă":{"ha":711,"x_min":0,"x_max":0,"o":"m 550 144 b 540 67 545 120 542 95 b 536 0 537 40 536 18 l 507 0 b 513 72 507 19 509 42 b 525 153 516 101 520 128 l 521 153 b 419 26 497 98 463 56 b 267 -19 375 -4 324 -19 b 199 -11 245 -19 223 -17 b 133 16 176 -6 154 3 b 83 67 113 28 96 45 b 63 146 69 88 63 114 b 102 263 63 194 76 233 b 210 333 128 293 164 317 b 368 367 255 350 308 361 b 561 375 428 372 493 375 b 571 428 566 394 569 411 b 574 464 573 444 574 456 b 525 591 574 521 557 564 b 393 632 493 618 449 632 b 287 611 355 632 320 625 b 193 556 254 597 223 579 l 176 579 b 283 638 210 605 245 625 b 394 658 321 652 358 658 b 549 609 461 658 513 642 b 604 468 586 576 604 529 b 601 432 604 458 603 446 b 596 397 600 418 598 406 l 550 144 m 518 349 b 349 340 457 349 400 346 b 214 308 297 334 252 323 b 125 247 176 292 146 272 b 93 150 104 221 93 189 b 110 81 93 122 99 99 b 153 37 122 62 136 47 b 210 14 171 26 190 19 b 271 7 231 9 251 7 b 381 33 313 7 349 16 b 463 101 413 51 441 73 b 517 191 486 128 504 158 b 546 288 531 224 540 256 l 557 349 m 615 969 b 542 838 600 911 576 867 b 415 794 507 809 465 794 b 307 840 370 794 334 809 b 267 969 280 870 267 913 l 290 969 b 325 860 290 921 302 885 b 417 822 348 835 379 822 b 526 856 460 822 497 834 b 593 969 555 879 577 917 l 615 969 "},"Ą":{"ha":879,"x_min":0,"x_max":0,"o":"m 826 -267 b 773 -298 810 -280 792 -290 b 713 -310 754 -306 734 -310 b 637 -288 683 -310 658 -303 b 606 -222 616 -274 606 -252 b 615 -172 606 -205 609 -188 b 644 -121 621 -155 630 -138 b 695 -65 657 -103 674 -85 b 771 0 716 -46 741 -24 l 721 282 l 165 282 l -14 0 l -51 0 l 581 983 l 626 983 l 801 0 l 803 0 b 722 -72 770 -28 744 -52 b 672 -127 701 -93 684 -111 b 645 -172 659 -143 650 -158 b 638 -217 640 -186 638 -201 b 658 -267 638 -238 644 -255 b 714 -285 671 -279 690 -285 b 769 -274 732 -285 751 -281 b 817 -244 788 -266 804 -256 l 826 -267 m 182 308 l 717 308 l 600 963 "},"ą":{"ha":711,"x_min":0,"x_max":0,"o":"m 558 -267 b 505 -298 542 -280 524 -290 b 444 -310 486 -306 466 -310 b 369 -288 415 -310 390 -303 b 338 -222 348 -274 338 -252 b 347 -172 338 -205 341 -188 b 376 -121 353 -155 362 -138 b 427 -65 389 -103 406 -85 b 503 0 448 -46 473 -24 l 507 0 b 513 72 507 19 509 42 b 525 153 516 101 520 128 l 521 153 b 419 26 497 98 463 56 b 267 -19 375 -4 324 -19 b 199 -11 245 -19 223 -17 b 133 16 176 -6 154 3 b 83 67 113 28 96 45 b 63 146 69 88 63 114 b 102 263 63 194 76 233 b 210 333 128 293 164 317 b 368 367 255 350 308 361 b 561 375 428 372 493 375 b 571 428 566 394 569 411 b 574 464 573 444 574 456 b 525 591 574 521 557 564 b 393 632 493 618 449 632 b 287 611 355 632 320 625 b 193 556 254 597 223 579 l 176 579 b 283 638 210 605 245 625 b 394 658 321 652 358 658 b 549 609 461 658 513 642 b 604 468 586 576 604 529 b 601 432 604 458 603 446 b 596 397 600 418 598 406 l 550 144 b 540 67 545 120 542 95 b 536 0 537 40 536 18 l 535 0 b 454 -72 502 -28 475 -52 b 403 -127 433 -93 416 -111 b 377 -172 391 -143 382 -158 b 369 -217 372 -186 369 -201 b 390 -267 369 -238 376 -255 b 446 -285 403 -279 422 -285 b 501 -274 464 -285 483 -281 b 549 -244 520 -266 536 -256 l 558 -267 m 518 349 b 349 340 457 349 400 346 b 214 308 297 334 252 323 b 125 247 176 292 146 272 b 93 150 104 221 93 189 b 110 81 93 122 99 99 b 153 37 122 62 136 47 b 210 14 171 26 190 19 b 271 7 231 9 251 7 b 381 33 313 7 349 16 b 463 101 413 51 441 73 b 517 191 486 128 504 158 b 546 288 531 224 540 256 l 557 349 "},"Ć":{"ha":1006,"x_min":0,"x_max":0,"o":"m 896 100 b 739 3 848 56 795 24 b 563 -28 682 -17 624 -28 b 369 4 488 -28 424 -17 b 232 94 314 25 268 55 b 151 230 196 132 169 178 b 125 400 134 282 125 339 b 168 630 125 480 139 556 b 288 825 197 703 237 769 b 471 960 340 881 400 927 b 701 1011 541 994 618 1011 b 792 1003 732 1011 762 1009 b 878 980 822 998 851 991 b 952 940 905 969 929 956 b 1011 885 975 925 994 906 l 989 863 b 933 916 973 883 954 901 b 862 954 911 931 887 944 b 782 976 836 964 810 972 b 700 983 754 981 727 983 b 483 935 622 983 550 967 b 310 806 417 902 359 859 b 197 621 262 752 224 690 b 156 406 169 551 156 480 b 179 247 156 349 163 296 b 253 119 195 198 219 155 b 379 32 286 82 328 53 b 561 0 430 11 491 0 b 730 31 619 0 675 10 b 882 124 785 51 836 82 l 896 100 m 643 1061 l 819 1261 l 858 1261 l 671 1061 "},"ć":{"ha":650,"x_min":0,"x_max":0,"o":"m 590 64 b 487 -2 561 35 526 13 b 363 -25 447 -17 406 -25 b 236 -3 313 -25 271 -18 b 149 56 201 11 172 31 b 97 146 125 82 108 112 b 81 256 86 180 81 217 b 108 407 81 308 90 359 b 186 535 127 455 153 498 b 305 625 219 573 259 603 b 456 658 351 647 401 658 b 574 638 496 658 536 651 b 664 575 613 624 643 603 l 644 554 b 563 613 624 581 597 601 b 458 632 528 626 494 632 b 319 601 408 632 362 622 b 209 517 277 580 240 552 b 137 399 178 483 154 443 b 111 260 120 354 111 308 b 126 159 111 224 116 190 b 173 78 137 128 152 101 b 251 23 194 55 220 36 b 364 3 283 9 320 3 b 478 24 403 3 441 10 b 575 85 516 39 548 59 l 590 64 m 435 783 l 611 983 l 650 983 l 463 783 "},"Ĉ":{"ha":1006,"x_min":0,"x_max":0,"o":"m 896 100 b 739 3 848 56 795 24 b 563 -28 682 -17 624 -28 b 369 4 488 -28 424 -17 b 232 94 314 25 268 55 b 151 230 196 132 169 178 b 125 400 134 282 125 339 b 168 630 125 480 139 556 b 288 825 197 703 237 769 b 471 960 340 881 400 927 b 701 1011 541 994 618 1011 b 792 1003 732 1011 762 1009 b 878 980 822 998 851 991 b 952 940 905 969 929 956 b 1011 885 975 925 994 906 l 989 863 b 933 916 973 883 954 901 b 862 954 911 931 887 944 b 782 976 836 964 810 972 b 700 983 754 981 727 983 b 483 935 622 983 550 967 b 310 806 417 902 359 859 b 197 621 262 752 224 690 b 156 406 169 551 156 480 b 179 247 156 349 163 296 b 253 119 195 198 219 155 b 379 32 286 82 328 53 b 561 0 430 11 491 0 b 730 31 619 0 675 10 b 882 124 785 51 836 82 l 896 100 m 872 1061 l 844 1061 l 750 1244 l 583 1061 l 550 1061 l 731 1261 l 771 1261 "},"ĉ":{"ha":650,"x_min":0,"x_max":0,"o":"m 590 64 b 487 -2 561 35 526 13 b 363 -25 447 -17 406 -25 b 236 -3 313 -25 271 -18 b 149 56 201 11 172 31 b 97 146 125 82 108 112 b 81 256 86 180 81 217 b 108 407 81 308 90 359 b 186 535 127 455 153 498 b 305 625 219 573 259 603 b 456 658 351 647 401 658 b 574 638 496 658 536 651 b 664 575 613 624 643 603 l 644 554 b 563 613 624 581 597 601 b 458 632 528 626 494 632 b 319 601 408 632 362 622 b 209 517 277 580 240 552 b 137 399 178 483 154 443 b 111 260 120 354 111 308 b 126 159 111 224 116 190 b 173 78 137 128 152 101 b 251 23 194 55 220 36 b 364 3 283 9 320 3 b 478 24 403 3 441 10 b 575 85 516 39 548 59 l 590 64 m 649 783 l 621 783 l 526 967 l 360 783 l 326 783 l 507 983 l 547 983 "},"Ċ":{"ha":1006,"x_min":0,"x_max":0,"o":"m 896 100 b 739 3 848 56 795 24 b 563 -28 682 -17 624 -28 b 369 4 488 -28 424 -17 b 232 94 314 25 268 55 b 151 230 196 132 169 178 b 125 400 134 282 125 339 b 168 630 125 480 139 556 b 288 825 197 703 237 769 b 471 960 340 881 400 927 b 701 1011 541 994 618 1011 b 792 1003 732 1011 762 1009 b 878 980 822 998 851 991 b 952 940 905 969 929 956 b 1011 885 975 925 994 906 l 989 863 b 933 916 973 883 954 901 b 862 954 911 931 887 944 b 782 976 836 964 810 972 b 700 983 754 981 727 983 b 483 935 622 983 550 967 b 310 806 417 902 359 859 b 197 621 262 752 224 690 b 156 406 169 551 156 480 b 179 247 156 349 163 296 b 253 119 195 198 219 155 b 379 32 286 82 328 53 b 561 0 430 11 491 0 b 730 31 619 0 675 10 b 882 124 785 51 836 82 l 896 100 m 747 1157 b 726 1165 739 1157 732 1159 b 718 1189 721 1170 718 1178 b 728 1216 718 1199 721 1208 b 753 1228 734 1224 743 1228 b 774 1220 761 1228 768 1225 b 782 1197 779 1215 782 1207 b 772 1169 782 1186 778 1177 b 747 1157 765 1161 756 1157 "},"ċ":{"ha":650,"x_min":0,"x_max":0,"o":"m 590 64 b 487 -2 561 35 526 13 b 363 -25 447 -17 406 -25 b 236 -3 313 -25 271 -18 b 149 56 201 11 172 31 b 97 146 125 82 108 112 b 81 256 86 180 81 217 b 108 407 81 308 90 359 b 186 535 127 455 153 498 b 305 625 219 573 259 603 b 456 658 351 647 401 658 b 574 638 496 658 536 651 b 664 575 613 624 643 603 l 644 554 b 563 613 624 581 597 601 b 458 632 528 626 494 632 b 319 601 408 632 362 622 b 209 517 277 580 240 552 b 137 399 178 483 154 443 b 111 260 120 354 111 308 b 126 159 111 224 116 190 b 173 78 137 128 152 101 b 251 23 194 55 220 36 b 364 3 283 9 320 3 b 478 24 403 3 441 10 b 575 85 516 39 548 59 l 590 64 m 504 879 b 483 887 496 879 489 882 b 475 911 478 892 475 900 b 485 938 475 921 478 930 b 510 950 491 946 500 950 b 531 942 518 950 525 947 b 539 919 536 937 539 930 b 528 891 539 908 535 899 b 504 879 522 883 513 879 "},"Č":{"ha":1006,"x_min":0,"x_max":0,"o":"m 896 100 b 739 3 848 56 795 24 b 563 -28 682 -17 624 -28 b 369 4 488 -28 424 -17 b 232 94 314 25 268 55 b 151 230 196 132 169 178 b 125 400 134 282 125 339 b 168 630 125 480 139 556 b 288 825 197 703 237 769 b 471 960 340 881 400 927 b 701 1011 541 994 618 1011 b 792 1003 732 1011 762 1009 b 878 980 822 998 851 991 b 952 940 905 969 929 956 b 1011 885 975 925 994 906 l 989 863 b 933 916 973 883 954 901 b 862 954 911 931 887 944 b 782 976 836 964 810 972 b 700 983 754 981 727 983 b 483 935 622 983 550 967 b 310 806 417 902 359 859 b 197 621 262 752 224 690 b 156 406 169 551 156 480 b 179 247 156 349 163 296 b 253 119 195 198 219 155 b 379 32 286 82 328 53 b 561 0 430 11 491 0 b 730 31 619 0 675 10 b 882 124 785 51 836 82 l 896 100 m 585 1261 l 613 1261 l 707 1078 l 874 1261 l 907 1261 l 726 1061 l 686 1061 "},"č":{"ha":650,"x_min":0,"x_max":0,"o":"m 590 64 b 487 -2 561 35 526 13 b 363 -25 447 -17 406 -25 b 236 -3 313 -25 271 -18 b 149 56 201 11 172 31 b 97 146 125 82 108 112 b 81 256 86 180 81 217 b 108 407 81 308 90 359 b 186 535 127 455 153 498 b 305 625 219 573 259 603 b 456 658 351 647 401 658 b 574 638 496 658 536 651 b 664 575 613 624 643 603 l 644 554 b 563 613 624 581 597 601 b 458 632 528 626 494 632 b 319 601 408 632 362 622 b 209 517 277 580 240 552 b 137 399 178 483 154 443 b 111 260 120 354 111 308 b 126 159 111 224 116 190 b 173 78 137 128 152 101 b 251 23 194 55 220 36 b 364 3 283 9 320 3 b 478 24 403 3 441 10 b 575 85 516 39 548 59 l 590 64 m 351 983 l 379 983 l 474 800 l 640 983 l 674 983 l 493 783 l 453 783 "},"Ď":{"ha":1076,"x_min":0,"x_max":0,"o":"m 265 983 l 524 983 b 710 957 590 983 652 975 b 859 878 767 939 817 913 b 958 751 901 844 934 801 b 994 578 982 700 994 643 b 943 316 994 476 977 389 b 805 137 909 243 863 184 b 602 33 747 90 679 56 b 357 0 525 11 443 0 l 92 0 m 129 28 l 356 28 b 590 58 438 28 516 38 b 783 155 663 79 728 111 b 915 324 839 199 883 255 b 964 574 948 393 964 476 b 930 738 964 636 953 691 b 837 858 907 786 876 826 b 696 931 797 890 750 914 b 518 956 641 947 582 956 l 292 956 m 453 1261 l 481 1261 l 575 1078 l 742 1261 l 775 1261 l 594 1061 l 554 1061 "},"ď":{"ha":857,"x_min":0,"x_max":0,"o":"m 368 -19 b 242 2 320 -19 278 -12 b 153 62 207 16 177 36 b 99 152 129 87 111 117 b 81 265 87 187 81 225 b 106 414 81 317 89 367 b 179 539 123 461 148 503 b 294 626 211 575 249 604 b 444 658 339 647 389 658 b 617 603 513 658 571 640 b 708 461 664 567 694 519 l 713 461 l 814 1050 l 844 1050 l 660 0 l 629 0 l 661 164 l 657 164 b 609 92 644 138 628 114 b 544 33 590 69 568 50 b 463 -6 519 17 492 4 b 368 -19 433 -15 401 -19 m 371 7 b 499 38 416 7 459 17 b 601 122 538 59 573 87 b 669 240 630 156 653 196 b 694 378 686 285 694 331 b 677 477 694 413 689 446 b 627 558 666 508 649 535 b 548 612 605 580 579 598 b 444 632 517 625 482 632 b 308 601 394 632 349 622 b 202 520 266 581 231 554 b 135 403 173 486 150 447 b 111 267 119 359 111 314 b 127 165 111 231 116 197 b 175 83 138 134 154 106 b 256 27 196 59 223 41 b 371 7 289 14 327 7 m 869 722 l 992 983 l 1025 983 l 893 722 "},"Đ":{"ha":1076,"x_min":0,"x_max":0,"o":"m 76 525 l 185 525 l 265 983 l 524 983 b 710 957 590 983 652 975 b 859 878 767 939 817 913 b 958 751 901 844 934 801 b 994 578 982 700 994 643 b 943 316 994 476 977 389 b 805 137 909 243 863 184 b 602 33 747 90 679 56 b 357 0 525 11 443 0 l 92 0 l 179 497 l 71 497 m 581 497 l 211 497 l 129 28 l 356 28 b 590 58 438 28 516 38 b 783 155 663 79 728 111 b 915 324 839 199 883 255 b 964 574 948 393 964 476 b 930 738 964 636 953 691 b 837 858 907 786 876 826 b 696 931 797 890 750 914 b 518 956 641 947 582 956 l 292 956 l 217 525 l 586 525 "},"đ":{"ha":857,"x_min":0,"x_max":0,"o":"m 660 0 l 629 0 l 661 164 l 657 164 b 609 92 644 138 628 114 b 544 33 590 69 568 50 b 463 -6 519 17 492 4 b 368 -19 433 -15 401 -19 b 242 2 320 -19 278 -12 b 153 62 207 16 177 36 b 99 152 129 87 111 117 b 81 265 87 187 81 225 b 106 414 81 317 89 367 b 179 539 123 461 148 503 b 294 626 211 575 249 604 b 444 658 339 647 389 658 b 617 603 513 658 571 640 b 708 461 664 567 694 519 l 713 461 l 769 792 l 464 792 l 469 817 l 774 817 l 814 1050 l 844 1050 l 803 817 l 893 817 l 888 792 l 799 792 m 371 7 b 499 38 416 7 459 17 b 601 122 538 59 573 87 b 669 240 630 156 653 196 b 694 378 686 285 694 331 b 677 477 694 413 689 446 b 627 558 666 508 649 535 b 548 612 605 580 579 598 b 444 632 517 625 482 632 b 308 601 394 632 349 622 b 202 520 266 581 231 554 b 135 403 173 486 150 447 b 111 267 119 359 111 314 b 127 165 111 231 116 197 b 175 83 138 134 154 106 b 256 27 196 59 223 41 b 371 7 289 14 327 7 "},"Ē":{"ha":800,"x_min":0,"x_max":0,"o":"m 265 983 l 811 983 l 806 956 l 289 956 l 213 524 l 710 524 l 706 496 l 208 496 l 126 28 l 685 28 l 679 0 l 92 0 m 413 1168 l 735 1168 l 729 1140 l 407 1140 "},"ē":{"ha":768,"x_min":0,"x_max":0,"o":"m 115 326 b 111 278 113 308 111 292 b 181 78 111 192 134 125 b 375 7 227 31 292 7 b 515 40 428 7 474 18 b 619 126 555 63 590 91 l 636 107 b 529 18 609 73 574 43 b 375 -19 485 -7 433 -19 b 249 2 328 -19 286 -12 b 157 62 213 16 182 36 b 100 153 132 87 113 118 b 81 271 87 189 81 228 b 107 416 81 321 89 369 b 182 540 125 463 150 504 b 297 626 214 576 253 605 b 446 658 342 648 391 658 b 558 638 489 658 527 652 b 637 584 590 625 616 607 b 683 504 658 561 673 535 b 697 407 692 474 697 441 b 695 371 697 398 697 386 b 688 326 694 356 691 341 l 115 326 m 664 353 b 668 410 667 373 668 392 b 609 571 668 476 648 530 b 446 632 570 612 515 632 b 315 605 397 632 353 623 b 217 537 277 587 245 564 b 152 447 190 509 168 479 b 119 353 136 414 125 382 l 664 353 m 332 890 l 654 890 l 649 863 l 326 863 "},"Ĕ":{"ha":800,"x_min":0,"x_max":0,"o":"m 265 983 l 811 983 l 806 956 l 289 956 l 213 524 l 710 524 l 706 496 l 208 496 l 126 28 l 685 28 l 679 0 l 92 0 m 749 1247 b 675 1116 734 1189 709 1145 b 549 1072 641 1087 599 1072 b 440 1117 503 1072 467 1087 b 400 1247 413 1147 400 1191 l 424 1247 b 458 1138 424 1199 435 1163 b 550 1100 481 1113 512 1100 b 659 1134 594 1100 630 1111 b 726 1247 688 1157 711 1194 l 749 1247 "},"ĕ":{"ha":768,"x_min":0,"x_max":0,"o":"m 115 326 b 111 278 113 308 111 292 b 181 78 111 192 134 125 b 375 7 227 31 292 7 b 515 40 428 7 474 18 b 619 126 555 63 590 91 l 636 107 b 529 18 609 73 574 43 b 375 -19 485 -7 433 -19 b 249 2 328 -19 286 -12 b 157 62 213 16 182 36 b 100 153 132 87 113 118 b 81 271 87 189 81 228 b 107 416 81 321 89 369 b 182 540 125 463 150 504 b 297 626 214 576 253 605 b 446 658 342 648 391 658 b 558 638 489 658 527 652 b 637 584 590 625 616 607 b 683 504 658 561 673 535 b 697 407 692 474 697 441 b 695 371 697 398 697 386 b 688 326 694 356 691 341 l 115 326 m 664 353 b 668 410 667 373 668 392 b 609 571 668 476 648 530 b 446 632 570 612 515 632 b 315 605 397 632 353 623 b 217 537 277 587 245 564 b 152 447 190 509 168 479 b 119 353 136 414 125 382 l 664 353 m 674 969 b 600 838 659 911 634 867 b 474 794 566 809 524 794 b 365 840 428 794 392 809 b 325 969 338 870 325 913 l 349 969 b 383 860 349 921 360 885 b 475 822 406 835 437 822 b 584 856 519 822 555 834 b 651 969 613 879 636 917 l 674 969 "},"Ė":{"ha":800,"x_min":0,"x_max":0,"o":"m 265 983 l 811 983 l 806 956 l 289 956 l 213 524 l 710 524 l 706 496 l 208 496 l 126 28 l 685 28 l 679 0 l 92 0 m 575 1157 b 554 1165 567 1157 560 1159 b 546 1189 549 1170 546 1178 b 556 1216 546 1199 549 1208 b 581 1228 562 1224 570 1228 b 601 1220 589 1228 596 1225 b 610 1197 607 1215 610 1207 b 599 1169 610 1186 606 1177 b 575 1157 592 1161 584 1157 "},"ė":{"ha":768,"x_min":0,"x_max":0,"o":"m 115 326 b 111 278 113 308 111 292 b 181 78 111 192 134 125 b 375 7 227 31 292 7 b 515 40 428 7 474 18 b 619 126 555 63 590 91 l 636 107 b 529 18 609 73 574 43 b 375 -19 485 -7 433 -19 b 249 2 328 -19 286 -12 b 157 62 213 16 182 36 b 100 153 132 87 113 118 b 81 271 87 189 81 228 b 107 416 81 321 89 369 b 182 540 125 463 150 504 b 297 626 214 576 253 605 b 446 658 342 648 391 658 b 558 638 489 658 527 652 b 637 584 590 625 616 607 b 683 504 658 561 673 535 b 697 407 692 474 697 441 b 695 371 697 398 697 386 b 688 326 694 356 691 341 l 115 326 m 664 353 b 668 410 667 373 668 392 b 609 571 668 476 648 530 b 446 632 570 612 515 632 b 315 605 397 632 353 623 b 217 537 277 587 245 564 b 152 447 190 509 168 479 b 119 353 136 414 125 382 l 664 353 m 488 879 b 467 887 479 879 472 882 b 458 911 461 892 458 900 b 468 938 458 921 462 930 b 493 950 475 946 483 950 b 514 942 501 950 508 947 b 522 919 519 937 522 930 b 512 891 522 908 519 899 b 488 879 505 883 497 879 "},"Ę":{"ha":813,"x_min":0,"x_max":0,"o":"m 685 -267 b 631 -298 668 -280 650 -290 b 571 -310 612 -306 592 -310 b 495 -288 541 -310 516 -303 b 464 -222 474 -274 464 -252 b 473 -172 464 -205 467 -188 b 502 -121 479 -155 489 -138 b 553 -65 516 -103 533 -85 b 629 0 574 -46 600 -24 l 92 0 l 265 983 l 818 983 l 813 956 l 289 956 l 213 524 l 717 524 l 713 496 l 208 496 l 126 28 l 692 28 l 686 0 l 661 0 b 581 -72 629 -28 602 -52 b 530 -127 559 -93 542 -111 b 503 -172 517 -143 509 -158 b 496 -217 498 -186 496 -201 b 516 -267 496 -238 503 -255 b 572 -285 529 -279 548 -285 b 628 -274 591 -285 609 -281 b 675 -244 646 -266 662 -256 l 685 -267 "},"ę":{"ha":768,"x_min":0,"x_max":0,"o":"m 456 -267 b 402 -298 439 -280 421 -290 b 342 -310 383 -306 363 -310 b 266 -288 312 -310 287 -303 b 235 -222 245 -274 235 -252 b 267 -127 235 -189 246 -157 b 375 -19 289 -97 325 -61 b 249 2 328 -19 286 -12 b 157 62 213 16 182 36 b 100 153 132 87 113 118 b 81 271 87 189 81 228 b 107 416 81 321 89 369 b 182 540 125 463 150 504 b 297 626 214 576 253 605 b 446 658 342 648 391 658 b 558 638 489 658 527 652 b 637 584 590 625 616 607 b 683 504 658 561 673 535 b 697 407 692 474 697 441 b 695 371 697 398 697 386 b 688 326 694 356 691 341 l 115 326 b 111 278 113 308 111 292 b 181 78 111 192 134 125 b 375 7 227 31 292 7 b 515 40 428 7 474 18 b 619 126 555 63 590 91 l 636 107 b 543 26 612 76 581 49 b 411 -18 505 2 461 -12 b 342 -83 383 -43 360 -65 b 297 -132 323 -101 308 -117 b 274 -174 286 -147 278 -161 b 267 -217 269 -188 267 -202 b 287 -267 267 -238 273 -255 b 343 -285 300 -279 319 -285 b 399 -274 362 -285 380 -281 b 446 -244 417 -266 433 -256 l 456 -267 m 664 353 b 668 410 667 373 668 392 b 609 571 668 476 648 530 b 446 632 570 612 515 632 b 315 605 397 632 353 623 b 217 537 277 587 245 564 b 152 447 190 509 168 479 b 119 353 136 414 125 382 l 664 353 "},"Ě":{"ha":800,"x_min":0,"x_max":0,"o":"m 265 983 l 811 983 l 806 956 l 289 956 l 213 524 l 710 524 l 706 496 l 208 496 l 126 28 l 685 28 l 679 0 l 92 0 m 433 1261 l 461 1261 l 556 1078 l 722 1261 l 756 1261 l 575 1061 l 535 1061 "},"ě":{"ha":768,"x_min":0,"x_max":0,"o":"m 115 326 b 111 278 113 308 111 292 b 181 78 111 192 134 125 b 375 7 227 31 292 7 b 515 40 428 7 474 18 b 619 126 555 63 590 91 l 636 107 b 529 18 609 73 574 43 b 375 -19 485 -7 433 -19 b 249 2 328 -19 286 -12 b 157 62 213 16 182 36 b 100 153 132 87 113 118 b 81 271 87 189 81 228 b 107 416 81 321 89 369 b 182 540 125 463 150 504 b 297 626 214 576 253 605 b 446 658 342 648 391 658 b 558 638 489 658 527 652 b 637 584 590 625 616 607 b 683 504 658 561 673 535 b 697 407 692 474 697 441 b 695 371 697 398 697 386 b 688 326 694 356 691 341 l 115 326 m 664 353 b 668 410 667 373 668 392 b 609 571 668 476 648 530 b 446 632 570 612 515 632 b 315 605 397 632 353 623 b 217 537 277 587 245 564 b 152 447 190 509 168 479 b 119 353 136 414 125 382 l 664 353 m 347 983 l 375 983 l 469 800 l 636 983 l 669 983 l 489 783 l 449 783 "},"Ĝ":{"ha":1069,"x_min":0,"x_max":0,"o":"m 558 -28 b 365 4 484 -28 420 -17 b 230 93 311 25 266 55 b 151 228 194 131 168 176 b 125 400 134 281 125 338 b 168 630 125 480 139 556 b 288 825 197 703 237 769 b 471 960 340 881 400 927 b 701 1011 541 994 618 1011 b 792 1003 732 1011 762 1009 b 878 980 822 998 851 991 b 952 940 905 969 929 956 b 1011 885 975 925 994 906 l 989 863 b 933 916 973 883 954 901 b 862 954 911 931 887 944 b 782 976 836 964 810 972 b 700 983 754 981 727 983 b 483 935 622 983 550 967 b 310 806 417 902 359 859 b 197 621 262 752 224 690 b 156 406 169 551 156 480 b 179 247 156 349 163 296 b 251 119 195 198 219 155 b 376 32 284 82 325 53 b 558 0 427 11 488 0 b 731 21 619 0 677 7 b 867 74 785 35 831 52 l 935 460 l 679 460 l 685 486 l 969 486 l 893 57 b 747 -3 855 33 806 13 b 558 -28 688 -20 625 -28 m 875 1061 l 847 1061 l 753 1244 l 586 1061 l 553 1061 l 733 1261 l 774 1261 "},"ĝ":{"ha":857,"x_min":0,"x_max":0,"o":"m 658 164 b 610 92 645 138 629 114 b 545 33 591 69 570 50 b 464 -6 521 17 494 4 b 369 -19 434 -15 403 -19 b 244 2 321 -19 279 -12 b 154 62 208 16 178 36 b 100 152 130 87 112 117 b 82 265 88 187 82 225 b 108 414 82 317 91 367 b 181 539 125 461 149 503 b 295 626 212 575 250 604 b 446 658 340 647 390 658 b 619 603 514 658 572 640 b 710 461 666 567 696 519 l 714 461 l 744 639 l 774 639 l 668 35 b 631 -110 659 -16 646 -65 b 565 -232 615 -156 593 -197 b 461 -316 538 -267 503 -295 b 308 -347 419 -337 369 -347 b 151 -316 248 -347 196 -337 b 39 -228 106 -295 69 -266 l 60 -207 b 170 -294 90 -247 127 -276 b 308 -321 213 -312 259 -321 b 451 -291 365 -321 412 -311 b 546 -211 489 -271 521 -244 b 605 -97 571 -178 591 -140 b 639 38 619 -53 631 -9 l 663 164 l 658 164 m 372 7 b 500 38 418 7 460 17 b 603 122 540 59 574 87 b 671 240 631 156 654 196 b 696 378 688 285 696 331 b 678 477 696 413 690 446 b 628 558 667 508 650 535 b 549 612 607 580 580 598 b 446 632 518 625 484 632 b 309 601 396 632 350 622 b 203 520 268 581 233 554 b 136 403 174 486 152 447 b 113 267 120 359 113 314 b 128 165 113 231 118 197 b 176 83 139 134 155 106 b 258 27 198 59 225 41 b 372 7 291 14 329 7 m 665 783 l 638 783 l 543 967 l 376 783 l 343 783 l 524 983 l 564 983 "},"Ğ":{"ha":1069,"x_min":0,"x_max":0,"o":"m 558 -28 b 365 4 484 -28 420 -17 b 230 93 311 25 266 55 b 151 228 194 131 168 176 b 125 400 134 281 125 338 b 168 630 125 480 139 556 b 288 825 197 703 237 769 b 471 960 340 881 400 927 b 701 1011 541 994 618 1011 b 792 1003 732 1011 762 1009 b 878 980 822 998 851 991 b 952 940 905 969 929 956 b 1011 885 975 925 994 906 l 989 863 b 933 916 973 883 954 901 b 862 954 911 931 887 944 b 782 976 836 964 810 972 b 700 983 754 981 727 983 b 483 935 622 983 550 967 b 310 806 417 902 359 859 b 197 621 262 752 224 690 b 156 406 169 551 156 480 b 179 247 156 349 163 296 b 251 119 195 198 219 155 b 376 32 284 82 325 53 b 558 0 427 11 488 0 b 731 21 619 0 677 7 b 867 74 785 35 831 52 l 935 460 l 679 460 l 685 486 l 969 486 l 893 57 b 747 -3 855 33 806 13 b 558 -28 688 -20 625 -28 m 917 1247 b 843 1116 902 1189 877 1145 b 717 1072 809 1087 767 1072 b 608 1117 671 1072 635 1087 b 568 1247 581 1147 568 1191 l 592 1247 b 626 1138 592 1199 603 1163 b 718 1100 650 1113 680 1100 b 827 1134 762 1100 798 1111 b 894 1247 856 1157 879 1194 l 917 1247 "},"ğ":{"ha":857,"x_min":0,"x_max":0,"o":"m 658 164 b 610 92 645 138 629 114 b 545 33 591 69 570 50 b 464 -6 521 17 494 4 b 369 -19 434 -15 403 -19 b 244 2 321 -19 279 -12 b 154 62 208 16 178 36 b 100 152 130 87 112 117 b 82 265 88 187 82 225 b 108 414 82 317 91 367 b 181 539 125 461 149 503 b 295 626 212 575 250 604 b 446 658 340 647 390 658 b 619 603 514 658 572 640 b 710 461 666 567 696 519 l 714 461 l 744 639 l 774 639 l 668 35 b 631 -110 659 -16 646 -65 b 565 -232 615 -156 593 -197 b 461 -316 538 -267 503 -295 b 308 -347 419 -337 369 -347 b 151 -316 248 -347 196 -337 b 39 -228 106 -295 69 -266 l 60 -207 b 170 -294 90 -247 127 -276 b 308 -321 213 -312 259 -321 b 451 -291 365 -321 412 -311 b 546 -211 489 -271 521 -244 b 605 -97 571 -178 591 -140 b 639 38 619 -53 631 -9 l 663 164 l 658 164 m 372 7 b 500 38 418 7 460 17 b 603 122 540 59 574 87 b 671 240 631 156 654 196 b 696 378 688 285 696 331 b 678 477 696 413 690 446 b 628 558 667 508 650 535 b 549 612 607 580 580 598 b 446 632 518 625 484 632 b 309 601 396 632 350 622 b 203 520 268 581 233 554 b 136 403 174 486 152 447 b 113 267 120 359 113 314 b 128 165 113 231 118 197 b 176 83 139 134 155 106 b 258 27 198 59 225 41 b 372 7 291 14 329 7 m 696 969 b 622 838 681 911 656 867 b 496 794 588 809 546 794 b 388 840 450 794 414 809 b 347 969 361 870 347 913 l 371 969 b 406 860 371 921 382 885 b 497 822 429 835 459 822 b 606 856 541 822 577 834 b 674 969 635 879 658 917 l 696 969 "},"Ġ":{"ha":1069,"x_min":0,"x_max":0,"o":"m 558 -28 b 365 4 484 -28 420 -17 b 230 93 311 25 266 55 b 151 228 194 131 168 176 b 125 400 134 281 125 338 b 168 630 125 480 139 556 b 288 825 197 703 237 769 b 471 960 340 881 400 927 b 701 1011 541 994 618 1011 b 792 1003 732 1011 762 1009 b 878 980 822 998 851 991 b 952 940 905 969 929 956 b 1011 885 975 925 994 906 l 989 863 b 933 916 973 883 954 901 b 862 954 911 931 887 944 b 782 976 836 964 810 972 b 700 983 754 981 727 983 b 483 935 622 983 550 967 b 310 806 417 902 359 859 b 197 621 262 752 224 690 b 156 406 169 551 156 480 b 179 247 156 349 163 296 b 251 119 195 198 219 155 b 376 32 284 82 325 53 b 558 0 427 11 488 0 b 731 21 619 0 677 7 b 867 74 785 35 831 52 l 935 460 l 679 460 l 685 486 l 969 486 l 893 57 b 747 -3 855 33 806 13 b 558 -28 688 -20 625 -28 m 738 1157 b 717 1165 729 1157 722 1159 b 708 1189 711 1170 708 1178 b 718 1216 708 1199 712 1208 b 743 1228 725 1224 733 1228 b 764 1220 751 1228 758 1225 b 772 1197 769 1215 772 1207 b 762 1169 772 1186 769 1177 b 738 1157 755 1161 747 1157 "},"ġ":{"ha":857,"x_min":0,"x_max":0,"o":"m 658 164 b 610 92 645 138 629 114 b 545 33 591 69 570 50 b 464 -6 521 17 494 4 b 369 -19 434 -15 403 -19 b 244 2 321 -19 279 -12 b 154 62 208 16 178 36 b 100 152 130 87 112 117 b 82 265 88 187 82 225 b 108 414 82 317 91 367 b 181 539 125 461 149 503 b 295 626 212 575 250 604 b 446 658 340 647 390 658 b 619 603 514 658 572 640 b 710 461 666 567 696 519 l 714 461 l 744 639 l 774 639 l 668 35 b 631 -110 659 -16 646 -65 b 565 -232 615 -156 593 -197 b 461 -316 538 -267 503 -295 b 308 -347 419 -337 369 -347 b 151 -316 248 -347 196 -337 b 39 -228 106 -295 69 -266 l 60 -207 b 170 -294 90 -247 127 -276 b 308 -321 213 -312 259 -321 b 451 -291 365 -321 412 -311 b 546 -211 489 -271 521 -244 b 605 -97 571 -178 591 -140 b 639 38 619 -53 631 -9 l 663 164 l 658 164 m 372 7 b 500 38 418 7 460 17 b 603 122 540 59 574 87 b 671 240 631 156 654 196 b 696 378 688 285 696 331 b 678 477 696 413 690 446 b 628 558 667 508 650 535 b 549 612 607 580 580 598 b 446 632 518 625 484 632 b 309 601 396 632 350 622 b 203 520 268 581 233 554 b 136 403 174 486 152 447 b 113 267 120 359 113 314 b 128 165 113 231 118 197 b 176 83 139 134 155 106 b 258 27 198 59 225 41 b 372 7 291 14 329 7 m 510 879 b 489 887 501 879 494 882 b 481 911 483 892 481 900 b 490 938 481 921 484 930 b 515 950 497 946 505 950 b 536 942 524 950 531 947 b 544 919 542 937 544 930 b 534 891 544 908 541 899 b 510 879 527 883 519 879 "},"Ģ":{"ha":1069,"x_min":0,"x_max":0,"o":"m 558 -28 b 365 4 484 -28 420 -17 b 230 93 311 25 266 55 b 151 228 194 131 168 176 b 125 400 134 281 125 338 b 168 630 125 480 139 556 b 288 825 197 703 237 769 b 471 960 340 881 400 927 b 701 1011 541 994 618 1011 b 792 1003 732 1011 762 1009 b 878 980 822 998 851 991 b 952 940 905 969 929 956 b 1011 885 975 925 994 906 l 989 863 b 933 916 973 883 954 901 b 862 954 911 931 887 944 b 782 976 836 964 810 972 b 700 983 754 981 727 983 b 483 935 622 983 550 967 b 310 806 417 902 359 859 b 197 621 262 752 224 690 b 156 406 169 551 156 480 b 179 247 156 349 163 296 b 251 119 195 198 219 155 b 376 32 284 82 325 53 b 558 0 427 11 488 0 b 731 21 619 0 677 7 b 867 74 785 35 831 52 l 935 460 l 679 460 l 685 486 l 969 486 l 893 57 b 747 -3 855 33 806 13 b 558 -28 688 -20 625 -28 m 428 -324 l 550 -62 l 583 -62 l 451 -324 "},"ģ":{"ha":857,"x_min":0,"x_max":0,"o":"m 658 164 b 610 92 645 138 629 114 b 545 33 591 69 570 50 b 464 -6 521 17 494 4 b 369 -19 434 -15 403 -19 b 244 2 321 -19 279 -12 b 154 62 208 16 178 36 b 100 152 130 87 112 117 b 82 265 88 187 82 225 b 108 414 82 317 91 367 b 181 539 125 461 149 503 b 295 626 212 575 250 604 b 446 658 340 647 390 658 b 619 603 514 658 572 640 b 710 461 666 567 696 519 l 714 461 l 744 639 l 774 639 l 668 35 b 631 -110 659 -16 646 -65 b 565 -232 615 -156 593 -197 b 461 -316 538 -267 503 -295 b 308 -347 419 -337 369 -347 b 151 -316 248 -347 196 -337 b 39 -228 106 -295 69 -266 l 60 -207 b 170 -294 90 -247 127 -276 b 308 -321 213 -312 259 -321 b 451 -291 365 -321 412 -311 b 546 -211 489 -271 521 -244 b 605 -97 571 -178 591 -140 b 639 38 619 -53 631 -9 l 663 164 l 658 164 m 372 7 b 500 38 418 7 460 17 b 603 122 540 59 574 87 b 671 240 631 156 654 196 b 696 378 688 285 696 331 b 678 477 696 413 690 446 b 628 558 667 508 650 535 b 549 612 607 580 580 598 b 446 632 518 625 484 632 b 309 601 396 632 350 622 b 203 520 268 581 233 554 b 136 403 174 486 152 447 b 113 267 120 359 113 314 b 128 165 113 231 118 197 b 176 83 139 134 155 106 b 258 27 198 59 225 41 b 372 7 291 14 329 7 m 608 1044 l 486 783 l 453 783 l 585 1044 "},"Ĥ":{"ha":1000,"x_min":0,"x_max":0,"o":"m 854 494 l 210 494 l 122 0 l 92 0 l 265 983 l 296 983 l 214 522 l 858 522 l 940 983 l 971 983 l 797 0 l 767 0 m 789 1061 l 761 1061 l 667 1244 l 500 1061 l 467 1061 l 647 1261 l 688 1261 "},"ĥ":{"ha":786,"x_min":0,"x_max":0,"o":"m 203 471 b 313 611 231 533 267 580 b 465 658 359 643 410 658 b 555 641 500 658 529 653 b 618 595 580 629 601 614 b 656 529 635 576 647 554 b 668 451 664 504 668 478 b 660 379 668 431 665 407 l 593 0 l 563 0 l 631 381 b 635 415 632 391 634 402 b 638 450 637 428 638 440 b 628 516 638 472 634 494 b 597 574 621 538 611 557 b 543 616 583 591 565 605 b 461 632 521 627 494 632 b 362 610 426 632 393 625 b 278 549 331 596 303 575 b 213 451 253 522 231 489 b 174 319 195 412 182 369 l 117 0 l 86 0 l 271 1050 l 301 1050 l 200 471 l 203 471 m 674 1106 l 646 1106 l 551 1289 l 385 1106 l 351 1106 l 532 1306 l 572 1306 "},"Ħ":{"ha":1000,"x_min":0,"x_max":0,"o":"m 854 494 l 210 494 l 122 0 l 92 0 l 265 983 l 296 983 l 249 719 l 893 719 l 940 983 l 971 983 l 797 0 l 767 0 m 889 694 l 244 694 l 214 522 l 858 522 "},"ħ":{"ha":786,"x_min":0,"x_max":0,"o":"m 203 471 b 313 611 231 533 267 580 b 465 658 359 643 410 658 b 555 641 500 658 529 653 b 618 595 580 629 601 614 b 656 529 635 576 647 554 b 668 451 664 504 668 478 b 660 379 668 431 665 407 l 593 0 l 563 0 l 631 381 b 635 415 632 391 634 402 b 638 450 637 428 638 440 b 628 516 638 472 634 494 b 597 574 621 538 611 557 b 543 616 583 591 565 605 b 461 632 521 627 494 632 b 362 610 426 632 393 625 b 278 549 331 596 303 575 b 213 451 253 522 231 489 b 174 319 195 412 182 369 l 117 0 l 86 0 l 225 792 l 136 792 l 142 817 l 229 817 l 271 1050 l 301 1050 l 260 817 l 565 817 l 560 792 l 256 792 l 200 471 l 203 471 "},"Ĩ":{"ha":325,"x_min":0,"x_max":0,"o":"m 265 983 l 296 983 l 122 0 l 92 0 m 311 1164 b 359 1135 333 1148 349 1139 b 389 1131 369 1132 379 1131 b 457 1197 419 1131 442 1153 l 481 1197 b 439 1126 470 1164 456 1140 b 385 1104 421 1111 403 1104 b 346 1111 370 1104 357 1106 b 301 1138 335 1116 320 1125 b 255 1165 280 1152 265 1162 b 225 1171 245 1169 235 1171 b 157 1100 195 1171 173 1147 l 133 1100 b 175 1174 144 1133 157 1158 b 229 1197 193 1189 211 1197 b 267 1190 244 1197 257 1195 b 311 1164 278 1186 293 1177 "},"ĩ":{"ha":314,"x_min":0,"x_max":0,"o":"m 199 639 l 229 639 l 117 0 l 86 0 m 254 886 b 302 858 276 870 292 861 b 332 853 312 854 322 853 b 400 919 363 853 385 875 l 424 919 b 382 848 413 886 400 862 b 328 826 364 834 346 826 b 289 833 313 826 300 829 b 244 860 278 838 263 847 b 198 888 223 875 208 884 b 168 893 188 891 178 893 b 100 822 138 893 116 869 l 76 822 b 118 896 87 856 100 880 b 172 919 136 912 154 919 b 210 913 187 919 200 917 b 254 886 221 908 236 899 "},"Ī":{"ha":325,"x_min":0,"x_max":0,"o":"m 265 983 l 296 983 l 122 0 l 92 0 m 146 1168 l 468 1168 l 463 1140 l 140 1140 "},"ī":{"ha":314,"x_min":0,"x_max":0,"o":"m 199 639 l 229 639 l 117 0 l 86 0 m 92 890 l 414 890 l 408 863 l 86 863 "},"Į":{"ha":325,"x_min":0,"x_max":0,"o":"m 146 -267 b 92 -298 129 -280 111 -290 b 32 -310 73 -306 53 -310 b -44 -288 2 -310 -23 -303 b -75 -222 -65 -274 -75 -252 b -66 -171 -75 -205 -72 -187 b -37 -119 -60 -154 -50 -137 b 15 -64 -23 -102 -6 -83 b 90 1 35 -44 61 -23 l 92 1 l 265 983 l 296 983 l 122 1 l 122 0 l 121 0 b 41 -72 88 -28 62 -52 b -9 -127 20 -93 3 -111 b -35 -172 -22 -143 -30 -158 b -43 -217 -41 -186 -43 -201 b -23 -267 -43 -238 -36 -255 b 33 -285 -9 -279 9 -285 b 89 -274 52 -285 70 -281 b 136 -244 107 -266 123 -256 l 146 -267 "},"į":{"ha":314,"x_min":0,"x_max":0,"o":"m 139 -267 b 85 -298 122 -280 104 -290 b 25 -310 66 -306 46 -310 b -51 -288 -5 -310 -30 -303 b -82 -222 -72 -274 -82 -252 b -73 -172 -82 -205 -79 -188 b -44 -121 -67 -155 -57 -138 b 8 -65 -30 -103 -13 -85 b 83 0 28 -46 54 -24 l 86 0 l 199 639 l 229 639 l 117 0 l 115 0 b 35 -72 83 -28 56 -52 b -16 -127 13 -93 -3 -111 b -42 -172 -28 -143 -37 -158 b -50 -217 -47 -186 -50 -201 b -30 -267 -50 -238 -43 -255 b 26 -285 -16 -279 2 -285 b 82 -274 45 -285 63 -281 b 129 -244 100 -266 116 -256 l 139 -267 m 251 879 b 231 887 243 879 236 882 b 222 911 225 892 222 900 b 232 938 222 921 225 930 b 257 950 238 946 247 950 b 278 942 265 950 272 947 b 286 919 283 937 286 930 b 276 891 286 908 283 899 b 251 879 269 883 261 879 "},"İ":{"ha":325,"x_min":0,"x_max":0,"o":"m 265 983 l 296 983 l 122 0 l 92 0 m 308 1157 b 288 1165 300 1157 293 1159 b 279 1189 282 1170 279 1178 b 289 1216 279 1199 282 1208 b 314 1228 295 1224 304 1228 b 335 1220 322 1228 329 1225 b 343 1197 340 1215 343 1207 b 333 1169 343 1186 340 1177 b 308 1157 326 1161 318 1157 "},"ı":{"ha":314,"x_min":0,"x_max":0,"o":"m 199 639 l 229 639 l 117 0 l 86 0 "},"Ĳ":{"ha":1001,"x_min":0,"x_max":0,"o":"m 265 983 l 296 983 l 122 0 l 92 0 m 851 268 b 817 146 843 223 831 182 b 759 53 802 110 783 79 b 674 -5 735 28 707 9 b 560 -25 641 -18 603 -25 b 416 20 501 -25 453 -10 b 343 129 378 50 354 87 l 371 142 b 440 41 383 100 406 66 b 563 3 475 16 515 3 b 666 22 602 3 637 9 b 741 77 695 35 720 53 b 792 163 762 101 779 129 b 822 272 805 196 815 232 l 947 983 l 978 983 l 851 268 "},"ĳ":{"ha":626,"x_min":0,"x_max":0,"o":"m 199 639 l 229 639 l 117 0 l 86 0 m 251 879 b 231 887 243 879 236 882 b 222 911 225 892 222 900 b 232 938 222 921 225 930 b 257 950 238 946 247 950 b 278 942 265 950 272 947 b 286 919 283 937 286 930 b 276 891 286 908 283 899 b 251 879 269 883 261 879 m 406 -135 b 387 -210 401 -161 395 -186 b 354 -274 379 -234 368 -255 b 301 -318 340 -292 323 -307 b 222 -335 280 -329 254 -335 b 201 -334 216 -335 209 -334 b 182 -331 194 -334 188 -332 l 185 -304 b 219 -308 197 -307 208 -308 b 292 -293 249 -308 273 -303 b 336 -253 310 -283 325 -270 b 361 -199 347 -237 356 -219 b 375 -137 367 -178 371 -158 l 511 639 l 542 639 l 406 -135 m 564 879 b 543 887 556 879 549 882 b 535 911 538 892 535 900 b 544 938 535 921 538 930 b 569 950 551 946 559 950 b 590 942 578 950 585 947 b 599 919 596 937 599 930 b 588 891 599 908 595 899 b 564 879 581 883 573 879 "},"Ĵ":{"ha":667,"x_min":0,"x_max":0,"o":"m 517 268 b 482 146 508 223 497 182 b 424 53 467 110 448 79 b 340 -5 401 28 372 9 b 225 -25 307 -18 269 -25 b 81 20 167 -25 119 -10 b 8 129 44 50 19 87 l 36 142 b 106 41 48 100 71 66 b 228 3 140 16 181 3 b 331 22 268 3 302 9 b 406 77 360 35 385 53 b 457 163 427 101 444 129 b 488 272 470 196 480 232 l 613 983 l 643 983 l 517 268 m 800 1061 l 772 1061 l 678 1244 l 511 1061 l 478 1061 l 658 1261 l 699 1261 "},"ĵ":{"ha":314,"x_min":0,"x_max":0,"o":"m 93 -135 b 74 -210 88 -161 82 -186 b 42 -274 66 -234 56 -255 b -11 -318 28 -292 10 -307 b -90 -335 -32 -329 -59 -335 b -111 -334 -97 -335 -104 -334 b -131 -331 -119 -334 -125 -332 l -128 -304 b -93 -308 -116 -307 -104 -308 b -21 -293 -63 -308 -39 -303 b 24 -253 -2 -283 13 -270 b 49 -199 35 -237 43 -219 b 63 -137 54 -178 59 -158 l 199 639 l 229 639 l 93 -135 m 390 783 l 363 783 l 268 967 l 101 783 l 68 783 l 249 983 l 289 983 "},"Ķ":{"ha":735,"x_min":0,"x_max":0,"o":"m 765 983 l 810 983 l 256 529 l 683 0 l 644 0 l 217 529 l 215 529 l 122 0 l 92 0 l 265 983 l 296 983 l 217 535 l 218 535 m 231 -324 l 353 -62 l 386 -62 l 254 -324 "},"ķ":{"ha":606,"x_min":0,"x_max":0,"o":"m 558 639 l 606 639 l 217 340 l 531 0 l 488 0 l 179 338 l 176 338 l 117 0 l 86 0 l 271 1050 l 301 1050 l 178 346 l 181 346 m 164 -324 l 286 -62 l 319 -62 l 188 -324 "},"Ĺ":{"ha":692,"x_min":0,"x_max":0,"o":"m 265 983 l 296 983 l 128 28 l 617 28 l 611 0 l 92 0 m 276 1061 l 453 1261 l 492 1261 l 304 1061 "},"ĺ":{"ha":314,"x_min":0,"x_max":0,"o":"m 271 1050 l 301 1050 l 117 0 l 86 0 m 275 1100 l 451 1300 l 490 1300 l 303 1100 "},"Ļ":{"ha":692,"x_min":0,"x_max":0,"o":"m 265 983 l 296 983 l 128 28 l 617 28 l 611 0 l 92 0 m 224 -324 l 346 -62 l 379 -62 l 247 -324 "},"ļ":{"ha":314,"x_min":0,"x_max":0,"o":"m 271 1050 l 301 1050 l 117 0 l 86 0 m -11 -325 l 111 -64 l 144 -64 l 13 -325 "},"Ľ":{"ha":692,"x_min":0,"x_max":0,"o":"m 265 983 l 296 983 l 128 28 l 617 28 l 611 0 l 92 0 m 411 722 l 533 983 l 567 983 l 435 722 "},"ľ":{"ha":314,"x_min":0,"x_max":0,"o":"m 271 1050 l 301 1050 l 117 0 l 86 0 m 343 722 l 465 983 l 499 983 l 367 722 "},"Ŀ":{"ha":692,"x_min":0,"x_max":0,"o":"m 265 983 l 296 983 l 128 28 l 617 28 l 611 0 l 92 0 m 513 379 b 492 387 504 379 497 382 b 483 411 486 392 483 400 b 493 438 483 421 487 430 b 518 450 500 446 508 450 b 539 442 526 450 533 447 b 547 419 544 437 547 430 b 537 391 547 408 544 399 b 513 379 530 383 522 379 "},"ŀ":{"ha":314,"x_min":0,"x_max":0,"o":"m 271 1050 l 301 1050 l 117 0 l 86 0 m 321 379 b 300 387 313 379 306 382 b 292 411 294 392 292 400 b 301 438 292 421 295 430 b 326 450 308 446 316 450 b 347 442 335 450 342 447 b 356 419 353 437 356 430 b 345 391 356 408 352 399 b 321 379 338 383 330 379 "},"Ł":{"ha":692,"x_min":0,"x_max":0,"o":"m 57 313 l 161 396 l 265 983 l 296 983 l 196 419 l 529 678 l 524 644 l 189 382 l 128 28 l 617 28 l 611 0 l 92 0 l 154 358 l 50 275 "},"ł":{"ha":314,"x_min":0,"x_max":0,"o":"m 82 457 l 188 540 l 276 1050 l 307 1050 l 222 564 l 339 651 l 332 618 l 215 526 l 122 0 l 92 0 l 181 503 l 75 419 "},"Ń":{"ha":1040,"x_min":0,"x_max":0,"o":"m 293 949 l 289 949 l 122 0 l 92 0 l 265 983 l 308 983 l 810 36 l 814 36 l 981 983 l 1011 983 l 838 0 l 793 0 m 604 1061 l 781 1261 l 819 1261 l 632 1061 "},"ń":{"ha":786,"x_min":0,"x_max":0,"o":"m 465 658 b 555 641 500 658 529 653 b 618 595 580 629 601 614 b 656 529 635 576 647 554 b 668 451 664 504 668 478 b 660 379 668 431 665 407 l 593 0 l 563 0 l 631 381 b 635 415 632 391 634 402 b 638 450 637 428 638 440 b 628 516 638 472 634 494 b 597 574 621 538 611 557 b 543 616 583 591 565 605 b 461 632 521 627 494 632 b 362 610 426 632 393 625 b 278 549 331 596 303 575 b 213 451 253 522 231 489 b 174 319 195 412 182 369 l 117 0 l 86 0 l 171 478 b 177 515 173 488 175 500 b 183 560 179 530 181 545 b 189 604 185 576 187 590 b 192 639 191 618 192 630 l 222 639 b 218 604 221 630 220 618 b 213 559 216 590 214 575 b 206 512 211 543 208 527 b 199 471 203 497 200 483 l 201 471 b 313 611 230 533 267 580 b 465 658 359 643 410 658 m 419 783 l 596 983 l 635 983 l 447 783 "},"Ņ":{"ha":1040,"x_min":0,"x_max":0,"o":"m 293 949 l 289 949 l 122 0 l 92 0 l 265 983 l 308 983 l 810 36 l 814 36 l 981 983 l 1011 983 l 838 0 l 793 0 m 335 -324 l 457 -62 l 490 -62 l 358 -324 "},"ņ":{"ha":786,"x_min":0,"x_max":0,"o":"m 465 658 b 555 641 500 658 529 653 b 618 595 580 629 601 614 b 656 529 635 576 647 554 b 668 451 664 504 668 478 b 660 379 668 431 665 407 l 593 0 l 563 0 l 631 381 b 635 415 632 391 634 402 b 638 450 637 428 638 440 b 628 516 638 472 634 494 b 597 574 621 538 611 557 b 543 616 583 591 565 605 b 461 632 521 627 494 632 b 362 610 426 632 393 625 b 278 549 331 596 303 575 b 213 451 253 522 231 489 b 174 319 195 412 182 369 l 117 0 l 86 0 l 171 478 b 177 515 173 488 175 500 b 183 560 179 530 181 545 b 189 604 185 576 187 590 b 192 639 191 618 192 630 l 222 639 b 218 604 221 630 220 618 b 213 559 216 590 214 575 b 206 512 211 543 208 527 b 199 471 203 497 200 483 l 201 471 b 313 611 230 533 267 580 b 465 658 359 643 410 658 m 221 -324 l 343 -62 l 376 -62 l 244 -324 "},"Ň":{"ha":1040,"x_min":0,"x_max":0,"o":"m 293 949 l 289 949 l 122 0 l 92 0 l 265 983 l 308 983 l 810 36 l 814 36 l 981 983 l 1011 983 l 838 0 l 793 0 m 525 1261 l 553 1261 l 647 1078 l 814 1261 l 847 1261 l 667 1061 l 626 1061 "},"ň":{"ha":786,"x_min":0,"x_max":0,"o":"m 465 658 b 555 641 500 658 529 653 b 618 595 580 629 601 614 b 656 529 635 576 647 554 b 668 451 664 504 668 478 b 660 379 668 431 665 407 l 593 0 l 563 0 l 631 381 b 635 415 632 391 634 402 b 638 450 637 428 638 440 b 628 516 638 472 634 494 b 597 574 621 538 611 557 b 543 616 583 591 565 605 b 461 632 521 627 494 632 b 362 610 426 632 393 625 b 278 549 331 596 303 575 b 213 451 253 522 231 489 b 174 319 195 412 182 369 l 117 0 l 86 0 l 171 478 b 177 515 173 488 175 500 b 183 560 179 530 181 545 b 189 604 185 576 187 590 b 192 639 191 618 192 630 l 222 639 b 218 604 221 630 220 618 b 213 559 216 590 214 575 b 206 512 211 543 208 527 b 199 471 203 497 200 483 l 201 471 b 313 611 230 533 267 580 b 465 658 359 643 410 658 m 335 983 l 363 983 l 457 800 l 624 983 l 657 983 l 476 783 l 436 783 "},"ŉ":{"ha":786,"x_min":0,"x_max":0,"o":"m 465 658 b 555 641 500 658 529 653 b 618 595 580 629 601 614 b 656 529 635 576 647 554 b 668 451 664 504 668 478 b 660 379 668 431 665 407 l 593 0 l 563 0 l 631 381 b 635 415 632 391 634 402 b 638 450 637 428 638 440 b 628 516 638 472 634 494 b 597 574 621 538 611 557 b 543 616 583 591 565 605 b 461 632 521 627 494 632 b 362 610 426 632 393 625 b 278 549 331 596 303 575 b 213 451 253 522 231 489 b 174 319 195 412 182 369 l 117 0 l 86 0 l 171 478 b 177 515 173 488 175 500 b 183 560 179 530 181 545 b 189 604 185 576 187 590 b 192 639 191 618 192 630 l 222 639 b 218 604 221 630 220 618 b 213 559 216 590 214 575 b 206 512 211 543 208 527 b 199 471 203 497 200 483 l 201 471 b 313 611 230 533 267 580 b 465 658 359 643 410 658 m 164 722 l 286 983 l 319 983 l 188 722 "},"Ō":{"ha":1211,"x_min":0,"x_max":0,"o":"m 1099 571 b 1074 731 1099 627 1091 681 b 999 863 1058 782 1033 825 b 871 951 966 900 923 929 b 688 983 819 972 758 983 b 469 935 608 983 535 967 b 301 808 404 903 348 861 b 194 624 255 754 219 693 b 156 410 168 555 156 484 b 181 249 156 352 164 299 b 256 119 197 200 222 156 b 385 32 290 82 333 53 b 568 0 437 11 498 0 b 785 47 648 0 720 16 b 953 174 851 79 906 121 b 1060 356 999 226 1035 287 b 1099 571 1086 425 1099 497 m 125 410 b 165 637 125 488 138 564 b 278 829 191 709 229 774 b 456 962 327 885 386 929 b 688 1011 525 995 602 1011 b 882 978 762 1011 826 1000 b 1020 885 938 956 984 925 b 1102 744 1057 845 1084 798 b 1129 571 1120 691 1129 633 b 1090 344 1129 492 1116 417 b 977 153 1063 272 1026 209 b 800 22 928 98 869 54 b 568 -28 731 -11 653 -28 b 374 6 494 -28 429 -17 b 235 97 318 28 272 58 b 152 235 198 136 170 182 b 125 410 134 289 125 347 m 586 1168 l 908 1168 l 903 1140 l 581 1140 "},"ō":{"ha":831,"x_min":0,"x_max":0,"o":"m 714 371 b 698 471 714 406 709 439 b 649 554 687 502 671 530 b 565 611 626 578 599 597 b 447 632 532 625 493 632 b 308 601 395 632 349 622 b 202 521 266 581 231 554 b 135 405 173 488 150 449 b 111 268 119 361 111 315 b 127 167 111 233 116 199 b 176 84 138 135 154 108 b 258 28 197 60 225 42 b 376 7 292 14 331 7 b 515 37 427 7 474 17 b 622 117 557 57 593 84 b 690 234 652 151 675 190 b 714 371 706 278 714 324 m 81 267 b 106 414 81 318 89 367 b 180 539 123 461 148 503 b 297 626 212 575 251 604 b 450 658 342 647 394 658 b 578 636 499 658 542 651 b 670 575 615 621 646 601 b 726 484 695 549 713 519 b 744 372 738 449 744 412 b 719 224 744 320 736 271 b 645 99 702 176 677 135 b 529 13 613 63 575 34 b 376 -19 484 -9 433 -19 b 247 3 327 -19 284 -12 b 155 63 210 18 179 38 b 99 153 130 89 112 119 b 81 267 87 188 81 226 m 344 890 l 667 890 l 661 863 l 339 863 "},"Ŏ":{"ha":1211,"x_min":0,"x_max":0,"o":"m 1099 571 b 1074 731 1099 627 1091 681 b 999 863 1058 782 1033 825 b 871 951 966 900 923 929 b 688 983 819 972 758 983 b 469 935 608 983 535 967 b 301 808 404 903 348 861 b 194 624 255 754 219 693 b 156 410 168 555 156 484 b 181 249 156 352 164 299 b 256 119 197 200 222 156 b 385 32 290 82 333 53 b 568 0 437 11 498 0 b 785 47 648 0 720 16 b 953 174 851 79 906 121 b 1060 356 999 226 1035 287 b 1099 571 1086 425 1099 497 m 125 410 b 165 637 125 488 138 564 b 278 829 191 709 229 774 b 456 962 327 885 386 929 b 688 1011 525 995 602 1011 b 882 978 762 1011 826 1000 b 1020 885 938 956 984 925 b 1102 744 1057 845 1084 798 b 1129 571 1120 691 1129 633 b 1090 344 1129 492 1116 417 b 977 153 1063 272 1026 209 b 800 22 928 98 869 54 b 568 -28 731 -11 653 -28 b 374 6 494 -28 429 -17 b 235 97 318 28 272 58 b 152 235 198 136 170 182 b 125 410 134 289 125 347 m 924 1247 b 850 1116 909 1189 884 1145 b 724 1072 816 1087 774 1072 b 615 1117 678 1072 642 1087 b 575 1247 588 1147 575 1191 l 599 1247 b 633 1138 599 1199 610 1163 b 725 1100 656 1113 687 1100 b 834 1134 769 1100 805 1111 b 901 1247 863 1157 886 1194 l 924 1247 "},"ŏ":{"ha":831,"x_min":0,"x_max":0,"o":"m 714 371 b 698 471 714 406 709 439 b 649 554 687 502 671 530 b 565 611 626 578 599 597 b 447 632 532 625 493 632 b 308 601 395 632 349 622 b 202 521 266 581 231 554 b 135 405 173 488 150 449 b 111 268 119 361 111 315 b 127 167 111 233 116 199 b 176 84 138 135 154 108 b 258 28 197 60 225 42 b 376 7 292 14 331 7 b 515 37 427 7 474 17 b 622 117 557 57 593 84 b 690 234 652 151 675 190 b 714 371 706 278 714 324 m 81 267 b 106 414 81 318 89 367 b 180 539 123 461 148 503 b 297 626 212 575 251 604 b 450 658 342 647 394 658 b 578 636 499 658 542 651 b 670 575 615 621 646 601 b 726 484 695 549 713 519 b 744 372 738 449 744 412 b 719 224 744 320 736 271 b 645 99 702 176 677 135 b 529 13 613 63 575 34 b 376 -19 484 -9 433 -19 b 247 3 327 -19 284 -12 b 155 63 210 18 179 38 b 99 153 130 89 112 119 b 81 267 87 188 81 226 m 678 969 b 604 838 663 911 638 867 b 478 794 570 809 528 794 b 369 840 432 794 396 809 b 329 969 343 870 329 913 l 353 969 b 388 860 353 921 364 885 b 479 822 411 835 441 822 b 588 856 523 822 559 834 b 656 969 617 879 640 917 l 678 969 "},"Ő":{"ha":1211,"x_min":0,"x_max":0,"o":"m 1099 571 b 1074 731 1099 627 1091 681 b 999 863 1058 782 1033 825 b 871 951 966 900 923 929 b 688 983 819 972 758 983 b 469 935 608 983 535 967 b 301 808 404 903 348 861 b 194 624 255 754 219 693 b 156 410 168 555 156 484 b 181 249 156 352 164 299 b 256 119 197 200 222 156 b 385 32 290 82 333 53 b 568 0 437 11 498 0 b 785 47 648 0 720 16 b 953 174 851 79 906 121 b 1060 356 999 226 1035 287 b 1099 571 1086 425 1099 497 m 125 410 b 165 637 125 488 138 564 b 278 829 191 709 229 774 b 456 962 327 885 386 929 b 688 1011 525 995 602 1011 b 882 978 762 1011 826 1000 b 1020 885 938 956 984 925 b 1102 744 1057 845 1084 798 b 1129 571 1120 691 1129 633 b 1090 344 1129 492 1116 417 b 977 153 1063 272 1026 209 b 800 22 928 98 869 54 b 568 -28 731 -11 653 -28 b 374 6 494 -28 429 -17 b 235 97 318 28 272 58 b 152 235 198 136 170 182 b 125 410 134 289 125 347 m 621 1061 l 797 1261 l 836 1261 l 649 1061 m 789 1061 l 965 1261 l 1004 1261 l 817 1061 "},"ő":{"ha":831,"x_min":0,"x_max":0,"o":"m 714 371 b 698 471 714 406 709 439 b 649 554 687 502 671 530 b 565 611 626 578 599 597 b 447 632 532 625 493 632 b 308 601 395 632 349 622 b 202 521 266 581 231 554 b 135 405 173 488 150 449 b 111 268 119 361 111 315 b 127 167 111 233 116 199 b 176 84 138 135 154 108 b 258 28 197 60 225 42 b 376 7 292 14 331 7 b 515 37 427 7 474 17 b 622 117 557 57 593 84 b 690 234 652 151 675 190 b 714 371 706 278 714 324 m 81 267 b 106 414 81 318 89 367 b 180 539 123 461 148 503 b 297 626 212 575 251 604 b 450 658 342 647 394 658 b 578 636 499 658 542 651 b 670 575 615 621 646 601 b 726 484 695 549 713 519 b 744 372 738 449 744 412 b 719 224 744 320 736 271 b 645 99 702 176 677 135 b 529 13 613 63 575 34 b 376 -19 484 -9 433 -19 b 247 3 327 -19 284 -12 b 155 63 210 18 179 38 b 99 153 130 89 112 119 b 81 267 87 188 81 226 m 385 783 l 561 983 l 600 983 l 413 783 m 553 783 l 729 983 l 768 983 l 581 783 "},"Ŕ":{"ha":825,"x_min":0,"x_max":0,"o":"m 440 496 l 210 496 l 122 0 l 92 0 l 265 983 l 494 983 b 594 973 528 983 561 980 b 685 939 628 966 658 955 b 751 875 713 923 735 902 b 776 775 768 848 776 815 b 746 635 776 718 766 671 b 669 551 725 600 700 572 b 570 510 639 531 606 517 b 471 497 534 502 501 498 l 699 0 l 665 0 m 746 771 b 724 859 746 806 738 835 b 665 917 709 883 689 902 b 581 948 641 931 613 942 b 483 957 549 954 517 957 l 290 957 l 214 522 l 436 522 b 564 536 483 522 526 527 b 662 581 602 545 634 560 b 724 658 689 601 710 627 b 746 771 739 690 746 727 m 469 1061 l 646 1261 l 685 1261 l 497 1061 "},"ŕ":{"ha":429,"x_min":0,"x_max":0,"o":"m 201 471 b 311 615 231 538 268 585 b 447 658 355 644 400 658 l 460 658 b 471 657 463 658 467 658 l 467 631 b 456 632 463 631 459 632 l 449 632 b 341 605 408 632 372 623 b 260 534 310 587 283 563 b 206 437 238 505 219 472 b 175 331 192 401 181 366 l 117 0 l 86 0 l 171 478 b 177 515 173 488 175 500 b 183 560 179 530 181 545 b 189 604 185 576 187 590 b 192 639 191 618 192 630 l 222 639 b 218 604 221 630 220 618 b 213 559 216 590 214 575 b 206 512 211 543 208 527 b 199 471 203 497 200 483 l 201 471 m 240 783 l 417 983 l 456 983 l 268 783 "},"Ŗ":{"ha":825,"x_min":0,"x_max":0,"o":"m 440 496 l 210 496 l 122 0 l 92 0 l 265 983 l 494 983 b 594 973 528 983 561 980 b 685 939 628 966 658 955 b 751 875 713 923 735 902 b 776 775 768 848 776 815 b 746 635 776 718 766 671 b 669 551 725 600 700 572 b 570 510 639 531 606 517 b 471 497 534 502 501 498 l 699 0 l 665 0 m 746 771 b 724 859 746 806 738 835 b 665 917 709 883 689 902 b 581 948 641 931 613 942 b 483 957 549 954 517 957 l 290 957 l 214 522 l 436 522 b 564 536 483 522 526 527 b 662 581 602 545 634 560 b 724 658 689 601 710 627 b 746 771 739 690 746 727 m 219 -324 l 342 -62 l 375 -62 l 243 -324 "},"ŗ":{"ha":429,"x_min":0,"x_max":0,"o":"m 201 471 b 311 615 231 538 268 585 b 447 658 355 644 400 658 l 460 658 b 471 657 463 658 467 658 l 467 631 b 456 632 463 631 459 632 l 449 632 b 341 605 408 632 372 623 b 260 534 310 587 283 563 b 206 437 238 505 219 472 b 175 331 192 401 181 366 l 117 0 l 86 0 l 171 478 b 177 515 173 488 175 500 b 183 560 179 530 181 545 b 189 604 185 576 187 590 b 192 639 191 618 192 630 l 222 639 b 218 604 221 630 220 618 b 213 559 216 590 214 575 b 206 512 211 543 208 527 b 199 471 203 497 200 483 l 201 471 m -14 -325 l 108 -64 l 142 -64 l 10 -325 "},"Ř":{"ha":825,"x_min":0,"x_max":0,"o":"m 440 496 l 210 496 l 122 0 l 92 0 l 265 983 l 494 983 b 594 973 528 983 561 980 b 685 939 628 966 658 955 b 751 875 713 923 735 902 b 776 775 768 848 776 815 b 746 635 776 718 766 671 b 669 551 725 600 700 572 b 570 510 639 531 606 517 b 471 497 534 502 501 498 l 699 0 l 665 0 m 746 771 b 724 859 746 806 738 835 b 665 917 709 883 689 902 b 581 948 641 931 613 942 b 483 957 549 954 517 957 l 290 957 l 214 522 l 436 522 b 564 536 483 522 526 527 b 662 581 602 545 634 560 b 724 658 689 601 710 627 b 746 771 739 690 746 727 m 389 1261 l 417 1261 l 511 1078 l 678 1261 l 711 1261 l 531 1061 l 490 1061 "},"ř":{"ha":429,"x_min":0,"x_max":0,"o":"m 201 471 b 311 615 231 538 268 585 b 447 658 355 644 400 658 l 460 658 b 471 657 463 658 467 658 l 467 631 b 456 632 463 631 459 632 l 449 632 b 341 605 408 632 372 623 b 260 534 310 587 283 563 b 206 437 238 505 219 472 b 175 331 192 401 181 366 l 117 0 l 86 0 l 171 478 b 177 515 173 488 175 500 b 183 560 179 530 181 545 b 189 604 185 576 187 590 b 192 639 191 618 192 630 l 222 639 b 218 604 221 630 220 618 b 213 559 216 590 214 575 b 206 512 211 543 208 527 b 199 471 203 497 200 483 l 201 471 m 215 983 l 243 983 l 338 800 l 504 983 l 538 983 l 357 783 l 317 783 "},"Ś":{"ha":792,"x_min":0,"x_max":0,"o":"m 743 874 b 649 953 725 906 694 932 b 497 983 603 973 553 983 b 397 969 466 983 432 979 b 299 925 361 960 328 945 b 224 848 269 905 244 879 b 194 735 204 817 194 779 b 210 653 194 702 200 675 b 255 598 221 632 236 613 b 323 558 274 583 297 569 b 411 525 349 547 379 536 b 517 482 449 511 484 497 b 600 430 549 467 577 450 b 654 360 623 410 641 387 b 674 264 667 333 674 301 b 649 143 674 219 665 179 b 578 51 632 107 608 76 b 468 -7 547 26 511 7 b 326 -28 425 -21 378 -28 b 239 -18 297 -28 268 -25 b 159 10 210 -12 184 -2 b 93 52 134 22 113 36 b 46 104 74 68 58 86 l 69 122 b 108 76 79 106 92 91 b 167 38 125 62 145 49 b 244 10 190 26 216 17 b 335 0 272 3 302 0 b 458 17 379 0 420 6 b 556 69 495 29 528 46 b 620 151 583 91 605 119 b 643 263 635 184 643 221 b 623 353 643 298 636 328 b 568 417 609 378 591 399 b 487 464 545 435 518 451 b 386 501 456 477 422 489 b 300 535 356 512 327 523 b 229 580 273 548 250 563 b 181 643 209 597 193 618 b 164 733 170 668 164 698 b 194 856 164 781 174 822 b 273 943 215 891 241 920 b 381 994 305 966 341 983 b 500 1011 422 1006 461 1011 b 667 976 567 1011 622 1000 b 767 893 712 953 745 925 l 743 874 m 457 1061 l 633 1261 l 672 1261 l 485 1061 "},"ś":{"ha":556,"x_min":0,"x_max":0,"o":"m 50 89 b 123 33 66 66 90 47 b 229 11 156 18 191 11 b 308 24 258 11 284 16 b 368 60 331 33 351 45 b 406 112 385 75 397 92 b 419 175 415 132 419 153 b 412 222 419 193 417 208 b 385 260 407 236 398 249 b 335 292 373 272 356 283 b 258 322 315 302 289 312 b 142 382 204 340 165 360 b 108 469 120 404 108 433 b 128 552 108 501 115 528 b 181 611 142 576 159 595 b 252 647 202 627 226 639 b 332 658 278 654 305 658 b 442 636 375 658 412 651 b 508 582 472 621 494 603 l 483 564 b 422 614 472 585 452 602 b 331 632 393 626 362 632 b 268 624 311 632 290 629 b 206 597 246 618 225 609 b 158 548 187 584 171 568 b 139 474 145 528 139 503 b 174 394 139 438 150 411 b 276 347 197 378 231 362 b 413 275 343 326 389 302 b 450 176 438 248 450 215 b 434 100 450 149 445 123 b 388 39 423 77 408 56 b 317 -2 368 21 344 8 b 224 -17 289 -12 258 -17 b 107 8 182 -17 143 -9 b 28 69 71 24 44 44 l 50 89 m 307 783 l 483 983 l 522 983 l 335 783 "},"Ŝ":{"ha":792,"x_min":0,"x_max":0,"o":"m 743 874 b 649 953 725 906 694 932 b 497 983 603 973 553 983 b 397 969 466 983 432 979 b 299 925 361 960 328 945 b 224 848 269 905 244 879 b 194 735 204 817 194 779 b 210 653 194 702 200 675 b 255 598 221 632 236 613 b 323 558 274 583 297 569 b 411 525 349 547 379 536 b 517 482 449 511 484 497 b 600 430 549 467 577 450 b 654 360 623 410 641 387 b 674 264 667 333 674 301 b 649 143 674 219 665 179 b 578 51 632 107 608 76 b 468 -7 547 26 511 7 b 326 -28 425 -21 378 -28 b 239 -18 297 -28 268 -25 b 159 10 210 -12 184 -2 b 93 52 134 22 113 36 b 46 104 74 68 58 86 l 69 122 b 108 76 79 106 92 91 b 167 38 125 62 145 49 b 244 10 190 26 216 17 b 335 0 272 3 302 0 b 458 17 379 0 420 6 b 556 69 495 29 528 46 b 620 151 583 91 605 119 b 643 263 635 184 643 221 b 623 353 643 298 636 328 b 568 417 609 378 591 399 b 487 464 545 435 518 451 b 386 501 456 477 422 489 b 300 535 356 512 327 523 b 229 580 273 548 250 563 b 181 643 209 597 193 618 b 164 733 170 668 164 698 b 194 856 164 781 174 822 b 273 943 215 891 241 920 b 381 994 305 966 341 983 b 500 1011 422 1006 461 1011 b 667 976 567 1011 622 1000 b 767 893 712 953 745 925 l 743 874 m 689 1061 l 661 1061 l 567 1244 l 400 1061 l 367 1061 l 547 1261 l 588 1261 "},"ŝ":{"ha":556,"x_min":0,"x_max":0,"o":"m 50 89 b 123 33 66 66 90 47 b 229 11 156 18 191 11 b 308 24 258 11 284 16 b 368 60 331 33 351 45 b 406 112 385 75 397 92 b 419 175 415 132 419 153 b 412 222 419 193 417 208 b 385 260 407 236 398 249 b 335 292 373 272 356 283 b 258 322 315 302 289 312 b 142 382 204 340 165 360 b 108 469 120 404 108 433 b 128 552 108 501 115 528 b 181 611 142 576 159 595 b 252 647 202 627 226 639 b 332 658 278 654 305 658 b 442 636 375 658 412 651 b 508 582 472 621 494 603 l 483 564 b 422 614 472 585 452 602 b 331 632 393 626 362 632 b 268 624 311 632 290 629 b 206 597 246 618 225 609 b 158 548 187 584 171 568 b 139 474 145 528 139 503 b 174 394 139 438 150 411 b 276 347 197 378 231 362 b 413 275 343 326 389 302 b 450 176 438 248 450 215 b 434 100 450 149 445 123 b 388 39 423 77 408 56 b 317 -2 368 21 344 8 b 224 -17 289 -12 258 -17 b 107 8 182 -17 143 -9 b 28 69 71 24 44 44 l 50 89 m 526 783 l 499 783 l 404 967 l 238 783 l 204 783 l 385 983 l 425 983 "},"Ş":{"ha":792,"x_min":0,"x_max":0,"o":"m 290 -314 b 227 -307 273 -314 252 -312 b 163 -286 203 -302 181 -295 l 172 -262 b 231 -281 188 -270 207 -276 b 290 -287 254 -285 274 -287 b 397 -260 341 -287 377 -278 b 428 -196 418 -241 428 -220 b 401 -146 428 -172 419 -155 b 343 -132 383 -137 363 -132 b 291 -137 330 -132 313 -134 b 240 -153 269 -141 252 -146 l 228 -140 l 325 -28 b 158 10 265 -27 209 -14 b 46 104 107 35 70 66 l 69 122 b 108 76 79 106 92 91 b 167 38 125 62 145 49 b 244 10 190 26 216 17 b 335 0 272 3 302 0 b 458 17 379 0 420 6 b 556 69 495 29 528 46 b 620 151 583 91 605 119 b 643 263 635 184 643 221 b 623 353 643 298 636 328 b 568 417 609 378 591 399 b 487 464 545 435 518 451 b 386 501 456 477 422 489 b 300 535 356 512 327 523 b 229 580 273 548 250 563 b 181 643 209 597 193 618 b 164 733 170 668 164 698 b 194 856 164 781 174 822 b 273 943 215 891 241 920 b 381 994 305 966 341 983 b 500 1011 422 1006 461 1011 b 667 976 567 1011 622 1000 b 767 893 712 953 745 925 l 743 874 b 649 953 725 906 694 932 b 497 983 603 973 553 983 b 397 969 466 983 432 979 b 299 925 361 960 328 945 b 224 848 269 905 244 879 b 194 735 204 817 194 779 b 210 653 194 702 200 675 b 255 598 221 632 236 613 b 323 558 274 583 297 569 b 411 525 349 547 379 536 b 517 482 449 511 484 497 b 600 430 549 467 577 450 b 654 360 623 410 641 387 b 674 264 667 333 674 301 b 651 148 674 221 666 183 b 586 58 635 113 614 83 b 485 -1 558 33 525 14 b 354 -26 446 -15 402 -24 l 275 -119 b 310 -110 288 -115 300 -112 b 346 -108 321 -109 333 -108 b 385 -112 359 -108 372 -110 b 420 -126 398 -115 409 -120 b 447 -153 431 -133 440 -142 b 457 -193 453 -164 457 -177 b 410 -285 457 -236 441 -266 b 290 -314 378 -304 338 -314 "},"ş":{"ha":556,"x_min":0,"x_max":0,"o":"m 179 -314 b 116 -307 162 -314 141 -312 b 51 -286 91 -302 70 -295 l 61 -262 b 119 -281 77 -270 96 -276 b 179 -287 143 -285 163 -287 b 286 -260 230 -287 266 -278 b 317 -196 306 -241 317 -220 b 290 -146 317 -172 308 -155 b 232 -132 272 -137 252 -132 b 180 -137 219 -132 202 -134 b 129 -153 158 -141 141 -146 l 117 -140 l 222 -17 b 106 8 181 -17 142 -9 b 28 69 71 24 44 44 l 50 89 b 123 33 66 66 90 47 b 229 11 156 18 191 11 b 308 24 258 11 284 16 b 368 60 331 33 351 45 b 406 112 385 75 397 92 b 419 175 415 132 419 153 b 412 222 419 193 417 208 b 385 260 407 236 398 249 b 335 292 373 272 356 283 b 258 322 315 302 289 312 b 142 382 204 340 165 360 b 108 469 120 404 108 433 b 128 552 108 501 115 528 b 181 611 142 576 159 595 b 252 647 202 627 226 639 b 332 658 278 654 305 658 b 442 636 375 658 412 651 b 508 582 472 621 494 603 l 483 564 b 422 614 472 585 452 602 b 331 632 393 626 362 632 b 268 624 311 632 290 629 b 206 597 246 618 225 609 b 158 548 187 584 171 568 b 139 474 145 528 139 503 b 174 394 139 438 150 411 b 276 347 197 378 231 362 b 413 275 343 326 389 302 b 450 176 438 248 450 215 b 397 47 450 125 432 82 b 253 -15 362 11 314 -10 l 164 -119 b 199 -110 177 -115 189 -112 b 235 -108 210 -109 222 -108 b 274 -112 248 -108 261 -110 b 309 -126 287 -115 298 -120 b 335 -153 320 -133 328 -142 b 346 -193 342 -164 346 -177 b 299 -285 346 -236 330 -266 b 179 -314 267 -304 227 -314 "},"Ţ":{"ha":715,"x_min":0,"x_max":0,"o":"m 317 0 l 286 0 l 454 956 l 114 956 l 119 983 l 819 983 l 814 956 l 485 956 m 229 -314 b 166 -307 212 -314 191 -312 b 101 -286 141 -302 120 -295 l 111 -262 b 169 -281 127 -270 146 -276 b 229 -287 193 -285 213 -287 b 336 -260 280 -287 316 -278 b 367 -196 356 -241 367 -220 b 340 -146 367 -172 358 -155 b 282 -132 322 -137 302 -132 b 230 -137 269 -132 252 -134 b 179 -153 208 -141 191 -146 l 167 -140 l 288 0 l 317 0 l 214 -119 b 249 -110 227 -115 239 -112 b 285 -108 260 -109 272 -108 b 324 -112 298 -108 311 -110 b 359 -126 337 -115 348 -120 b 385 -153 370 -133 378 -142 b 396 -193 392 -164 396 -177 b 349 -285 396 -236 380 -266 b 229 -314 317 -304 277 -314 "},"ţ":{"ha":406,"x_min":0,"x_max":0,"o":"m 322 -1 b 285 -12 310 -6 298 -10 b 246 -17 273 -15 260 -17 b 156 12 206 -17 176 -7 b 125 90 135 31 125 57 b 127 121 125 98 126 108 b 132 151 128 134 130 144 l 214 613 l 67 613 l 71 639 l 217 639 l 250 826 l 281 826 l 247 639 l 422 639 l 418 613 l 243 613 l 161 147 b 157 119 159 140 158 130 b 156 93 156 107 156 99 b 182 28 156 63 164 41 b 253 10 200 16 223 10 b 285 13 261 10 272 11 b 322 22 299 14 311 18 l 322 -1 m 138 -314 b 74 -307 120 -314 99 -312 b 10 -286 50 -302 28 -295 l 19 -262 b 78 -281 35 -270 55 -276 b 138 -287 101 -285 121 -287 b 244 -260 188 -287 224 -278 b 275 -196 265 -241 275 -220 b 248 -146 275 -172 266 -155 b 190 -132 230 -137 211 -132 b 138 -137 177 -132 160 -134 b 88 -153 116 -141 100 -146 l 75 -140 l 196 0 l 225 0 l 122 -119 b 158 -110 135 -115 147 -112 b 193 -108 168 -109 180 -108 b 232 -112 206 -108 219 -110 b 267 -126 245 -115 257 -120 b 294 -153 278 -133 287 -142 b 304 -193 301 -164 304 -177 b 257 -285 304 -236 288 -266 b 138 -314 225 -304 186 -314 "},"Ť":{"ha":715,"x_min":0,"x_max":0,"o":"m 317 0 l 286 0 l 454 956 l 114 956 l 119 983 l 819 983 l 814 956 l 485 956 m 364 1261 l 392 1261 l 486 1078 l 653 1261 l 686 1261 l 506 1061 l 465 1061 "},"ť":{"ha":406,"x_min":0,"x_max":0,"o":"m 322 -1 b 285 -12 310 -6 298 -10 b 246 -17 273 -15 260 -17 b 156 12 206 -17 176 -7 b 125 90 135 31 125 57 b 127 121 125 98 126 108 b 132 151 128 134 130 144 l 214 613 l 67 613 l 71 639 l 217 639 l 250 826 l 281 826 l 247 639 l 422 639 l 418 613 l 243 613 l 161 147 b 157 119 159 140 158 130 b 156 93 156 107 156 99 b 182 28 156 63 164 41 b 253 10 200 16 223 10 b 285 13 261 10 272 11 b 322 22 299 14 311 18 l 322 -1 m 385 754 l 507 1015 l 540 1015 l 408 754 "},"Ŧ":{"ha":750,"x_min":0,"x_max":0,"o":"m 335 0 l 304 0 l 432 732 l 153 732 l 158 757 l 436 757 l 472 956 l 132 956 l 138 983 l 838 983 l 832 956 l 503 956 l 468 757 l 742 757 l 736 732 l 464 732 "},"ŧ":{"ha":406,"x_min":0,"x_max":0,"o":"m 161 147 b 157 119 159 140 158 130 b 156 93 156 107 156 99 b 182 28 156 63 164 41 b 253 10 200 16 223 10 b 285 13 261 10 272 11 b 322 22 299 14 311 18 l 322 -1 b 285 -12 310 -6 298 -10 b 246 -17 273 -15 260 -17 b 156 12 206 -17 176 -7 b 125 90 135 31 125 57 b 127 121 125 98 126 108 b 132 151 128 134 130 144 l 168 360 l 36 360 l 42 385 l 172 385 l 214 613 l 67 613 l 71 639 l 217 639 l 250 826 l 281 826 l 247 639 l 422 639 l 418 613 l 243 613 l 203 385 l 367 385 l 361 360 l 199 360 "},"Ũ":{"ha":994,"x_min":0,"x_max":0,"o":"m 874 372 b 832 216 863 317 850 265 b 759 89 814 167 790 125 b 641 3 728 53 689 24 b 465 -28 593 -17 535 -28 b 217 52 355 -28 272 -1 b 133 274 161 105 133 179 b 137 328 133 290 134 308 b 146 385 139 347 142 366 l 251 983 l 282 983 l 176 383 b 167 324 173 362 170 342 b 164 274 165 305 164 288 b 181 165 164 235 170 199 b 235 78 193 132 211 103 b 329 21 260 54 291 35 b 465 0 367 7 413 0 b 644 36 538 0 598 12 b 753 128 690 60 726 91 b 814 251 781 166 801 207 b 844 378 827 295 837 337 l 951 983 l 982 983 l 874 372 m 638 1164 b 685 1135 660 1148 676 1139 b 715 1131 695 1132 705 1131 b 783 1197 746 1131 769 1153 l 807 1197 b 765 1126 797 1164 783 1140 b 711 1104 748 1111 730 1104 b 672 1111 696 1104 683 1106 b 628 1138 661 1116 646 1125 b 581 1165 606 1152 591 1162 b 551 1171 572 1169 562 1171 b 483 1100 522 1171 499 1147 l 460 1100 b 501 1174 470 1133 484 1158 b 556 1197 519 1189 537 1197 b 594 1190 570 1197 583 1195 b 638 1164 604 1186 619 1177 "},"ũ":{"ha":786,"x_min":0,"x_max":0,"o":"m 308 -19 b 219 -2 274 -19 244 -14 b 156 44 193 9 172 25 b 118 110 139 63 126 85 b 106 188 110 135 106 161 b 114 260 106 208 108 232 l 181 639 l 211 639 l 143 258 b 138 224 141 248 140 237 b 136 189 137 211 136 199 b 146 123 136 167 139 145 b 176 65 152 101 163 82 b 231 23 190 47 208 34 b 313 7 253 12 280 7 b 412 28 348 7 381 14 b 496 90 443 43 471 63 b 560 188 521 117 542 150 b 600 319 578 227 592 270 l 657 639 l 688 639 l 603 161 b 597 124 601 151 599 138 b 590 78 594 109 592 94 b 585 35 588 63 587 49 b 582 0 583 21 582 9 l 551 0 b 556 35 552 9 554 21 b 561 80 557 49 559 64 b 568 127 563 96 565 112 b 575 168 571 142 573 156 l 572 168 b 460 28 544 106 506 59 b 308 -19 415 -4 364 -19 m 472 886 b 520 858 494 870 510 861 b 550 853 530 854 540 853 b 618 919 581 853 603 875 l 642 919 b 600 848 631 886 618 862 b 546 826 582 834 564 826 b 507 833 531 826 518 829 b 463 860 496 838 481 847 b 416 888 441 875 426 884 b 386 893 406 891 396 893 b 318 822 356 893 334 869 l 294 822 b 336 896 305 856 319 880 b 390 919 354 912 372 919 b 428 913 405 919 418 917 b 472 886 439 908 454 899 "},"Ū":{"ha":994,"x_min":0,"x_max":0,"o":"m 874 372 b 832 216 863 317 850 265 b 759 89 814 167 790 125 b 641 3 728 53 689 24 b 465 -28 593 -17 535 -28 b 217 52 355 -28 272 -1 b 133 274 161 105 133 179 b 137 328 133 290 134 308 b 146 385 139 347 142 366 l 251 983 l 282 983 l 176 383 b 167 324 173 362 170 342 b 164 274 165 305 164 288 b 181 165 164 235 170 199 b 235 78 193 132 211 103 b 329 21 260 54 291 35 b 465 0 367 7 413 0 b 644 36 538 0 598 12 b 753 128 690 60 726 91 b 814 251 781 166 801 207 b 844 378 827 295 837 337 l 951 983 l 982 983 l 874 372 m 476 1168 l 799 1168 l 793 1140 l 471 1140 "},"ū":{"ha":786,"x_min":0,"x_max":0,"o":"m 308 -19 b 219 -2 274 -19 244 -14 b 156 44 193 9 172 25 b 118 110 139 63 126 85 b 106 188 110 135 106 161 b 114 260 106 208 108 232 l 181 639 l 211 639 l 143 258 b 138 224 141 248 140 237 b 136 189 137 211 136 199 b 146 123 136 167 139 145 b 176 65 152 101 163 82 b 231 23 190 47 208 34 b 313 7 253 12 280 7 b 412 28 348 7 381 14 b 496 90 443 43 471 63 b 560 188 521 117 542 150 b 600 319 578 227 592 270 l 657 639 l 688 639 l 603 161 b 597 124 601 151 599 138 b 590 78 594 109 592 94 b 585 35 588 63 587 49 b 582 0 583 21 582 9 l 551 0 b 556 35 552 9 554 21 b 561 80 557 49 559 64 b 568 127 563 96 565 112 b 575 168 571 142 573 156 l 572 168 b 460 28 544 106 506 59 b 308 -19 415 -4 364 -19 m 310 890 l 632 890 l 626 863 l 304 863 "},"Ŭ":{"ha":994,"x_min":0,"x_max":0,"o":"m 874 372 b 832 216 863 317 850 265 b 759 89 814 167 790 125 b 641 3 728 53 689 24 b 465 -28 593 -17 535 -28 b 217 52 355 -28 272 -1 b 133 274 161 105 133 179 b 137 328 133 290 134 308 b 146 385 139 347 142 366 l 251 983 l 282 983 l 176 383 b 167 324 173 362 170 342 b 164 274 165 305 164 288 b 181 165 164 235 170 199 b 235 78 193 132 211 103 b 329 21 260 54 291 35 b 465 0 367 7 413 0 b 644 36 538 0 598 12 b 753 128 690 60 726 91 b 814 251 781 166 801 207 b 844 378 827 295 837 337 l 951 983 l 982 983 l 874 372 m 814 1247 b 740 1116 799 1189 775 1145 b 614 1072 706 1087 664 1072 b 506 1117 569 1072 532 1087 b 465 1247 479 1147 465 1191 l 489 1247 b 524 1138 489 1199 500 1163 b 615 1100 547 1113 577 1100 b 724 1134 659 1100 695 1111 b 792 1247 753 1157 776 1194 l 814 1247 "},"ŭ":{"ha":786,"x_min":0,"x_max":0,"o":"m 308 -19 b 219 -2 274 -19 244 -14 b 156 44 193 9 172 25 b 118 110 139 63 126 85 b 106 188 110 135 106 161 b 114 260 106 208 108 232 l 181 639 l 211 639 l 143 258 b 138 224 141 248 140 237 b 136 189 137 211 136 199 b 146 123 136 167 139 145 b 176 65 152 101 163 82 b 231 23 190 47 208 34 b 313 7 253 12 280 7 b 412 28 348 7 381 14 b 496 90 443 43 471 63 b 560 188 521 117 542 150 b 600 319 578 227 592 270 l 657 639 l 688 639 l 603 161 b 597 124 601 151 599 138 b 590 78 594 109 592 94 b 585 35 588 63 587 49 b 582 0 583 21 582 9 l 551 0 b 556 35 552 9 554 21 b 561 80 557 49 559 64 b 568 127 563 96 565 112 b 575 168 571 142 573 156 l 572 168 b 460 28 544 106 506 59 b 308 -19 415 -4 364 -19 m 644 969 b 571 838 630 911 605 867 b 444 794 537 809 494 794 b 336 840 399 794 363 809 b 296 969 309 870 296 913 l 319 969 b 354 860 319 921 331 885 b 446 822 377 835 408 822 b 555 856 489 822 526 834 b 622 969 584 879 606 917 l 644 969 "},"Ů":{"ha":994,"x_min":0,"x_max":0,"o":"m 874 372 b 832 216 863 317 850 265 b 759 89 814 167 790 125 b 641 3 728 53 689 24 b 465 -28 593 -17 535 -28 b 217 52 355 -28 272 -1 b 133 274 161 105 133 179 b 137 328 133 290 134 308 b 146 385 139 347 142 366 l 251 983 l 282 983 l 176 383 b 167 324 173 362 170 342 b 164 274 165 305 164 288 b 181 165 164 235 170 199 b 235 78 193 132 211 103 b 329 21 260 54 291 35 b 465 0 367 7 413 0 b 644 36 538 0 598 12 b 753 128 690 60 726 91 b 814 251 781 166 801 207 b 844 378 827 295 837 337 l 951 983 l 982 983 l 874 372 m 746 1200 b 724 1263 746 1224 739 1245 b 656 1290 710 1281 687 1290 b 570 1251 619 1290 591 1277 b 539 1161 549 1225 539 1195 b 560 1099 539 1137 546 1116 b 629 1072 574 1081 597 1072 b 714 1110 664 1072 693 1085 b 746 1200 735 1136 746 1166 m 514 1160 b 524 1218 514 1180 517 1200 b 552 1267 530 1237 540 1253 b 597 1300 565 1281 580 1292 b 657 1313 615 1308 635 1313 b 743 1280 696 1313 725 1302 b 771 1201 762 1258 771 1232 b 761 1143 771 1181 768 1162 b 733 1094 755 1125 745 1108 b 688 1061 720 1081 705 1069 b 628 1049 670 1053 650 1049 b 542 1081 589 1049 560 1059 b 514 1160 523 1102 514 1128 "},"ů":{"ha":786,"x_min":0,"x_max":0,"o":"m 308 -19 b 219 -2 274 -19 244 -14 b 156 44 193 9 172 25 b 118 110 139 63 126 85 b 106 188 110 135 106 161 b 114 260 106 208 108 232 l 181 639 l 211 639 l 143 258 b 138 224 141 248 140 237 b 136 189 137 211 136 199 b 146 123 136 167 139 145 b 176 65 152 101 163 82 b 231 23 190 47 208 34 b 313 7 253 12 280 7 b 412 28 348 7 381 14 b 496 90 443 43 471 63 b 560 188 521 117 542 150 b 600 319 578 227 592 270 l 657 639 l 688 639 l 603 161 b 597 124 601 151 599 138 b 590 78 594 109 592 94 b 585 35 588 63 587 49 b 582 0 583 21 582 9 l 551 0 b 556 35 552 9 554 21 b 561 80 557 49 559 64 b 568 127 563 96 565 112 b 575 168 571 142 573 156 l 572 168 b 460 28 544 106 506 59 b 308 -19 415 -4 364 -19 m 575 922 b 553 985 575 946 568 967 b 485 1013 539 1003 516 1013 b 399 974 449 1013 420 1000 b 368 883 378 948 368 918 b 389 821 368 859 375 838 b 458 794 403 803 426 794 b 543 833 494 794 522 807 b 575 922 564 858 575 888 m 343 882 b 353 940 343 902 346 922 b 381 989 359 959 369 975 b 426 1022 394 1003 409 1014 b 486 1035 444 1031 464 1035 b 572 1002 525 1035 554 1024 b 600 924 591 980 600 954 b 590 865 600 903 597 884 b 562 817 584 847 574 831 b 517 783 549 803 534 792 b 457 771 499 775 479 771 b 371 803 418 771 389 781 b 343 882 352 824 343 850 "},"Ű":{"ha":994,"x_min":0,"x_max":0,"o":"m 874 372 b 832 216 863 317 850 265 b 759 89 814 167 790 125 b 641 3 728 53 689 24 b 465 -28 593 -17 535 -28 b 217 52 355 -28 272 -1 b 133 274 161 105 133 179 b 137 328 133 290 134 308 b 146 385 139 347 142 366 l 251 983 l 282 983 l 176 383 b 167 324 173 362 170 342 b 164 274 165 305 164 288 b 181 165 164 235 170 199 b 235 78 193 132 211 103 b 329 21 260 54 291 35 b 465 0 367 7 413 0 b 644 36 538 0 598 12 b 753 128 690 60 726 91 b 814 251 781 166 801 207 b 844 378 827 295 837 337 l 951 983 l 982 983 l 874 372 m 515 1061 l 692 1261 l 731 1261 l 543 1061 m 683 1061 l 860 1261 l 899 1261 l 711 1061 "},"ű":{"ha":786,"x_min":0,"x_max":0,"o":"m 308 -19 b 219 -2 274 -19 244 -14 b 156 44 193 9 172 25 b 118 110 139 63 126 85 b 106 188 110 135 106 161 b 114 260 106 208 108 232 l 181 639 l 211 639 l 143 258 b 138 224 141 248 140 237 b 136 189 137 211 136 199 b 146 123 136 167 139 145 b 176 65 152 101 163 82 b 231 23 190 47 208 34 b 313 7 253 12 280 7 b 412 28 348 7 381 14 b 496 90 443 43 471 63 b 560 188 521 117 542 150 b 600 319 578 227 592 270 l 657 639 l 688 639 l 603 161 b 597 124 601 151 599 138 b 590 78 594 109 592 94 b 585 35 588 63 587 49 b 582 0 583 21 582 9 l 551 0 b 556 35 552 9 554 21 b 561 80 557 49 559 64 b 568 127 563 96 565 112 b 575 168 571 142 573 156 l 572 168 b 460 28 544 106 506 59 b 308 -19 415 -4 364 -19 m 344 783 l 521 983 l 560 983 l 372 783 m 513 783 l 689 983 l 728 983 l 540 783 "},"Ų":{"ha":994,"x_min":0,"x_max":0,"o":"m 571 -267 b 517 -298 554 -280 536 -290 b 457 -310 498 -306 478 -310 b 381 -288 427 -310 402 -303 b 350 -222 360 -274 350 -252 b 380 -131 350 -190 360 -159 b 481 -28 400 -102 433 -68 l 465 -28 b 217 52 355 -28 272 -1 b 133 274 161 105 133 179 b 137 328 133 290 134 308 b 146 385 139 347 142 366 l 251 983 l 282 983 l 176 383 b 167 324 173 362 170 342 b 164 274 165 305 164 288 b 181 165 164 235 170 199 b 235 78 193 132 211 103 b 329 21 260 54 291 35 b 465 0 367 7 413 0 b 644 36 538 0 598 12 b 753 128 690 60 726 91 b 814 251 781 166 801 207 b 844 378 827 295 837 337 l 951 983 l 982 983 l 874 372 b 836 226 864 320 852 272 b 771 103 820 180 799 139 b 668 17 743 68 709 39 b 518 -25 627 -6 577 -19 b 452 -87 491 -49 469 -70 b 410 -134 435 -104 421 -120 b 388 -175 400 -148 392 -162 b 382 -217 384 -188 382 -202 b 402 -267 382 -238 389 -255 b 458 -285 416 -279 434 -285 b 514 -274 477 -285 495 -281 b 561 -244 532 -266 548 -256 l 571 -267 "},"ų":{"ha":786,"x_min":0,"x_max":0,"o":"m 606 -267 b 552 -298 589 -280 571 -290 b 492 -310 533 -306 513 -310 b 416 -288 462 -310 437 -303 b 385 -222 395 -274 385 -252 b 394 -172 385 -205 388 -188 b 423 -121 400 -155 409 -138 b 474 -65 436 -103 453 -85 b 550 0 495 -46 520 -24 l 551 0 b 556 35 552 9 554 21 b 561 80 557 49 559 64 b 568 127 563 96 565 112 b 575 168 571 142 573 156 l 572 168 b 460 28 544 106 506 59 b 308 -19 415 -4 364 -19 b 219 -2 274 -19 244 -14 b 156 44 193 9 172 25 b 118 110 139 63 126 85 b 106 188 110 135 106 161 b 114 260 106 208 108 232 l 181 639 l 211 639 l 143 258 b 138 224 141 248 140 237 b 136 189 137 211 136 199 b 146 123 136 167 139 145 b 176 65 152 101 163 82 b 231 23 190 47 208 34 b 313 7 253 12 280 7 b 412 28 348 7 381 14 b 496 90 443 43 471 63 b 560 188 521 117 542 150 b 600 319 578 227 592 270 l 657 639 l 688 639 l 603 161 b 597 124 601 151 599 138 b 590 78 594 109 592 94 b 585 35 588 63 587 49 b 582 0 583 21 582 9 b 501 -72 550 -28 523 -52 b 451 -127 480 -93 463 -111 b 424 -172 438 -143 429 -158 b 417 -217 419 -186 417 -201 b 437 -267 417 -238 423 -255 b 493 -285 450 -279 469 -285 b 549 -274 512 -285 530 -281 b 596 -244 567 -266 583 -256 l 606 -267 "},"Ŵ":{"ha":1310,"x_min":0,"x_max":0,"o":"m 857 0 l 778 951 l 775 951 l 290 0 l 242 0 l 160 983 l 192 983 l 269 29 l 274 29 l 758 983 l 806 983 l 885 29 l 889 29 l 1378 983 l 1413 983 l 906 0 m 953 1061 l 925 1061 l 831 1244 l 664 1061 l 631 1061 l 811 1261 l 851 1261 "},"ŵ":{"ha":961,"x_min":0,"x_max":0,"o":"m 618 0 l 538 606 l 535 606 l 200 0 l 158 0 l 106 639 l 138 639 l 185 31 l 188 31 l 521 639 l 564 639 l 643 31 l 646 31 l 949 639 l 982 639 l 660 0 m 733 783 l 706 783 l 611 967 l 444 783 l 411 783 l 592 983 l 632 983 "},"Ŷ":{"ha":713,"x_min":0,"x_max":0,"o":"m 304 0 l 274 0 l 350 431 l 125 983 l 158 983 l 369 461 l 793 983 l 831 983 l 381 431 m 654 1061 l 626 1061 l 532 1244 l 365 1061 l 332 1061 l 513 1261 l 553 1261 "},"ŷ":{"ha":594,"x_min":0,"x_max":0,"o":"m 154 -211 b 83 -303 133 -251 109 -282 b -17 -336 57 -325 24 -336 b -46 -333 -25 -336 -35 -335 b -72 -326 -57 -331 -66 -329 l -67 -300 b -45 -306 -62 -302 -55 -304 b -17 -308 -35 -307 -26 -308 b 40 -297 5 -308 23 -305 b 82 -269 56 -290 70 -280 b 113 -229 94 -257 104 -244 b 139 -185 122 -214 131 -200 l 229 -18 l 96 639 l 126 639 l 250 17 l 586 639 l 621 639 l 154 -211 m 544 783 l 517 783 l 422 967 l 256 783 l 222 783 l 403 983 l 443 983 "},"Ź":{"ha":825,"x_min":0,"x_max":0,"o":"m 25 38 l 833 956 l 206 956 l 211 983 l 868 983 l 861 943 l 54 28 l 717 28 l 711 0 l 19 0 m 497 1061 l 674 1261 l 713 1261 l 525 1061 "},"ź":{"ha":597,"x_min":0,"x_max":0,"o":"m 10 29 l 535 613 l 138 613 l 142 639 l 572 639 l 567 608 l 46 26 l 481 26 l 476 0 l 7 0 m 326 783 l 503 983 l 542 983 l 354 783 "},"Ż":{"ha":825,"x_min":0,"x_max":0,"o":"m 25 38 l 833 956 l 206 956 l 211 983 l 868 983 l 861 943 l 54 28 l 717 28 l 711 0 l 19 0 m 563 1157 b 542 1165 554 1157 547 1159 b 533 1189 536 1170 533 1178 b 543 1216 533 1199 537 1208 b 568 1228 550 1224 558 1228 b 589 1220 576 1228 583 1225 b 597 1197 594 1215 597 1207 b 587 1169 597 1186 594 1177 b 563 1157 580 1161 572 1157 "},"ż":{"ha":597,"x_min":0,"x_max":0,"o":"m 10 29 l 535 613 l 138 613 l 142 639 l 572 639 l 567 608 l 46 26 l 481 26 l 476 0 l 7 0 m 390 879 b 369 887 382 879 375 882 b 361 911 364 892 361 900 b 371 938 361 921 364 930 b 396 950 377 946 386 950 b 417 942 404 950 411 947 b 425 919 422 937 425 930 b 415 891 425 908 422 899 b 390 879 408 883 400 879 "},"ƒ":{"ha":778,"x_min":0,"x_max":0,"o":"m 767 949 b 736 967 759 956 749 962 b 697 974 723 971 710 974 b 633 960 673 974 652 969 b 583 924 614 950 597 938 b 548 874 569 909 558 892 b 524 818 538 855 530 837 l 433 567 l 597 567 l 593 540 l 425 540 l 221 -28 b 191 -98 212 -54 202 -77 b 153 -152 180 -119 168 -137 b 101 -187 138 -167 121 -179 b 32 -200 82 -196 59 -200 b -10 -197 17 -200 3 -199 b -46 -182 -24 -194 -36 -189 l -33 -156 b 31 -172 -13 -167 8 -172 b 94 -159 55 -172 76 -168 b 141 -122 112 -150 128 -138 b 176 -65 154 -105 166 -86 b 206 7 187 -43 196 -19 l 394 540 l 240 540 l 244 567 l 403 567 l 488 807 b 519 879 497 832 507 856 b 560 941 530 902 544 923 b 617 984 575 959 594 973 b 694 1000 639 995 665 1000 b 783 974 734 1000 764 991 l 767 949 "}}}
